<svg width="18" height="52" viewBox="0 0 18 52" fill="none" xmlns="http://www.w3.org/2000/svg">
<path d="M0.981318 51.1569C0.917521 51.1461 0.874516 51.0857 0.885263 51.0219L1.0604 49.9823C1.07115 49.9185 1.13158 49.8755 1.19538 49.8862C1.25917 49.897 1.30218 49.9574 1.29143 50.0212L1.13575 50.9453L2.05986 51.101C2.12366 51.1117 2.16667 51.1722 2.15592 51.236C2.14517 51.2998 2.08474 51.3428 2.02094 51.332L0.981318 51.1569ZM9.87033 0.947479C10.4223 2.04792 10.9433 3.12608 11.4332 4.18293L11.2207 4.28146C10.7318 3.22695 10.2119 2.15096 9.66092 1.05252L9.87033 0.947479ZM14.1902 10.7933C15.0676 13.1939 15.7531 15.4774 16.2448 17.6585L16.0163 17.7101C15.5271 15.5401 14.8447 13.2664 13.9701 10.8737L14.1902 10.7933ZM17.1694 24.7656C17.2283 27.2669 16.9707 29.6302 16.3934 31.8862L16.1664 31.8281C16.7381 29.5944 16.9936 27.2525 16.9352 24.7711L17.1694 24.7656ZM13.6207 38.4934C12.4544 40.4483 11.0002 42.3334 9.25683 44.1749L9.0867 44.0138C10.82 42.183 12.2632 40.3115 13.4195 38.3734L13.6207 38.4934ZM3.94206 48.9845C3.03168 49.7046 2.07393 50.4214 1.0687 51.1368L0.932856 50.9459C1.93514 50.2326 2.8897 49.5182 3.79673 48.8007L3.94206 48.9845ZM0.961858 51.2724C0.834264 51.2509 0.748254 51.13 0.769749 51.0024L1.12003 48.9232C1.14152 48.7956 1.26238 48.7096 1.38997 48.7311C1.51757 48.7526 1.60358 48.8734 1.58208 49.001L1.27073 50.8493L3.11895 51.1606C3.24655 51.1821 3.33256 51.303 3.31106 51.4306C3.28957 51.5582 3.16871 51.6442 3.04111 51.6227L0.961858 51.2724ZM9.97504 0.894958C10.5275 1.9964 11.049 3.07564 11.5395 4.13367L11.1144 4.33073C10.6261 3.27738 10.1067 2.20248 9.55621 1.10504L9.97504 0.894958ZM14.3002 10.7531C15.1791 13.1577 15.8661 15.446 16.3591 17.6328L15.902 17.7358C15.4141 15.5715 14.7332 13.3027 13.8601 10.9139L14.3002 10.7531ZM17.2865 24.7628C17.3456 27.274 17.087 29.6481 16.5069 31.9152L16.0529 31.799C16.6217 29.5765 16.8762 27.2454 16.8181 24.7739L17.2865 24.7628ZM13.7213 38.5535C12.55 40.5167 11.0904 42.4085 9.3419 44.2554L9.00163 43.9333C10.7298 42.1078 12.1676 40.2432 13.3189 38.3134L13.7213 38.5535ZM4.01473 49.0764C3.10267 49.7978 2.14333 50.5158 1.13662 51.2322L0.864936 50.8505C1.86574 50.1383 2.81871 49.425 3.72406 48.7089L4.01473 49.0764Z" fill="#7E7B77"/>
</svg>
