<svg width="51" height="132" viewBox="0 0 51 132" fill="none" xmlns="http://www.w3.org/2000/svg">
<path d="M0.944477 130.654C0.838405 130.623 0.777392 130.512 0.808203 130.406L1.31028 128.678C1.34109 128.571 1.45206 128.51 1.55813 128.541C1.6642 128.572 1.72522 128.683 1.69441 128.789L1.24811 130.326L2.78461 130.772C2.89068 130.803 2.95169 130.914 2.92089 131.02C2.89007 131.126 2.77911 131.187 2.67304 131.156L0.944477 130.654ZM23.8431 0.890487C25.0619 2.75292 26.239 4.59044 27.3744 6.40369L27.0354 6.61597C25.9014 4.80509 24.7258 2.96982 23.5084 1.10951L23.8431 0.890487ZM34.0519 17.6488C36.2853 21.6429 38.2917 25.5129 40.0702 29.2672L39.7087 29.4384C37.9344 25.6932 35.9323 21.8312 33.7028 17.844L34.0519 17.6488ZM45.1463 41.3424C46.7208 45.6829 47.9457 49.8608 48.8192 53.8919L48.4283 53.9766C47.559 49.9652 46.3395 45.8046 44.7703 41.4788L45.1463 41.3424ZM50.4293 66.8763C50.5343 71.3986 50.1182 75.7296 49.1783 79.8969L48.7881 79.8089C49.7204 75.6753 50.1337 71.3772 50.0294 66.8856L50.4293 66.8763ZM44.6618 92.1738C42.7155 95.9109 40.2776 99.5192 37.3472 103.025L37.0403 102.768C39.954 99.2826 42.3753 95.6982 44.3071 91.9891L44.6618 92.1738ZM28.146 112.338C25.0338 115.055 21.595 117.72 17.829 120.346L17.6002 120.018C21.3559 117.399 24.783 114.743 27.8829 112.037L28.146 112.338ZM6.79044 127.399C4.95096 128.482 3.05304 129.561 1.09662 130.637L0.903903 130.287C2.85706 129.213 4.75153 128.135 6.5874 127.054L6.79044 127.399ZM0.88869 130.846C0.676544 130.784 0.55452 130.562 0.616139 130.35L1.6203 126.893C1.68192 126.681 1.90385 126.559 2.116 126.621C2.32814 126.682 2.45017 126.904 2.38855 127.116L1.49596 130.189L4.56895 131.082C4.7811 131.144 4.90313 131.365 4.8415 131.578C4.77989 131.79 4.55795 131.912 4.34581 131.85L0.88869 130.846ZM24.0105 0.780975C25.2299 2.64447 26.4077 4.48311 27.5439 6.29754L26.8659 6.72212C25.7327 4.91242 24.5577 3.07828 23.3411 1.21903L24.0105 0.780975ZM34.2265 17.5512C36.4618 21.5487 38.4703 25.4228 40.2509 29.1815L39.528 29.524C37.7558 25.7833 35.7558 21.9253 33.5282 17.9416L34.2265 17.5512ZM45.3343 41.2742C46.9115 45.6221 48.139 49.8086 49.0146 53.8495L48.2328 54.0189C47.3657 50.0174 46.1488 45.8654 44.5823 41.547L45.3343 41.2742ZM50.6292 66.8716C50.7346 71.4094 50.3171 75.7567 49.3734 79.9409L48.593 79.7649C49.5215 75.6482 49.9334 71.3664 49.8294 66.8902L50.6292 66.8716ZM44.8392 92.2662C42.8856 96.0173 40.4394 99.6375 37.5007 103.153L36.8869 102.64C39.7922 99.1643 42.2052 95.5918 44.1297 91.8967L44.8392 92.2662ZM28.2775 112.489C25.1592 115.211 21.7146 117.88 17.9434 120.51L17.4858 119.854C21.2363 117.239 24.6576 114.587 27.7513 111.886L28.2775 112.489ZM6.89196 127.571C5.05068 128.656 3.15103 129.736 1.19299 130.812L0.807543 130.111C2.75906 129.038 4.65181 127.962 6.48588 126.882L6.89196 127.571Z" fill="#7E7B77"/>
</svg>
