<svg width="112" height="84" viewBox="0 0 112 84" fill="none" xmlns="http://www.w3.org/2000/svg">
<path d="M111.278 79.6185C111.335 79.5236 111.304 79.4008 111.209 79.3443L109.663 78.4221C109.568 78.3655 109.446 78.3965 109.389 78.4914C109.332 78.5863 109.363 78.709 109.458 78.7656L110.832 79.5853L110.013 80.9594C109.956 81.0543 109.987 81.177 110.082 81.2336C110.177 81.2902 110.3 81.2592 110.356 81.1643L111.278 79.6185ZM0.407462 1.0976C1.43873 2.94214 2.45941 4.75232 3.4702 6.52844L3.81784 6.33059C2.80758 4.55541 1.7874 2.74612 0.7566 0.9024L0.407462 1.0976ZM9.7244 17.2878C11.9286 20.9925 14.0898 24.5256 16.2161 27.8909L16.5543 27.6772C14.4301 24.3153 12.2708 20.7853 10.0682 17.0833L9.7244 17.2878ZM23.0415 38.2809C25.5003 41.8662 27.9224 45.2184 30.3219 48.3434L30.6391 48.0998C28.2446 44.9812 25.8267 41.6349 23.3714 38.0547L23.0415 38.2809ZM38.2619 57.9346C41.1989 61.1957 44.1256 64.1179 47.0687 66.7129L47.3332 66.4128C44.4031 63.8294 41.4873 60.9182 38.5591 57.6669L38.2619 57.9346ZM57.017 74.1912C60.6601 76.4629 64.3708 78.2747 68.1962 79.647L68.3313 79.2705C64.5341 77.9083 60.8491 76.1093 57.2287 73.8518L57.017 74.1912ZM80.3058 82.4962C84.2862 82.9783 88.4175 83.0674 92.7425 82.7833L92.7163 82.3842C88.4134 82.6668 84.3071 82.5779 80.3538 82.0991L80.3058 82.4962ZM105.068 81.095C107.055 80.6959 109.083 80.2337 111.156 79.7099L111.058 79.3221C108.991 79.8444 106.969 80.3051 104.99 80.7028L105.068 81.095ZM111.45 79.7209C111.563 79.5312 111.501 79.2857 111.312 79.1725L108.22 77.3282C108.03 77.215 107.785 77.2771 107.671 77.4668C107.558 77.6565 107.62 77.9021 107.81 78.0152L110.558 79.6546L108.919 82.4028C108.806 82.5925 108.868 82.8381 109.057 82.9512C109.247 83.0644 109.493 83.0024 109.606 82.8126L111.45 79.7209ZM0.232894 1.1952C1.26439 3.04016 2.28532 4.85077 3.29638 6.62736L3.99167 6.23167C2.98167 4.45695 1.96174 2.6481 0.931169 0.8048L0.232894 1.1952ZM9.55252 17.3901C11.7576 21.0961 13.9196 24.6308 16.047 27.9977L16.7233 27.5704C14.6002 24.2102 12.4419 20.6817 10.24 16.981L9.55252 17.3901ZM22.8766 38.394C25.3371 41.9819 27.7613 45.337 30.1632 48.4652L30.7978 47.978C28.4057 44.8626 25.9899 41.5193 23.5364 37.9415L22.8766 38.394ZM38.1132 58.0684C41.0547 61.3344 43.9868 64.2622 46.9364 66.8629L47.4655 66.2628C44.5419 63.6851 41.6315 60.7794 38.7077 57.533L38.1132 58.0684ZM56.9112 74.3609C60.5657 76.6397 64.2891 78.4578 68.1287 79.8353L68.3988 79.0823C64.6158 77.7251 60.9435 75.9325 57.3345 73.682L56.9112 74.3609ZM80.2817 82.6948C84.2757 83.1785 88.4195 83.2677 92.7556 82.9829L92.7032 82.1846C88.4114 82.4665 84.3176 82.3777 80.3779 81.9006L80.2817 82.6948ZM105.108 81.2911C107.098 80.8913 109.129 80.4284 111.205 79.9038L111.009 79.1282C108.945 79.6498 106.926 80.1097 104.95 80.5067L105.108 81.2911Z" fill="#7E7B77"/>
</svg>
