<svg width="75" height="118" viewBox="0 0 75 118" fill="none" xmlns="http://www.w3.org/2000/svg">
<path d="M61.7836 117.581C61.6807 117.621 61.5648 117.57 61.5248 117.467L60.8724 115.79C60.8324 115.687 60.8834 115.571 60.9863 115.531C61.0893 115.491 61.2052 115.542 61.2452 115.645L61.8251 117.136L63.3163 116.556C63.4192 116.516 63.5352 116.567 63.5752 116.67C63.6152 116.773 63.5642 116.889 63.4613 116.929L61.7836 117.581ZM1.06628 0.635521C3.16625 1.37316 5.21802 2.11633 7.22193 2.86558L7.08184 3.24025C5.08055 2.49198 3.0313 1.74971 0.933718 1.01292L1.06628 0.635521ZM19.3605 7.73341C23.5622 9.54652 27.508 11.3992 31.2027 13.2984L31.0198 13.6542C27.334 11.7595 23.3964 9.91064 19.202 8.10067L19.3605 7.73341ZM42.5746 19.799C46.4638 22.2877 49.9764 24.86 53.1208 27.5293L52.862 27.8342C49.7329 25.178 46.235 22.6162 42.359 20.136L42.5746 19.799ZM62.2938 36.8591C65.1268 40.3856 67.4297 44.0771 69.2173 47.9571L68.854 48.1245C67.0808 44.2759 64.7957 40.6121 61.9819 37.1096L62.2938 36.8591ZM73.0959 60.4502C73.8229 64.6006 74.0812 68.9476 73.886 73.5123L73.4863 73.4952C73.6805 68.9565 73.4235 64.6385 72.7019 60.5192L73.0959 60.4502ZM72.2436 86.5011C71.4248 90.5505 70.3148 94.757 68.9217 99.1319L68.5405 99.0105C69.9298 94.6476 71.0359 90.4552 71.8515 86.4218L72.2436 86.5011ZM64.4456 111.442C63.6441 113.421 62.7934 115.432 61.8942 117.475L61.5281 117.314C62.4258 115.274 63.2749 113.267 64.0749 111.292L64.4456 111.442ZM61.8561 117.768C61.6502 117.848 61.4184 117.746 61.3384 117.54L60.0336 114.185C59.9536 113.979 60.0556 113.747 60.2615 113.667C60.4674 113.587 60.6992 113.689 60.7792 113.895L61.939 116.877L64.9214 115.717C65.1273 115.637 65.3591 115.739 65.4392 115.945C65.5193 116.151 65.4173 116.383 65.2114 116.463L61.8561 117.768ZM1.13256 0.446824C3.23373 1.18488 5.28675 1.92851 7.29197 2.67825L7.0118 3.42758C5.01181 2.6798 2.96382 1.93799 0.867436 1.20161L1.13256 0.446824ZM19.4398 7.54978C23.6451 9.36447 27.5951 11.219 31.2941 13.1206L30.9284 13.8321C27.247 11.9397 23.3135 10.0927 19.1228 8.28431L19.4398 7.54978ZM42.6824 19.6306C46.5782 22.1235 50.0982 24.701 53.2502 27.3768L52.7325 27.9867C49.6111 25.3369 46.1206 22.7805 42.2512 20.3044L42.6824 19.6306ZM62.4497 36.7338C65.2924 40.2724 67.6041 43.9777 69.3989 47.8734L68.6723 48.2082C66.9064 44.3753 64.6301 40.7254 61.826 37.2348L62.4497 36.7338ZM73.2929 60.4157C74.0226 64.5816 74.2816 68.9432 74.0858 73.5208L73.2865 73.4866C73.4801 68.9609 73.2237 64.6575 72.5049 60.5537L73.2929 60.4157ZM72.4396 86.5407C71.6192 90.5981 70.5073 94.8116 69.1123 99.1926L68.35 98.9498C69.7374 94.5929 70.8415 90.4076 71.6555 86.3822L72.4396 86.5407ZM64.631 111.517C63.8287 113.498 62.9773 115.511 62.0773 117.556L61.345 117.234C62.242 115.195 63.0903 113.19 63.8895 111.217L64.631 111.517Z" fill="#7E7B77"/>
</svg>
