<svg width="87" height="80" viewBox="0 0 87 80" fill="none" xmlns="http://www.w3.org/2000/svg">
<path d="M3.2706 79.2917C3.35916 79.3577 3.48447 79.3394 3.55047 79.2509L4.62607 77.8076C4.69207 77.719 4.67378 77.5937 4.58521 77.5277C4.49665 77.4617 4.37134 77.48 4.30534 77.5685L3.34925 78.8515L2.06632 77.8954C1.97776 77.8294 1.85245 77.8477 1.78645 77.9362C1.72044 78.0248 1.73874 78.1501 1.8273 78.2161L3.2706 79.2917ZM86.604 0.956751C84.1736 0.784356 81.8011 0.643371 79.4858 0.534353L79.467 0.93391C81.779 1.04277 84.1483 1.18356 86.5757 1.35575L86.604 0.956751ZM65.2309 0.281628C60.1704 0.360171 55.4409 0.636779 51.0319 1.11969L51.0755 1.51732C55.4703 1.03595 60.1871 0.759961 65.2371 0.68158L65.2309 0.281628ZM37.0093 3.63429C32.0357 4.94557 27.6221 6.651 23.7432 8.77168L23.9351 9.12265C27.7812 7.01992 32.1637 5.32549 37.1113 4.02107L37.0093 3.63429ZM12.5921 17.5971C9.52721 21.1007 7.11835 25.1653 5.32501 29.8176L5.69824 29.9615C7.47615 25.3492 9.86166 21.3259 12.8931 17.8605L12.5921 17.5971ZM1.97066 43.6538C1.41104 48.0367 1.19137 52.7791 1.29315 57.8934L1.69307 57.8855C1.59161 52.7872 1.81072 48.0647 2.36743 43.7044L1.97066 43.6538ZM2.27452 72.0761C2.53224 74.3762 2.83852 76.7373 3.19221 79.1602L3.58801 79.1025C3.23492 76.6836 2.92922 74.3269 2.67203 72.0315L2.27452 72.0761ZM3.15109 79.4521C3.32822 79.5841 3.57883 79.5475 3.71084 79.3704L5.86203 76.4838C5.99404 76.3066 5.95745 76.056 5.78032 75.924C5.60318 75.792 5.35257 75.8286 5.22056 76.0057L3.30839 78.5716L0.742544 76.6594C0.565406 76.5274 0.314798 76.564 0.182787 76.7411C0.0507816 76.9183 0.0873626 77.1689 0.2645 77.3009L3.15109 79.4521ZM86.6181 0.757253C84.1863 0.584752 81.8122 0.443671 79.4952 0.334574L79.4576 1.13369C81.7679 1.24247 84.1356 1.38317 86.5615 1.55525L86.6181 0.757253ZM65.2278 0.0816518C60.162 0.160279 55.4262 0.437192 51.0101 0.920883L51.0972 1.71613C55.485 1.23554 60.1955 0.959855 65.2402 0.881556L65.2278 0.0816518ZM36.9583 3.44089C31.9717 4.75561 27.5426 6.46654 23.6472 8.59619L24.031 9.29814C27.8607 7.20438 32.2277 5.51544 37.1623 4.21446L36.9583 3.44089ZM12.4415 17.4654C9.35998 20.9881 6.93945 25.0733 5.13839 29.7457L5.88485 30.0334C7.65504 25.4412 10.0289 21.4385 13.0437 17.9922L12.4415 17.4654ZM1.77227 43.6284C1.21121 48.0227 0.991248 52.7751 1.09319 57.8974L1.89303 57.8815C1.79173 52.7913 2.01055 48.0787 2.56583 43.7297L1.77227 43.6284ZM2.07576 72.0983C2.33375 74.4008 2.64031 76.7641 2.9943 79.1891L3.78591 79.0736C3.43311 76.6568 3.12771 74.3023 2.87079 72.0093L2.07576 72.0983Z" fill="#7E7B77"/>
</svg>
