<svg width="70" height="70" viewBox="0 0 70 70" fill="none" xmlns="http://www.w3.org/2000/svg">
<circle cx="35" cy="35" r="35" fill="#FFF3F4"/>
<g clip-path="url(#clip0_1569_16310)">
<path d="M46.451 38.8516L50.101 42.6516L34.051 50.7016C34.051 50.7016 31.951 51.7516 30.951 50.1016C26.951 43.6016 46.451 38.8516 46.451 38.8516Z" fill="#256382"/>
<path d="M33.6015 45.9484C33.6015 45.9484 30.5515 47.0984 31.1015 49.2484C31.7015 51.4984 34.1515 50.1484 34.1515 50.1484L49.4015 42.6484C49.4015 42.6484 48.5515 40.2484 50.1015 38.6484L33.6015 45.9484Z" fill="#D9E3E8"/>
<path d="M36.2 23.4492L50.8 38.4992L33.55 45.6492L22.5 27.3492L36.2 23.4492Z" fill="#42ADE2"/>
<path d="M49.3492 40.3016L39.1492 44.7016L49.1492 39.8516L49.3492 40.3016ZM49.1992 41.6016L38.3492 46.3516L48.9992 41.1516L49.1992 41.6016ZM49.2992 42.3516L35.4492 48.7016L49.0992 41.9016L49.2992 42.3516Z" fill="#94989B"/>
<path d="M30.9 50.0516C29.2 46.3016 33.55 45.6516 33.55 45.6516L22.5 27.3516C22.5 27.3516 20 27.3016 20 30.0516C20 31.2016 20.5 32.0516 20.5 32.0516L30.9 50.0516Z" fill="#428BC1"/>
<path d="M23.3492 35.1016L19.6992 38.9016L35.7492 46.9516C35.7492 46.9516 37.8492 48.0016 38.8492 46.3516C42.8492 39.8516 23.3492 35.1016 23.3492 35.1016Z" fill="#547725"/>
<path d="M36.1492 42.1984C36.1492 42.1984 39.1992 43.3484 38.6492 45.4984C38.0492 47.7484 35.6492 46.3984 35.6492 46.3984L20.3992 38.8984C20.3992 38.8984 21.2492 36.4984 19.6992 34.8984L36.1492 42.1984Z" fill="#D9E3E8"/>
<path d="M33.6 19.6992L19 34.7492L36.25 41.8992L47.3 23.5992L33.6 19.6992Z" fill="#83BF4F"/>
<path d="M20.5984 36.1016L30.5984 40.9516L20.3984 36.5516L20.5984 36.1016ZM20.7984 37.4016L31.3984 42.6016L20.5484 37.8516L20.7984 37.4016ZM20.6984 38.1516L34.2984 44.9516L20.4484 38.6016L20.6984 38.1516Z" fill="#94989B"/>
<path d="M38.9 46.3016C40.6 42.5516 36.25 41.9016 36.25 41.9016L47.3 23.6016C47.3 23.6016 49.8 23.5516 49.8 26.3016C49.8 27.4516 49.3 28.3016 49.3 28.3016L38.9 46.3016Z" fill="#699635"/>
<path d="M47.3493 32L50.3993 35.2L36.8493 41.95C36.8493 41.95 35.0493 42.8 34.1993 41.45C30.8993 36 47.3493 32 47.3493 32Z" fill="#962C2C"/>
<path d="M36.4998 38.0016C36.4998 38.0016 33.8998 38.9516 34.3998 40.8016C34.8998 42.7016 36.9498 41.5516 36.9498 41.5516L49.7998 35.2016C49.7998 35.2016 49.0998 33.2016 50.3998 31.8516L36.4998 38.0016Z" fill="#D9E3E8"/>
<path d="M38.7016 19L51.0016 31.7L36.4516 37.75L27.1016 22.3L38.7016 19Z" fill="#ED4C5C"/>
<path d="M39.05 21.8984L41.45 24.5484L32.6 27.8984L30.5 24.4984L39.05 21.8984Z" fill="white"/>
<path d="M49.8016 33.2508L41.2016 36.9008L49.6016 32.8008L49.8016 33.2508ZM49.7016 34.3508L40.5016 38.3008L49.5016 33.9008L49.7016 34.3508ZM49.8016 34.9508L38.1016 40.3008L49.5516 34.5008L49.8016 34.9508Z" fill="#94989B"/>
<path d="M34.2492 41.4509C32.8492 38.3009 36.4992 37.7509 36.4992 37.7509L27.0992 22.3009C27.0992 22.3009 24.9492 22.2509 24.9492 24.5509C24.9492 25.5009 25.3492 26.2509 25.3492 26.2509L34.2492 41.4509Z" fill="#C94747"/>
</g>
<defs>
<clipPath id="clip0_1569_16310">
<rect width="32" height="32" fill="white" transform="translate(19 19)"/>
</clipPath>
</defs>
</svg>
