<svg width="59" height="41" viewBox="0 0 59 41" fill="none" xmlns="http://www.w3.org/2000/svg">
<path d="M23.6445 38.1641C22.9336 38.1641 22.3184 37.9954 21.7988 37.6582C21.2839 37.3164 20.8851 36.8493 20.6025 36.2568C20.3245 35.6644 20.1855 34.9876 20.1855 34.2266C20.1855 33.4473 20.3291 32.7614 20.6162 32.1689C20.9033 31.5719 21.3044 31.1048 21.8193 30.7676C22.3389 30.4303 22.9427 30.2617 23.6309 30.2617C24.1686 30.2617 24.6517 30.362 25.0801 30.5625C25.513 30.7585 25.8662 31.0365 26.1396 31.3965C26.4176 31.7565 26.5885 32.1758 26.6523 32.6543H25.4766C25.4173 32.4219 25.3102 32.2031 25.1553 31.998C25.0003 31.793 24.7952 31.6289 24.54 31.5059C24.2894 31.3783 23.9909 31.3145 23.6445 31.3145C23.1888 31.3145 22.79 31.4329 22.4482 31.6699C22.1064 31.9069 21.8398 32.2419 21.6484 32.6748C21.457 33.1032 21.3613 33.6068 21.3613 34.1855C21.3613 34.7734 21.4548 35.2884 21.6416 35.7305C21.8285 36.168 22.0928 36.5075 22.4346 36.749C22.7809 36.9906 23.1842 37.1113 23.6445 37.1113C24.1048 37.1113 24.499 36.9928 24.8271 36.7559C25.1553 36.5143 25.3717 36.1862 25.4766 35.7715H26.6523C26.5885 36.2227 26.4245 36.6283 26.1602 36.9883C25.9004 37.3483 25.5563 37.6354 25.1279 37.8496C24.7041 38.0592 24.2096 38.1641 23.6445 38.1641ZM31.0137 38V37.1113L34.377 33.4199C34.7689 32.9915 35.0902 32.6178 35.3408 32.2988C35.596 31.9798 35.7852 31.679 35.9082 31.3965C36.0358 31.1139 36.0996 30.8177 36.0996 30.5078C36.0996 30.1478 36.013 29.8379 35.8398 29.5781C35.6712 29.3138 35.4411 29.111 35.1494 28.9697C34.8577 28.8285 34.5273 28.7578 34.1582 28.7578C33.7663 28.7578 33.4245 28.8376 33.1328 28.9971C32.8457 29.1566 32.6224 29.3822 32.4629 29.6738C32.3079 29.9609 32.2305 30.2982 32.2305 30.6855H31.0547C31.0547 30.0885 31.1914 29.5645 31.4648 29.1133C31.7428 28.6621 32.1188 28.3112 32.5928 28.0605C33.0713 27.8053 33.6068 27.6777 34.1992 27.6777C34.7962 27.6777 35.3249 27.8053 35.7852 28.0605C36.2454 28.3112 36.6055 28.6507 36.8652 29.0791C37.1296 29.5029 37.2617 29.9792 37.2617 30.5078C37.2617 30.8815 37.1934 31.2461 37.0566 31.6016C36.9245 31.9525 36.6921 32.3467 36.3594 32.7842C36.0312 33.2217 35.5755 33.7526 34.9922 34.377L32.709 36.8242V36.9062H37.4395V38H31.0137ZM42.1562 38.1367C41.4089 38.1367 40.7708 37.9316 40.2422 37.5215C39.7135 37.1113 39.3102 36.5189 39.0322 35.7441C38.7542 34.9648 38.6152 34.0215 38.6152 32.9141C38.6152 31.8112 38.7542 30.8701 39.0322 30.0908C39.3148 29.307 39.7204 28.71 40.249 28.2998C40.7777 27.8851 41.4134 27.6777 42.1562 27.6777C42.8991 27.6777 43.5348 27.8851 44.0635 28.2998C44.5921 28.71 44.9954 29.307 45.2734 30.0908C45.556 30.8701 45.6973 31.8112 45.6973 32.9141C45.6973 34.0215 45.5583 34.9648 45.2803 35.7441C45.0023 36.5189 44.599 37.1113 44.0703 37.5215C43.5462 37.9316 42.9082 38.1367 42.1562 38.1367ZM42.1562 37.0566C42.6621 37.0566 43.0905 36.8949 43.4414 36.5713C43.7923 36.2432 44.0589 35.7692 44.2412 35.1494C44.4281 34.5296 44.5215 33.7845 44.5215 32.9141C44.5215 32.0391 44.4281 31.2917 44.2412 30.6719C44.0589 30.0521 43.7923 29.5781 43.4414 29.25C43.0905 28.9219 42.6621 28.7578 42.1562 28.7578C41.3997 28.7578 40.8164 29.1224 40.4062 29.8516C39.9961 30.5807 39.791 31.6016 39.791 32.9141C39.791 33.7845 39.8822 34.5296 40.0645 35.1494C40.2513 35.7692 40.5202 36.2432 40.8711 36.5713C41.2266 36.8949 41.6549 37.0566 42.1562 37.0566ZM50.2773 27.8145V38H49.0742V29.1133H49.0059L46.5312 30.7676V29.5098L49.0742 27.8145H50.2773ZM51.9043 38V37.1113L55.2676 33.4199C55.6595 32.9915 55.9808 32.6178 56.2314 32.2988C56.4867 31.9798 56.6758 31.679 56.7988 31.3965C56.9264 31.1139 56.9902 30.8177 56.9902 30.5078C56.9902 30.1478 56.9036 29.8379 56.7305 29.5781C56.5618 29.3138 56.3317 29.111 56.04 28.9697C55.7484 28.8285 55.418 28.7578 55.0488 28.7578C54.6569 28.7578 54.3151 28.8376 54.0234 28.9971C53.7363 29.1566 53.513 29.3822 53.3535 29.6738C53.1986 29.9609 53.1211 30.2982 53.1211 30.6855H51.9453C51.9453 30.0885 52.082 29.5645 52.3555 29.1133C52.6335 28.6621 53.0094 28.3112 53.4834 28.0605C53.9619 27.8053 54.4974 27.6777 55.0898 27.6777C55.6868 27.6777 56.2155 27.8053 56.6758 28.0605C57.1361 28.3112 57.4961 28.6507 57.7559 29.0791C58.0202 29.5029 58.1523 29.9792 58.1523 30.5078C58.1523 30.8815 58.084 31.2461 57.9473 31.6016C57.8151 31.9525 57.5827 32.3467 57.25 32.7842C56.9219 33.2217 56.4661 33.7526 55.8828 34.377L53.5996 36.8242V36.9062H58.3301V38H51.9043Z" fill="black"/>
<rect x="2" width="57" height="2" fill="black"/>
<rect x="23" y="9" width="36" height="2" fill="black"/>
<rect x="2" y="18" width="57" height="2" fill="black"/>
</svg>
