<svg width="59" height="34" viewBox="0 0 59 34" fill="none" xmlns="http://www.w3.org/2000/svg">
<path d="M5.01514 32.1289C4.47803 32.1289 4.01074 31.9946 3.61328 31.7261C3.21582 31.4575 2.90788 31.0905 2.68945 30.625C2.47103 30.1559 2.36182 29.6242 2.36182 29.0298C2.36182 28.4246 2.47282 27.8893 2.69482 27.4238C2.91683 26.9548 3.22656 26.5859 3.62402 26.3174C4.02148 26.0488 4.48161 25.9146 5.00439 25.9146C5.40544 25.9146 5.76888 25.9933 6.09473 26.1509C6.42057 26.3049 6.68913 26.5233 6.90039 26.8062C7.11523 27.0854 7.24951 27.4113 7.30322 27.7837H6.60498C6.55485 27.5581 6.45817 27.3522 6.31494 27.166C6.17529 26.9798 5.99447 26.8312 5.77246 26.7202C5.55404 26.6056 5.3016 26.5483 5.01514 26.5483C4.632 26.5483 4.29362 26.6522 4 26.8599C3.70638 27.0675 3.47542 27.3558 3.30713 27.7246C3.14242 28.0934 3.06006 28.5213 3.06006 29.0083C3.06006 29.4917 3.14062 29.9214 3.30176 30.2974C3.46289 30.6733 3.69027 30.967 3.98389 31.1782C4.28109 31.3895 4.62484 31.4951 5.01514 31.4951C5.4126 31.4951 5.75635 31.3823 6.04639 31.1567C6.33643 30.9312 6.52262 30.6286 6.60498 30.249H7.30322C7.25309 30.6107 7.12419 30.9329 6.9165 31.2158C6.7124 31.4987 6.44743 31.7225 6.12158 31.8872C5.79932 32.0483 5.4305 32.1289 5.01514 32.1289ZM11.1865 32V31.4683L13.8022 28.5249C14.1388 28.1418 14.411 27.8141 14.6187 27.542C14.8263 27.2663 14.9785 27.0138 15.0752 26.7847C15.1719 26.5519 15.2202 26.3102 15.2202 26.0596C15.2202 25.7552 15.1486 25.4884 15.0054 25.2593C14.8621 25.0301 14.667 24.8529 14.4199 24.7275C14.1764 24.6022 13.8989 24.5396 13.5874 24.5396C13.258 24.5396 12.9697 24.6094 12.7227 24.749C12.4792 24.8887 12.2894 25.082 12.1533 25.3291C12.0208 25.5726 11.9546 25.8519 11.9546 26.167H11.2563C11.2563 25.7266 11.3584 25.3345 11.5625 24.9907C11.7666 24.647 12.0459 24.3784 12.4004 24.1851C12.7549 23.9881 13.1577 23.8896 13.6089 23.8896C14.0565 23.8896 14.4521 23.9863 14.7959 24.1797C15.1432 24.3695 15.4154 24.6291 15.6123 24.9585C15.8092 25.2843 15.9077 25.6514 15.9077 26.0596C15.9077 26.3532 15.8558 26.6379 15.752 26.9136C15.6517 27.1857 15.4762 27.4919 15.2256 27.832C14.9749 28.1722 14.6294 28.5858 14.189 29.0728L12.2017 31.291V31.3447H16.1602V32H11.1865ZM20.0542 32.1074C19.492 32.1074 19.0104 31.9445 18.6094 31.6187C18.2119 31.2928 17.9076 30.8255 17.6963 30.2168C17.485 29.6045 17.3794 28.8669 17.3794 28.0039C17.3794 27.141 17.485 26.4033 17.6963 25.791C17.9076 25.1751 18.2137 24.7043 18.6147 24.3784C19.0158 24.0526 19.4956 23.8896 20.0542 23.8896C20.6128 23.8896 21.0908 24.0526 21.4883 24.3784C21.8857 24.7043 22.1901 25.1751 22.4014 25.791C22.6162 26.4033 22.7236 27.141 22.7236 28.0039C22.7236 28.8669 22.618 29.6045 22.4067 30.2168C22.1955 30.8255 21.8911 31.2928 21.4937 31.6187C21.0962 31.9445 20.6164 32.1074 20.0542 32.1074ZM20.0542 31.4575C20.4696 31.4575 20.8241 31.3215 21.1177 31.0493C21.4113 30.7736 21.6351 30.3779 21.7891 29.8623C21.9466 29.3467 22.0254 28.7272 22.0254 28.0039C22.0254 27.277 21.9466 26.6558 21.7891 26.1401C21.6351 25.6209 21.4113 25.2253 21.1177 24.9531C20.8241 24.6774 20.4696 24.5396 20.0542 24.5396C19.4276 24.5396 18.9406 24.8457 18.5933 25.458C18.2495 26.0667 18.0776 26.9154 18.0776 28.0039C18.0776 28.7272 18.1546 29.3467 18.3086 29.8623C18.4661 30.3779 18.6917 30.7736 18.9854 31.0493C19.2826 31.3215 19.6388 31.4575 20.0542 31.4575ZM26.3276 23.9971V32H25.6133V24.7651H25.5649L23.6958 26.0112V25.2593L25.5811 23.9971H26.3276ZM27.9336 32V31.4683L30.5493 28.5249C30.8859 28.1418 31.158 27.8141 31.3657 27.542C31.5734 27.2663 31.7256 27.0138 31.8223 26.7847C31.9189 26.5519 31.9673 26.3102 31.9673 26.0596C31.9673 25.7552 31.8957 25.4884 31.7524 25.2593C31.6092 25.0301 31.4141 24.8529 31.167 24.7275C30.9235 24.6022 30.646 24.5396 30.3345 24.5396C30.005 24.5396 29.7168 24.6094 29.4697 24.749C29.2262 24.8887 29.0365 25.082 28.9004 25.3291C28.7679 25.5726 28.7017 25.8519 28.7017 26.167H28.0034C28.0034 25.7266 28.1055 25.3345 28.3096 24.9907C28.5137 24.647 28.793 24.3784 29.1475 24.1851C29.502 23.9881 29.9048 23.8896 30.356 23.8896C30.8035 23.8896 31.1992 23.9863 31.543 24.1797C31.8903 24.3695 32.1624 24.6291 32.3594 24.9585C32.5563 25.2843 32.6548 25.6514 32.6548 26.0596C32.6548 26.3532 32.6029 26.6379 32.499 26.9136C32.3988 27.1857 32.2233 27.4919 31.9727 27.832C31.722 28.1722 31.3765 28.5858 30.936 29.0728L28.9487 31.291V31.3447H32.9072V32H27.9336ZM40.6577 25.9951V26.6558H37.7842V32H37.0913V25.9951H40.6577ZM43.8052 32.1289C43.286 32.1289 42.8276 31.9982 42.4302 31.7368C42.0327 31.4718 41.7212 31.1066 41.4956 30.6411C41.2736 30.172 41.1626 29.6349 41.1626 29.0298C41.1626 28.4139 41.2736 27.8732 41.4956 27.4077C41.7212 26.9386 42.0327 26.5734 42.4302 26.312C42.8276 26.047 43.286 25.9146 43.8052 25.9146C44.3244 25.9146 44.7809 26.047 45.1748 26.312C45.5723 26.5734 45.8838 26.9386 46.1094 27.4077C46.335 27.8732 46.4478 28.4139 46.4478 29.0298C46.4478 29.6349 46.335 30.172 46.1094 30.6411C45.8874 31.1066 45.5776 31.4718 45.1802 31.7368C44.7827 31.9982 44.3244 32.1289 43.8052 32.1289ZM43.8052 31.4951C44.2241 31.4951 44.5768 31.3841 44.8633 31.1621C45.1533 30.9365 45.3735 30.6357 45.5239 30.2598C45.6743 29.8838 45.7495 29.4738 45.7495 29.0298C45.7495 28.5786 45.6743 28.165 45.5239 27.7891C45.3735 27.4131 45.1533 27.1123 44.8633 26.8867C44.5732 26.6611 44.2205 26.5483 43.8052 26.5483C43.3898 26.5483 43.0371 26.6629 42.7471 26.8921C42.4606 27.1177 42.2404 27.4185 42.0864 27.7944C41.936 28.1668 41.8608 28.5786 41.8608 29.0298C41.8608 29.4738 41.936 29.8838 42.0864 30.2598C42.2368 30.6357 42.457 30.9365 42.7471 31.1621C43.0371 31.3841 43.3898 31.4951 43.8052 31.4951ZM46.9204 33.708V31.3447H47.436C47.5649 31.1979 47.6777 31.0404 47.7744 30.8721C47.8711 30.7038 47.9552 30.5104 48.0269 30.292C48.0985 30.0736 48.1593 29.8193 48.2095 29.5293C48.2596 29.2393 48.3026 28.9009 48.3384 28.5142L48.5532 25.9951H52.1089V31.3447H53.0005V33.708H52.3022V32H47.6187V33.708H46.9204ZM48.2417 31.3447H51.4106V26.6558H49.2031L49.0205 28.5142C48.9596 29.1444 48.8719 29.694 48.7573 30.1631C48.6427 30.6322 48.4709 31.026 48.2417 31.3447ZM55.6538 32.1343C55.2922 32.1343 54.9609 32.0645 54.6602 31.9248C54.3594 31.7816 54.1195 31.5757 53.9404 31.3071C53.765 31.035 53.6772 30.7056 53.6772 30.3188C53.6772 30.0216 53.7327 29.7728 53.8438 29.5723C53.9548 29.3717 54.1141 29.207 54.3218 29.0781C54.5295 28.9456 54.7729 28.8418 55.0522 28.7666C55.3351 28.6878 55.6466 28.6287 55.9868 28.5894C56.3234 28.5464 56.6081 28.5106 56.8408 28.4819C57.0736 28.4497 57.2508 28.3996 57.3726 28.3315C57.4943 28.2635 57.5552 28.1543 57.5552 28.0039V27.8643C57.5552 27.4525 57.4334 27.1302 57.1899 26.8975C56.9465 26.6611 56.5973 26.543 56.1426 26.543C55.7093 26.543 55.3566 26.6379 55.0845 26.8276C54.8123 27.0174 54.6226 27.2412 54.5151 27.499L53.8491 27.2573C53.9852 26.9315 54.1732 26.6701 54.4131 26.4731C54.653 26.2762 54.9215 26.1348 55.2188 26.0488C55.516 25.9593 55.8167 25.9146 56.1211 25.9146C56.3503 25.9146 56.5884 25.945 56.8354 26.0059C57.0825 26.0667 57.3135 26.1706 57.5283 26.3174C57.7432 26.4642 57.9168 26.6701 58.0493 26.9351C58.1854 27.1965 58.2534 27.5277 58.2534 27.9287V32H57.5552V31.0493H57.5122C57.4334 31.2248 57.3117 31.3966 57.147 31.5649C56.9823 31.7297 56.7764 31.8657 56.5293 31.9731C56.2822 32.0806 55.9904 32.1343 55.6538 32.1343ZM55.7505 31.5005C56.1193 31.5005 56.438 31.4199 56.7065 31.2588C56.9787 31.0941 57.1882 30.8739 57.335 30.5981C57.4818 30.3224 57.5552 30.0216 57.5552 29.6958V28.8311C57.5015 28.8812 57.4137 28.9259 57.292 28.9653C57.1738 29.0047 57.036 29.0387 56.8784 29.0674C56.7244 29.096 56.5669 29.1211 56.4058 29.1426C56.2482 29.1641 56.1086 29.182 55.9868 29.1963C55.6502 29.2393 55.3602 29.3055 55.1167 29.395C54.8768 29.4845 54.6924 29.6063 54.5635 29.7603C54.4382 29.9142 54.3755 30.113 54.3755 30.3564C54.3755 30.7181 54.5044 30.9992 54.7622 31.1997C55.0236 31.4002 55.353 31.5005 55.7505 31.5005Z" fill="black"/>
<rect x="2" width="57" height="1" fill="black"/>
<rect x="23" y="8" width="36" height="1" fill="black"/>
<rect x="2" y="16" width="57" height="1" fill="black"/>
</svg>
