<svg width="59" height="48" viewBox="0 0 59 48" fill="none" xmlns="http://www.w3.org/2000/svg">
<path d="M8.49219 43.2344C7.47656 43.2344 6.59766 42.9935 5.85547 42.5117C5.11979 42.0234 4.55013 41.3561 4.14648 40.5098C3.74935 39.6634 3.55078 38.6966 3.55078 37.6094C3.55078 36.4961 3.75586 35.5163 4.16602 34.6699C4.57617 33.8171 5.14909 33.1497 5.88477 32.668C6.62695 32.1862 7.48958 31.9453 8.47266 31.9453C9.24089 31.9453 9.93099 32.0885 10.543 32.375C11.1615 32.6549 11.666 33.0521 12.0566 33.5664C12.4538 34.0807 12.6979 34.6797 12.7891 35.3633H11.1094C11.0247 35.0312 10.8717 34.7188 10.6504 34.4258C10.429 34.1328 10.1361 33.8984 9.77148 33.7227C9.41341 33.5404 8.98698 33.4492 8.49219 33.4492C7.84115 33.4492 7.27148 33.6185 6.7832 33.957C6.29492 34.2956 5.91406 34.7741 5.64062 35.3926C5.36719 36.0046 5.23047 36.724 5.23047 37.5508C5.23047 38.3906 5.36393 39.1263 5.63086 39.7578C5.89779 40.3828 6.27539 40.8678 6.76367 41.2129C7.25846 41.5579 7.83464 41.7305 8.49219 41.7305C9.14974 41.7305 9.71289 41.5612 10.1816 41.2227C10.6504 40.8776 10.9596 40.4089 11.1094 39.8164H12.7891C12.6979 40.4609 12.4635 41.0404 12.0859 41.5547C11.7148 42.069 11.2233 42.4792 10.6113 42.7852C10.0059 43.0846 9.29948 43.2344 8.49219 43.2344ZM19.0195 43V41.7305L23.8242 36.457C24.3841 35.8451 24.8431 35.3112 25.2012 34.8555C25.5658 34.3997 25.8359 33.9701 26.0117 33.5664C26.194 33.1628 26.2852 32.7396 26.2852 32.2969C26.2852 31.7826 26.1615 31.3398 25.9141 30.9688C25.6732 30.5911 25.3444 30.3014 24.9277 30.0996C24.5111 29.8978 24.0391 29.7969 23.5117 29.7969C22.9518 29.7969 22.4635 29.9108 22.0469 30.1387C21.6367 30.3665 21.3177 30.6888 21.0898 31.1055C20.8685 31.5156 20.7578 31.9974 20.7578 32.5508H19.0781C19.0781 31.6979 19.2734 30.9492 19.6641 30.3047C20.0612 29.6602 20.5983 29.1589 21.2754 28.8008C21.959 28.4362 22.724 28.2539 23.5703 28.2539C24.4232 28.2539 25.1784 28.4362 25.8359 28.8008C26.4935 29.1589 27.0078 29.6439 27.3789 30.2559C27.7565 30.8613 27.9453 31.5417 27.9453 32.2969C27.9453 32.8307 27.8477 33.3516 27.6523 33.8594C27.4635 34.3607 27.1315 34.9238 26.6562 35.5488C26.1875 36.1738 25.5365 36.9323 24.7031 37.8242L21.4414 41.3203V41.4375H28.1992V43H19.0195ZM34.9375 43.1953C33.8698 43.1953 32.9583 42.9023 32.2031 42.3164C31.4479 41.7305 30.8717 40.8841 30.4746 39.7773C30.0775 38.6641 29.8789 37.3164 29.8789 35.7344C29.8789 34.1589 30.0775 32.8145 30.4746 31.7012C30.8783 30.5814 31.4577 29.7285 32.2129 29.1426C32.9681 28.5501 33.8763 28.2539 34.9375 28.2539C35.9987 28.2539 36.9069 28.5501 37.6621 29.1426C38.4173 29.7285 38.9935 30.5814 39.3906 31.7012C39.7943 32.8145 39.9961 34.1589 39.9961 35.7344C39.9961 37.3164 39.7975 38.6641 39.4004 39.7773C39.0033 40.8841 38.4271 41.7305 37.6719 42.3164C36.9232 42.9023 36.0117 43.1953 34.9375 43.1953ZM34.9375 41.6523C35.6602 41.6523 36.2721 41.4212 36.7734 40.959C37.2747 40.4902 37.6556 39.8132 37.916 38.9277C38.1829 38.0423 38.3164 36.9779 38.3164 35.7344C38.3164 34.4844 38.1829 33.4167 37.916 32.5312C37.6556 31.6458 37.2747 30.9688 36.7734 30.5C36.2721 30.0312 35.6602 29.7969 34.9375 29.7969C33.8568 29.7969 33.0234 30.3177 32.4375 31.3594C31.8516 32.401 31.5586 33.8594 31.5586 35.7344C31.5586 36.9779 31.6888 38.0423 31.9492 38.9277C32.2161 39.8132 32.6003 40.4902 33.1016 40.959C33.6094 41.4212 34.2214 41.6523 34.9375 41.6523ZM46.5391 28.4492V43H44.8203V30.3047H44.7227L41.1875 32.668V30.8711L44.8203 28.4492H46.5391ZM48.8633 43V41.7305L53.668 36.457C54.2279 35.8451 54.6868 35.3112 55.0449 34.8555C55.4095 34.3997 55.6797 33.9701 55.8555 33.5664C56.0378 33.1628 56.1289 32.7396 56.1289 32.2969C56.1289 31.7826 56.0052 31.3398 55.7578 30.9688C55.5169 30.5911 55.1882 30.3014 54.7715 30.0996C54.3548 29.8978 53.8828 29.7969 53.3555 29.7969C52.7956 29.7969 52.3073 29.9108 51.8906 30.1387C51.4805 30.3665 51.1615 30.6888 50.9336 31.1055C50.7122 31.5156 50.6016 31.9974 50.6016 32.5508H48.9219C48.9219 31.6979 49.1172 30.9492 49.5078 30.3047C49.9049 29.6602 50.4421 29.1589 51.1191 28.8008C51.8027 28.4362 52.5677 28.2539 53.4141 28.2539C54.2669 28.2539 55.0221 28.4362 55.6797 28.8008C56.3372 29.1589 56.8516 29.6439 57.2227 30.2559C57.6003 30.8613 57.7891 31.5417 57.7891 32.2969C57.7891 32.8307 57.6914 33.3516 57.4961 33.8594C57.3073 34.3607 56.9753 34.9238 56.5 35.5488C56.0312 36.1738 55.3802 36.9323 54.5469 37.8242L51.2852 41.3203V41.4375H58.043V43H48.8633Z" fill="black"/>
<rect x="2" width="57" height="2" fill="black"/>
<rect x="23" y="9" width="36" height="2" fill="black"/>
<rect x="2" y="18" width="57" height="2" fill="black"/>
</svg>
