<svg width="70" height="70" viewBox="0 0 70 70" fill="none" xmlns="http://www.w3.org/2000/svg">
<circle cx="35" cy="35" r="35" fill="#E9F8FF"/>
<g clip-path="url(#clip0_1569_22858)">
<path d="M38.7835 42.6992H31.125C31.3035 42.6992 31.4475 44.4547 31.4475 46.6172C31.4475 48.7812 31.304 50.5367 31.125 50.5367H38.7835C38.6055 50.5367 38.461 48.7812 38.461 46.6172C38.462 44.4547 38.6055 42.6992 38.7835 42.6992Z" fill="#BFBEBE"/>
<path d="M33.8065 42.6992H31.125C31.3035 42.6992 31.4475 44.4547 31.4475 46.6172C31.4475 48.7812 31.304 50.5367 31.125 50.5367H33.8065C33.985 50.5367 34.129 48.7812 34.129 46.6172C34.129 44.4547 33.985 42.6992 33.8065 42.6992Z" fill="#AEAEAE"/>
<path d="M50.892 42.6541C50.892 44.6776 49.367 46.3171 47.489 46.3171H22.424C20.544 46.3171 19.0195 44.6776 19.0195 42.6541V24.0941C19.0195 22.0741 20.544 20.4336 22.424 20.4336H47.489C49.367 20.4336 50.892 22.0726 50.892 24.0941V42.6541Z" fill="#D1D2D2"/>
<path d="M25.4631 42.6541V24.0941C25.4631 22.0741 26.9876 20.4336 28.8671 20.4336H22.4201C20.5401 20.4336 19.0156 22.0726 19.0156 24.0941V42.6541C19.0156 44.6776 20.5401 46.3171 22.4201 46.3171H28.8671C26.9876 46.3171 25.4631 44.6771 25.4631 42.6536" fill="#C6C5C5"/>
<path d="M50.892 37.4695C50.892 39.4895 49.367 41.1295 47.489 41.1295H22.424C20.544 41.1295 19.0195 39.491 19.0195 37.4695V24.0805C19.0195 22.057 20.544 20.418 22.424 20.418H47.489C49.367 20.418 50.892 22.057 50.892 24.0805V37.4695Z" fill="#243438"/>
<path d="M19.0195 36.5234H50.894V42.2069H19.0195V36.5234Z" fill="#243438"/>
<path d="M48.3754 22.1211H21.5349C21.3134 22.1211 21.1289 22.2436 21.1289 22.3911V39.8366C21.1289 39.9846 21.3134 40.1066 21.5349 40.1066H48.3754C48.4959 40.1066 48.5874 40.0811 48.6539 40.0361L48.6639 40.0261C48.6639 40.0261 48.6719 40.0201 48.6739 40.0146C48.7067 39.9976 48.7343 39.9721 48.7539 39.9408C48.7735 39.9095 48.7844 39.8735 48.7854 39.8366V22.3946C48.7834 22.2471 48.5969 22.1246 48.3754 22.1246" fill="#58C5E8"/>
<path d="M35.3494 33.7786C39.8374 36.4676 44.2219 38.2986 48.7834 39.4061V22.3911C48.7834 22.2436 48.5969 22.1211 48.3754 22.1211H23.7454C26.2754 26.8886 30.6294 30.9511 35.3504 33.7786M35.3854 36.6341C29.9704 33.6846 24.5489 29.5991 21.1289 24.5541V39.8361C21.1289 39.9841 21.3134 40.1061 21.5349 40.1061H43.4414C40.7654 39.2436 38.0969 38.1131 35.3864 36.6361" fill="#28A6DE"/>
<path d="M40.8608 50.3631C40.8608 50.7141 40.6918 50.9996 40.4843 50.9996H29.4293C29.2198 50.9996 29.0508 50.7141 29.0508 50.3631C29.0508 50.0116 29.2198 49.7266 29.4293 49.7266H40.4843C40.6918 49.7251 40.8608 50.0111 40.8608 50.3631Z" fill="#D1D2D2"/>
<path d="M32.9688 50.3631C32.9688 50.0116 33.1378 49.7266 33.3453 49.7266H29.2828C29.0748 49.7266 28.9062 50.0116 28.9062 50.3631C28.9062 50.7141 29.0753 50.9996 29.2828 50.9996H33.3453C33.1378 50.9996 32.9688 50.7141 32.9688 50.3631Z" fill="#C6C5C5"/>
<path d="M36.1635 43.307C36.1145 43.26 36.043 43.2465 35.9455 43.2745L35.384 43.418C35.209 43.4655 35.1205 43.581 35.1205 43.767L35.1185 44.3675C35.1185 44.4545 35.138 44.519 35.177 44.556C35.1935 44.5718 35.213 44.5841 35.2344 44.5921C35.2559 44.6001 35.2787 44.6036 35.3015 44.6025C35.3315 44.6025 35.3595 44.596 35.3955 44.589L35.9565 44.446C36.1315 44.399 36.2205 44.283 36.2225 44.0945V43.496C36.221 43.4075 36.2015 43.344 36.1635 43.307ZM35.8655 43.9905C35.8655 44.057 35.8345 44.098 35.771 44.1155L35.572 44.1675C35.5611 44.1696 35.5501 44.171 35.539 44.1715C35.5226 44.1718 35.5067 44.1663 35.494 44.156C35.481 44.1435 35.4725 44.12 35.475 44.086V43.8725C35.475 43.806 35.506 43.765 35.5685 43.748L35.77 43.696C35.8045 43.688 35.8305 43.692 35.8455 43.7075C35.8605 43.721 35.867 43.7435 35.867 43.7755V43.991H35.8655V43.9905ZM34.7885 43.7645C34.7885 43.5785 34.701 43.4625 34.5245 43.4155L33.9635 43.272C33.8665 43.244 33.7945 43.259 33.748 43.3045C33.707 43.3415 33.6875 43.405 33.6875 43.493L33.6895 44.0905C33.6915 44.279 33.779 44.3955 33.9535 44.442L34.5165 44.5855C34.5495 44.5955 34.5805 44.599 34.6075 44.599C34.6304 44.6002 34.6533 44.5967 34.6747 44.5886C34.6961 44.5805 34.7156 44.568 34.732 44.552C34.771 44.5155 34.7905 44.4515 34.7905 44.3635L34.7885 43.7645ZM34.4155 44.1535C34.4055 44.164 34.3905 44.169 34.371 44.169C34.371 44.169 34.3495 44.167 34.338 44.165L34.138 44.113C34.076 44.0955 34.043 44.0545 34.043 43.988V43.7725C34.043 43.7415 34.051 43.7185 34.064 43.7045C34.0795 43.689 34.105 43.685 34.1415 43.693L34.3415 43.745C34.4035 43.762 34.4365 43.803 34.4365 43.8695V44.085C34.4365 44.116 34.4365 44.1395 34.4155 44.1535ZM35.183 45.304C35.193 45.304 35.2025 45.302 35.216 45.2975L35.416 45.246C35.478 45.2315 35.511 45.1885 35.511 45.12V44.907C35.5118 44.8825 35.505 44.8584 35.4915 44.838C35.474 44.821 35.4465 44.819 35.414 44.8275L35.212 44.879C35.15 44.8945 35.1185 44.937 35.1185 45.005L35.1165 45.2195C35.1165 45.2505 35.1245 45.2715 35.138 45.285C35.148 45.298 35.1635 45.304 35.183 45.304ZM34.7265 45.304C34.7145 45.3038 34.7027 45.3016 34.6915 45.2975L34.4915 45.246C34.4295 45.2315 34.398 45.1885 34.398 45.12L34.396 44.907C34.396 44.8755 34.404 44.8545 34.4175 44.838C34.433 44.821 34.46 44.819 34.493 44.8275L34.697 44.879C34.7575 44.8945 34.7905 44.937 34.7905 45.005V45.2195C34.7905 45.2505 34.7825 45.2715 34.771 45.285C34.7654 45.2912 34.7586 45.2961 34.7509 45.2994C34.7432 45.3027 34.7349 45.3042 34.7265 45.304Z" fill="#243438"/>
</g>
<defs>
<clipPath id="clip0_1569_22858">
<rect width="32" height="32" fill="white" transform="translate(19 19)"/>
</clipPath>
</defs>
</svg>
