<svg width="16" height="16" viewBox="0 0 16 16" fill="none" xmlns="http://www.w3.org/2000/svg">
<path fill-rule="evenodd" clip-rule="evenodd" d="M8 2.5C4.96243 2.5 2.5 4.96243 2.5 8C2.5 11.0376 4.96243 13.5 8 13.5C11.0376 13.5 13.5 11.0376 13.5 8C13.5 4.96243 11.0376 2.5 8 2.5ZM1.5 8C1.5 4.41015 4.41015 1.5 8 1.5C11.5899 1.5 14.5 4.41015 14.5 8C14.5 11.5899 11.5899 14.5 8 14.5C4.41015 14.5 1.5 11.5899 1.5 8Z" fill="white"/>
<path fill-rule="evenodd" clip-rule="evenodd" d="M8.59633 6.09097C8.19566 5.96581 7.76577 5.96989 7.36754 6.10263C6.96932 6.23537 6.62296 6.49005 6.37752 6.83058C6.13207 7.17111 6 7.58024 6 8C6 8.41976 6.13207 8.82889 6.37752 9.16942C6.62296 9.50995 6.96932 9.76463 7.36754 9.89737C7.76577 10.0301 8.19566 10.0342 8.59633 9.90903C8.99701 9.78387 9.34814 9.53581 9.6 9.2C9.76569 8.97909 10.0791 8.93431 10.3 9.1C10.5209 9.26569 10.5657 9.57909 10.4 9.8C10.0222 10.3037 9.49551 10.6758 8.8945 10.8635C8.29349 11.0513 7.64865 11.0452 7.05132 10.846C6.45398 10.6469 5.93444 10.2649 5.56627 9.75413C5.19811 9.24333 5 8.62965 5 8C5 7.37035 5.19811 6.75667 5.56627 6.24587C5.93443 5.73507 6.45398 5.35306 7.05132 5.15395C7.64865 4.95484 8.2935 4.94872 8.8945 5.13646C9.49551 5.3242 10.0222 5.69628 10.4 6.2C10.5657 6.42091 10.5209 6.73431 10.3 6.9C10.0791 7.06569 9.76569 7.02091 9.6 6.8C9.34814 6.46419 8.99701 6.21613 8.59633 6.09097Z" fill="white"/>
</svg>
