<svg width="80" height="24" viewBox="0 0 80 24" fill="none" xmlns="http://www.w3.org/2000/svg">
<path d="M6.35511 18.2642C5.06534 18.2642 3.95455 17.9886 3.02273 17.4375C2.09659 16.8807 1.38068 16.0994 0.875 15.0938C0.375 14.0824 0.125 12.8977 0.125 11.5398C0.125 10.1989 0.375 9.01705 0.875 7.99432C1.38068 6.97159 2.08523 6.1733 2.98864 5.59943C3.89773 5.02557 4.96023 4.73864 6.17614 4.73864C6.91477 4.73864 7.63068 4.8608 8.32386 5.10511C9.01705 5.34943 9.6392 5.73295 10.1903 6.25568C10.7415 6.77841 11.1761 7.45739 11.4943 8.29261C11.8125 9.12216 11.9716 10.1307 11.9716 11.3182V12.2216H1.56534V10.3125H9.47443C9.47443 9.64205 9.33807 9.0483 9.06534 8.53125C8.79261 8.00852 8.40909 7.59659 7.91477 7.29545C7.42614 6.99432 6.85227 6.84375 6.19318 6.84375C5.47727 6.84375 4.85227 7.01989 4.31818 7.37216C3.78977 7.71875 3.38068 8.1733 3.09091 8.7358C2.80682 9.29261 2.66477 9.89773 2.66477 10.5511V12.0426C2.66477 12.9176 2.81818 13.6619 3.125 14.2756C3.4375 14.8892 3.87216 15.358 4.42898 15.6818C4.9858 16 5.63636 16.1591 6.38068 16.1591C6.86364 16.1591 7.30398 16.0909 7.7017 15.9545C8.09943 15.8125 8.44318 15.6023 8.73295 15.3239C9.02273 15.0455 9.24432 14.7017 9.39773 14.2926L11.8097 14.7273C11.6165 15.4375 11.2699 16.0597 10.7699 16.5938C10.2756 17.1222 9.65341 17.5341 8.90341 17.8295C8.15909 18.1193 7.30966 18.2642 6.35511 18.2642ZM26.2642 23.1818C25.2244 23.1818 24.3295 23.0455 23.5795 22.7727C22.8352 22.5 22.2273 22.1392 21.7557 21.6903C21.2841 21.2415 20.9318 20.75 20.6989 20.2159L22.8892 19.3125C23.0426 19.5625 23.2472 19.8267 23.5028 20.1051C23.7642 20.3892 24.1165 20.6307 24.5597 20.8295C25.0085 21.0284 25.5852 21.1278 26.2898 21.1278C27.2557 21.1278 28.054 20.892 28.6847 20.4205C29.3153 19.9545 29.6307 19.2102 29.6307 18.1875V15.6136H29.4688C29.3153 15.892 29.0938 16.2017 28.804 16.5426C28.5199 16.8835 28.1278 17.179 27.6278 17.429C27.1278 17.679 26.4773 17.804 25.6761 17.804C24.642 17.804 23.7102 17.5625 22.8807 17.0795C22.0568 16.5909 21.4034 15.8722 20.9205 14.9233C20.4432 13.9687 20.2045 12.7955 20.2045 11.4034C20.2045 10.0114 20.4403 8.81818 20.9119 7.82386C21.3892 6.82955 22.0426 6.06818 22.8722 5.53977C23.7017 5.00568 24.642 4.73864 25.6932 4.73864C26.5057 4.73864 27.1619 4.875 27.6619 5.14773C28.1619 5.41477 28.5511 5.72727 28.8295 6.08523C29.1136 6.44318 29.3324 6.75852 29.4858 7.03125H29.6733V4.90909H32.1705V18.2898C32.1705 19.4148 31.9091 20.3381 31.3864 21.0597C30.8636 21.7813 30.1563 22.3153 29.2642 22.6619C28.3778 23.0085 27.3778 23.1818 26.2642 23.1818ZM26.2386 15.6903C26.9716 15.6903 27.5909 15.5199 28.0966 15.179C28.608 14.8324 28.9943 14.3381 29.2557 13.696C29.5227 13.0483 29.6562 12.2727 29.6562 11.3693C29.6562 10.4886 29.5256 9.71307 29.2642 9.04261C29.0028 8.37216 28.6193 7.84943 28.1136 7.47443C27.608 7.09375 26.983 6.90341 26.2386 6.90341C25.4716 6.90341 24.8324 7.10227 24.321 7.5C23.8097 7.89205 23.4233 8.42614 23.1619 9.10227C22.9063 9.77841 22.7784 10.5341 22.7784 11.3693C22.7784 12.2273 22.9091 12.9801 23.1705 13.6278C23.4318 14.2756 23.8182 14.7812 24.3295 15.1449C24.8466 15.5085 25.483 15.6903 26.2386 15.6903ZM35.5881 18V4.90909H38.0511V6.98864H38.1875C38.4261 6.28409 38.8466 5.73011 39.4489 5.3267C40.0568 4.91761 40.7443 4.71307 41.5114 4.71307C41.6705 4.71307 41.858 4.71875 42.0739 4.73011C42.2955 4.74148 42.4688 4.75568 42.5938 4.77273V7.21023C42.4915 7.18182 42.3097 7.15057 42.0483 7.11648C41.7869 7.0767 41.5256 7.05682 41.2642 7.05682C40.6619 7.05682 40.125 7.18466 39.6534 7.44034C39.1875 7.69034 38.8182 8.03977 38.5455 8.48864C38.2727 8.93182 38.1364 9.4375 38.1364 10.0057V18H35.5881ZM49.8445 18.2642C48.6172 18.2642 47.5462 17.983 46.6314 17.4205C45.7166 16.858 45.0064 16.071 44.5007 15.0597C43.995 14.0483 43.7422 12.8665 43.7422 11.5142C43.7422 10.1562 43.995 8.96875 44.5007 7.9517C45.0064 6.93466 45.7166 6.14489 46.6314 5.58239C47.5462 5.01989 48.6172 4.73864 49.8445 4.73864C51.0717 4.73864 52.1428 5.01989 53.0575 5.58239C53.9723 6.14489 54.6825 6.93466 55.1882 7.9517C55.6939 8.96875 55.9467 10.1562 55.9467 11.5142C55.9467 12.8665 55.6939 14.0483 55.1882 15.0597C54.6825 16.071 53.9723 16.858 53.0575 17.4205C52.1428 17.983 51.0717 18.2642 49.8445 18.2642ZM49.853 16.125C50.6484 16.125 51.3075 15.9148 51.8303 15.4943C52.353 15.0739 52.7393 14.5142 52.9893 13.8153C53.245 13.1165 53.3729 12.3466 53.3729 11.5057C53.3729 10.6705 53.245 9.90341 52.9893 9.20455C52.7393 8.5 52.353 7.93466 51.8303 7.50852C51.3075 7.08239 50.6484 6.86932 49.853 6.86932C49.0518 6.86932 48.3871 7.08239 47.8587 7.50852C47.3359 7.93466 46.9467 8.5 46.6911 9.20455C46.4411 9.90341 46.3161 10.6705 46.3161 11.5057C46.3161 12.3466 46.4411 13.1165 46.6911 13.8153C46.9467 14.5142 47.3359 15.0739 47.8587 15.4943C48.3871 15.9148 49.0518 16.125 49.853 16.125ZM61.2308 18L57.3786 4.90909H60.0121L62.5774 14.5227H62.7053L65.2791 4.90909H67.9126L70.4695 14.4801H70.5973L73.1456 4.90909H75.7791L71.9354 18H69.3359L66.6768 8.5483H66.4808L63.8217 18H61.2308ZM78.0952 18.1619C77.6293 18.1619 77.2287 17.9972 76.8935 17.6676C76.5582 17.3324 76.3906 16.929 76.3906 16.4574C76.3906 15.9915 76.5582 15.5937 76.8935 15.2642C77.2287 14.929 77.6293 14.7614 78.0952 14.7614C78.5611 14.7614 78.9616 14.929 79.2969 15.2642C79.6321 15.5937 79.7997 15.9915 79.7997 16.4574C79.7997 16.7699 79.7202 17.0568 79.5611 17.3182C79.4077 17.5739 79.2031 17.7784 78.9474 17.9318C78.6918 18.0852 78.4077 18.1619 78.0952 18.1619Z" fill="#424D5E"/>
<path d="M17.3473 0.545454V18H14.799V0.545454H17.3473Z" fill="#3ECE5D"/>
</svg>
