<svg width="21" height="22" viewBox="0 0 21 22" fill="none" xmlns="http://www.w3.org/2000/svg">
<rect y="0.384277" width="21" height="21" rx="10.5" fill="#7E7B77" fill-opacity="0.68"/>
<path d="M15.1663 9.06023V13.2177C15.1663 13.6044 15.0127 13.9754 14.7392 14.2488C14.4657 14.5223 14.0948 14.676 13.708 14.676H7.29134C6.90457 14.676 6.53363 14.5223 6.26014 14.2488C5.98665 13.9754 5.83301 13.6044 5.83301 13.2177V9.06023L10.3515 11.7191C10.3964 11.7455 10.4476 11.7595 10.4997 11.7595C10.5518 11.7595 10.603 11.7455 10.6478 11.7191L15.1663 9.06023ZM13.708 7.09265C14.0668 7.09259 14.4131 7.22484 14.6805 7.46408C14.948 7.70333 15.1178 8.03278 15.1576 8.3894L10.4997 11.1293L5.84176 8.3894C5.88152 8.03278 6.05136 7.70333 6.3188 7.46408C6.58625 7.22484 6.93251 7.09259 7.29134 7.09265H13.708Z" fill="white"/>
</svg>
