<svg width="21" height="22" viewBox="0 0 21 22" fill="none" xmlns="http://www.w3.org/2000/svg">
<rect y="0.384277" width="21" height="21" rx="10.5" fill="white" fill-opacity="0.17"/>
<path d="M15.1663 9.06011V13.2175C15.1663 13.6043 15.0127 13.9752 14.7392 14.2487C14.4657 14.5222 14.0948 14.6759 13.708 14.6759H7.29134C6.90457 14.6759 6.53363 14.5222 6.26014 14.2487C5.98665 13.9752 5.83301 13.6043 5.83301 13.2175V9.06011L10.3515 11.7189C10.3964 11.7454 10.4476 11.7594 10.4997 11.7594C10.5518 11.7594 10.603 11.7454 10.6478 11.7189L15.1663 9.06011ZM13.708 7.09253C14.0668 7.09247 14.4131 7.22472 14.6805 7.46396C14.948 7.70321 15.1178 8.03265 15.1576 8.38928L10.4997 11.1292L5.84176 8.38928C5.88152 8.03265 6.05136 7.70321 6.3188 7.46396C6.58625 7.22472 6.93251 7.09247 7.29134 7.09253H13.708Z" fill="white"/>
</svg>
