<svg width="27" height="27" viewBox="0 0 27 27" fill="none" xmlns="http://www.w3.org/2000/svg">
<rect width="27" height="27" rx="13.5" fill="white" fill-opacity="0.17"/>
<path d="M19.5 11.1548V16.5C19.5 16.9973 19.3025 17.4742 18.9508 17.8258C18.5992 18.1775 18.1223 18.375 17.625 18.375H9.375C8.87772 18.375 8.40081 18.1775 8.04917 17.8258C7.69754 17.4742 7.5 16.9973 7.5 16.5V11.1548L13.3095 14.5732C13.3672 14.6073 13.433 14.6252 13.5 14.6252C13.567 14.6252 13.6328 14.6073 13.6905 14.5732L19.5 11.1548ZM17.625 8.625C18.0864 8.62493 18.5316 8.79495 18.8754 9.10255C19.2193 9.41015 19.4376 9.83373 19.4888 10.2923L13.5 13.815L7.51125 10.2923C7.56237 9.83373 7.78074 9.41015 8.1246 9.10255C8.46845 8.79495 8.91364 8.62493 9.375 8.625H17.625Z" fill="white"/>
</svg>
