<svg width="73" height="41" viewBox="0 0 73 41" fill="none" xmlns="http://www.w3.org/2000/svg">
<path d="M0.655037 29.5633H4.11738V8.22781H0.655037V7.79112H7.33018L17.8732 24.7909H17.9355V8.22781H14.4732V7.79112H21.8658V8.22781H18.4034V30.4367H17.7796L4.64764 9.50669H4.58526V29.5633H8.0476V30H0.655037V29.5633ZM28.219 18.8644C28.219 20.7359 28.3438 22.3683 28.5933 23.7616C28.8428 25.1548 29.2587 26.3193 29.841 27.2551C30.4232 28.1908 31.1719 28.8875 32.0868 29.345C33.0018 29.8024 34.1351 30.0312 35.4868 30.0312C36.8177 30.0312 37.9406 29.8024 38.8555 29.345C39.7913 28.8875 40.5503 28.1908 41.1326 27.2551C41.7148 26.3193 42.1307 25.1548 42.3803 23.7616C42.6298 22.3683 42.7546 20.7359 42.7546 18.8644C42.7546 17.4295 42.661 16.0467 42.4738 14.7158C42.2867 13.3641 41.9228 12.1684 41.3821 11.1287C40.8622 10.0682 40.124 9.22596 39.1675 8.60212C38.2317 7.97827 37.0048 7.66635 35.4868 7.66635C33.9688 7.66635 32.7315 7.97827 31.7749 8.60212C30.8391 9.22596 30.1009 10.0682 29.5603 11.1287C29.0404 12.1684 28.6869 13.3641 28.4997 14.7158C28.3126 16.0467 28.219 17.4295 28.219 18.8644ZM24.6319 18.8644C24.6319 17.2008 24.9542 15.662 25.5988 14.2479C26.2643 12.8339 27.1065 11.607 28.1254 10.5672C29.1652 9.52749 30.3297 8.71649 31.6189 8.13423C32.9082 7.53119 34.1975 7.22966 35.4868 7.22966C36.8592 7.22966 38.1901 7.53119 39.4794 8.13423C40.7895 8.71649 41.954 9.52749 42.9729 10.5672C43.9919 11.607 44.8029 12.8339 45.4059 14.2479C46.0298 15.662 46.3417 17.2008 46.3417 18.8644C46.3417 20.32 46.061 21.7445 45.4995 23.1377C44.938 24.531 44.1686 25.7683 43.1913 26.8496C42.2139 27.9309 41.0598 28.8043 39.7289 29.4697C38.4189 30.1352 37.0048 30.4679 35.4868 30.4679C33.9272 30.4679 32.4819 30.1456 31.1511 29.5009C29.8202 28.8563 28.6661 28.0037 27.6887 26.9432C26.7322 25.8618 25.9835 24.6245 25.4429 23.2313C24.9022 21.8172 24.6319 20.3616 24.6319 18.8644ZM49.1188 7.79112H59.1627V8.22781H55.7003V23.2937C55.7003 24.5414 55.8043 25.6019 56.0123 26.4753C56.241 27.3279 56.5737 28.0245 57.0104 28.5652C57.4471 29.085 57.9878 29.4593 58.6324 29.6881C59.277 29.9168 60.0153 30.0312 60.8471 30.0312C62.0116 30.0312 63.0409 29.8648 63.9351 29.5321C64.8293 29.1786 65.5987 28.5652 66.2433 27.6918C66.4513 27.4214 66.628 27.1511 66.7736 26.8808C66.9399 26.6104 67.0751 26.2985 67.1791 25.945C67.3039 25.5707 67.3974 25.134 67.4598 24.6349C67.5222 24.1151 67.5534 23.4808 67.5534 22.7322V8.22781H64.0911V7.79112H71.4836V8.22781H68.0213V23.3561C68.0213 24.2294 67.9277 25.03 67.7405 25.7579C67.5534 26.4649 67.1687 27.2031 66.5864 27.9725C66.025 28.7211 65.2452 29.3242 64.247 29.7817C63.2489 30.2391 61.9284 30.4679 60.2856 30.4679C57.7902 30.4679 55.8771 29.8544 54.5462 28.6275C53.2361 27.4006 52.5811 25.5187 52.5811 22.9817V8.22781H49.1188V7.79112Z" fill="black"/>
<path d="M53.302 38.6969C52.9693 38.6969 52.6937 38.6111 52.4754 38.4395C52.2571 38.2628 52.1011 38.0522 52.0075 37.8079L51.836 38.6189H51.485L52.6937 32.9263H53.0837L52.5456 35.4451C52.7899 35.1644 53.0525 34.9356 53.3332 34.7589C53.6191 34.5821 53.9206 34.4937 54.2378 34.4937C54.5497 34.4937 54.807 34.5743 55.0098 34.7355C55.2177 34.8966 55.3711 35.1046 55.4699 35.3593C55.5738 35.614 55.6258 35.8818 55.6258 36.1625C55.6258 36.4952 55.5582 36.8123 55.4231 37.1139C55.2931 37.4154 55.1163 37.6857 54.8928 37.9249C54.6745 38.164 54.4275 38.3538 54.152 38.4941C53.8765 38.6293 53.5931 38.6969 53.302 38.6969ZM53.302 38.346C53.5463 38.346 53.7829 38.2888 54.0116 38.1744C54.2404 38.0548 54.4431 37.8937 54.6199 37.6909C54.8018 37.483 54.9448 37.2542 55.0488 37.0047C55.1579 36.75 55.2125 36.4874 55.2125 36.2171C55.2125 35.978 55.1683 35.7544 55.08 35.5465C54.9916 35.3385 54.8616 35.1696 54.6901 35.0396C54.5237 34.9096 54.3157 34.8446 54.0662 34.8446C53.8583 34.8446 53.6555 34.894 53.458 34.9928C53.2656 35.0864 53.0863 35.2111 52.9199 35.3671C52.7535 35.5231 52.5976 35.6946 52.452 35.8818L52.1401 37.379C52.1609 37.5662 52.2259 37.7351 52.335 37.8859C52.4442 38.0314 52.582 38.1458 52.7483 38.229C52.9199 38.307 53.1044 38.346 53.302 38.346ZM56.912 34.5639H57.2863L57.068 35.5621C57.2759 35.2605 57.5125 35.024 57.7776 34.8524C58.0427 34.6757 58.3079 34.5795 58.573 34.5639C58.6094 34.5587 58.6432 34.5587 58.6744 34.5639C58.7056 34.5639 58.7316 34.5639 58.7524 34.5639L58.6744 34.9148C58.3313 34.9252 58.0063 35.0344 57.6996 35.2423C57.3981 35.4451 57.159 35.7258 56.9822 36.0845L56.4441 38.6189H56.0542L56.912 34.5639ZM60.0736 38.6969C59.7773 38.6969 59.5199 38.6189 59.3016 38.4629C59.0884 38.3018 58.9221 38.0912 58.8025 37.8313C58.6881 37.5714 58.6309 37.2906 58.6309 36.9891C58.6309 36.672 58.6933 36.3653 58.8181 36.0689C58.9429 35.7726 59.1092 35.5075 59.3172 35.2735C59.5303 35.0344 59.7721 34.8446 60.0424 34.7043C60.3127 34.5639 60.596 34.4937 60.8924 34.4937C61.2303 34.4937 61.5084 34.5873 61.7268 34.7745C61.9451 34.9616 62.1011 35.1852 62.1947 35.4451L62.3818 34.5639H62.7795L62.0309 38.0574C62.0257 38.073 62.0205 38.0886 62.0153 38.1042C62.0153 38.1198 62.0153 38.1354 62.0153 38.151C62.0153 38.229 62.0595 38.268 62.1479 38.268L62.0699 38.6189C62.0387 38.6189 62.0101 38.6215 61.9841 38.6267C61.9581 38.6319 61.9347 38.6319 61.9139 38.6267C61.8203 38.6215 61.7502 38.5929 61.7034 38.5409C61.6566 38.4889 61.6332 38.4265 61.6332 38.3538C61.6332 38.3278 61.6358 38.2992 61.641 38.268C61.6462 38.2368 61.654 38.1874 61.6644 38.1198C61.68 38.047 61.7008 37.9431 61.7268 37.8079C61.5188 38.0782 61.2641 38.294 60.9626 38.4551C60.6662 38.6163 60.3699 38.6969 60.0736 38.6969ZM60.2139 38.346C60.3595 38.346 60.5129 38.3174 60.674 38.2602C60.8404 38.203 60.9989 38.125 61.1497 38.0262C61.3057 37.9223 61.4408 37.8053 61.5552 37.6753C61.6748 37.5402 61.7606 37.3998 61.8125 37.2542L62.0933 35.9208C62.0673 35.7284 61.9997 35.5517 61.8905 35.3905C61.7814 35.2293 61.641 35.0994 61.4694 35.0006C61.3031 34.8966 61.1159 34.8446 60.908 34.8446C60.6636 34.8446 60.4271 34.907 60.1983 35.0318C59.9748 35.1566 59.7747 35.3203 59.5979 35.5231C59.4263 35.7258 59.2886 35.952 59.1846 36.2015C59.0858 36.4458 59.0364 36.6928 59.0364 36.9423C59.0364 37.197 59.0858 37.431 59.1846 37.6441C59.2886 37.8521 59.4289 38.021 59.6057 38.151C59.7825 38.281 59.9852 38.346 60.2139 38.346ZM63.979 34.5639H64.3455L64.135 35.5309C64.2857 35.3229 64.4625 35.1436 64.6652 34.9928C64.868 34.8368 65.0863 34.7147 65.3203 34.6263C65.5542 34.5379 65.783 34.4937 66.0065 34.4937C66.2144 34.4937 66.3808 34.5327 66.5056 34.6107C66.6355 34.6835 66.7291 34.7926 66.7863 34.9382C66.8487 35.0838 66.8799 35.2605 66.8799 35.4685C66.8799 35.588 66.8695 35.7154 66.8487 35.8506C66.8331 35.9858 66.8097 36.1313 66.7785 36.2873L66.2872 38.6189H65.8973L66.373 36.3575C66.4042 36.2119 66.425 36.0793 66.4354 35.9598C66.451 35.8402 66.4588 35.731 66.4588 35.6322C66.4588 35.3671 66.4042 35.1722 66.295 35.0474C66.1911 34.9174 66.0299 34.8524 65.8115 34.8524C65.5984 34.8524 65.3775 34.907 65.1487 35.0162C64.92 35.1254 64.7068 35.2761 64.5093 35.4685C64.3169 35.6556 64.161 35.8688 64.0414 36.1079L63.5111 38.6189H63.1212L63.979 34.5639ZM68.9991 38.6969C68.6923 38.6969 68.4298 38.6189 68.2115 38.4629C67.9931 38.3018 67.8268 38.0912 67.7124 37.8313C67.598 37.5714 67.5408 37.2906 67.5408 36.9891C67.5408 36.6668 67.6032 36.3601 67.728 36.0689C67.8528 35.7726 68.0191 35.5075 68.2271 35.2735C68.4402 35.0344 68.6819 34.8446 68.9523 34.7043C69.2278 34.5639 69.5137 34.4937 69.8101 34.4937C70.1428 34.4937 70.4183 34.5873 70.6367 34.7745C70.855 34.9616 71.011 35.1852 71.1045 35.4451L71.6348 32.9263H72.0325L70.9408 38.0574C70.9356 38.0782 70.9304 38.0964 70.9252 38.112C70.9252 38.1224 70.9252 38.1354 70.9252 38.151C70.9252 38.229 70.9694 38.268 71.0578 38.268L70.9798 38.6189C70.9434 38.6189 70.9096 38.6189 70.8784 38.6189C70.8524 38.6241 70.829 38.6267 70.8082 38.6267C70.7198 38.6163 70.6523 38.5851 70.6055 38.5331C70.5639 38.4811 70.5431 38.4187 70.5431 38.346C70.5431 38.3252 70.5431 38.3018 70.5431 38.2758C70.5483 38.2446 70.5587 38.1926 70.5743 38.1198C70.5899 38.047 70.6107 37.9431 70.6367 37.8079C70.4287 38.0782 70.174 38.294 69.8725 38.4551C69.5709 38.6163 69.2798 38.6969 68.9991 38.6969ZM69.1472 38.346C69.2824 38.346 69.428 38.3174 69.5839 38.2602C69.7451 38.203 69.9036 38.125 70.0596 38.0262C70.2156 37.9223 70.3507 37.8053 70.4651 37.6753C70.5847 37.5402 70.6705 37.3998 70.7224 37.2542L71.0032 35.9208C70.9772 35.7232 70.9044 35.5439 70.7848 35.3827C70.6705 35.2163 70.5275 35.0864 70.3559 34.9928C70.1896 34.894 70.0128 34.8446 69.8257 34.8446C69.5709 34.8446 69.3292 34.907 69.1004 35.0318C68.8769 35.1514 68.6767 35.3125 68.5 35.5153C68.3284 35.718 68.1933 35.9442 68.0945 36.1937C67.9957 36.438 67.9463 36.6824 67.9463 36.9267C67.9463 37.1867 67.9957 37.4232 68.0945 37.6363C68.1933 37.8495 68.331 38.021 68.5078 38.151C68.6897 38.281 68.9029 38.346 69.1472 38.346Z" fill="black"/>
<line x1="43.2158" y1="19.1576" x2="59.4618" y2="19.1576" stroke="black" stroke-width="0.649839"/>
</svg>
