<svg width="53" height="17" viewBox="0 0 53 17" fill="none" xmlns="http://www.w3.org/2000/svg">
<path fill-rule="evenodd" clip-rule="evenodd" d="M46.834 0C40.353 0.451545 36.4219 4.03734 36.4219 9.48244C36.4219 14.9275 41.9201 17.7165 49.7026 16.1759C51.3229 15.8572 51.2166 15.9634 51.4822 14.4494C51.7479 12.9354 51.7744 12.8823 50.4995 13.2276C44.8153 14.6619 41.1498 11.8995 42.3451 7.09191C42.565 5.94786 43.1359 4.90077 43.9785 4.09626C44.8211 3.29175 45.8935 2.7698 47.0465 2.60302C48.9058 2.36397 50.101 3.13425 50.2073 4.62169C50.2073 5.25917 50.2073 5.25917 51.2432 5.25917C52.2791 5.25917 52.0932 5.4451 52.6244 3.10769C53.1556 0.770283 53.2353 0.637475 52.1197 0.451545C50.3799 0.0461719 48.5867 -0.0793592 46.8074 0.0796811" fill="black"/>
<path fill-rule="evenodd" clip-rule="evenodd" d="M3.51222 0.345031C3.35959 0.793482 3.2528 1.25625 3.19348 1.72623C3.19348 1.91216 3.19348 1.99184 3.67159 2.20434C3.86744 2.28356 4.03523 2.41938 4.15351 2.59443C4.27179 2.76949 4.33519 2.97584 4.33562 3.18711C4.33562 3.53241 2.71537 11.368 2.37007 12.5367C2.30819 12.9461 2.1444 13.3333 1.89377 13.6629C1.64315 13.9924 1.31372 14.2536 0.935755 14.4226C0.324842 14.582 0.324842 14.582 0.192035 15.1663C-0.153264 16.4678 -0.578248 16.3616 4.25594 16.3616C9.09013 16.3616 8.42609 16.3616 8.61202 15.5913C8.79795 14.821 8.82451 14.5023 8.37297 14.3164C8.07952 14.1813 7.84402 13.9458 7.70893 13.6523C7.91297 12.1947 8.19671 10.7494 8.5589 9.32281C8.5589 9.16344 8.55889 9.16344 9.40886 10.5712C11.6666 14.6085 12.729 15.7507 14.7212 16.2022C16.4888 16.3501 18.2658 16.3501 20.0334 16.2022C20.237 15.7671 20.3629 15.2996 20.4053 14.821C20.4053 14.582 20.2194 14.4492 19.7678 14.3961C18.8382 14.3961 18.7054 14.1836 15.8899 10.3853C13.7649 7.49007 13.6853 7.38382 13.7915 7.27758C14.3759 6.71979 19.5022 2.54963 19.7678 2.41683C20.2188 2.19076 20.703 2.03832 21.2022 1.96528C21.6537 1.96528 21.7334 1.83247 21.8662 1.22156C22.1318 0.026293 22.5037 0.132539 18.2804 0.132539C14.0571 0.132539 14.6149 0.132542 14.5352 0.451279C14.243 1.64655 14.243 1.80591 14.5352 2.01841C14.8274 2.2309 15.1461 2.36371 12.2775 4.67455C9.40886 6.9854 8.98388 7.3307 8.98388 7.3307C8.98388 7.3307 9.91353 2.89494 10.0198 2.68244C10.1982 2.34535 10.4897 2.08199 10.8432 1.93872C11.2682 1.75279 11.2682 1.72623 11.4275 1.06219C11.6666 -0.0799515 12.1181 0.026296 7.46988 0.026296H3.5919L3.51222 0.345031Z" fill="black"/>
<path fill-rule="evenodd" clip-rule="evenodd" d="M23.1416 0.344971C22.9677 0.788641 22.8516 1.25286 22.7963 1.72617C22.7963 1.9121 22.7963 1.96522 23.2744 2.17771C23.4556 2.28186 23.6174 2.41666 23.7525 2.57613C24.0978 3.05424 24.1243 2.84175 22.6103 9.72117C21.0963 16.6006 21.2026 16.0694 21.3619 16.2287C23.5809 16.4015 25.8099 16.4015 28.0289 16.2287C28.2584 15.7091 28.3847 15.1498 28.4007 14.5819C28.3355 14.489 28.2546 14.4081 28.1617 14.3429C27.1789 13.8648 27.1523 13.5726 27.9492 10.2524H30.6053C31.5334 10.3294 32.4662 10.3294 33.3943 10.2524C33.668 9.38461 33.8723 8.49643 34.0052 7.59625C34.0052 7.25095 34.0052 7.25095 31.2163 7.25095C28.4273 7.25095 28.5601 7.25095 28.5601 7.25095C28.5601 7.25095 28.7726 6.21505 29.0117 5.07291L29.4632 3.02768H31.3225C34.1115 3.02768 34.4302 3.02768 34.4302 4.51512C34.4302 5.12603 34.4302 5.17915 35.5192 5.15259C36.1301 5.15259 36.2895 5.15259 36.3692 5.15259C36.7794 3.72761 37.1163 2.28255 37.3785 0.823078C37.3785 0.50434 37.8301 0.504338 30.1272 0.504338H23.2212L23.1416 0.344971Z" fill="black"/>
</svg>
