<svg width="54" height="18" viewBox="0 0 54 18" fill="none" xmlns="http://www.w3.org/2000/svg">
<path fill-rule="evenodd" clip-rule="evenodd" d="M47.7748 0.701416C41.2938 1.15296 37.3627 4.73876 37.3627 10.1839C37.3627 15.629 42.8609 18.4179 50.6434 16.8773C52.2637 16.5586 52.1574 16.6649 52.4231 15.1509C52.6887 13.6368 52.7152 13.5837 51.4403 13.929C45.7561 15.3633 42.0906 12.601 43.2859 7.79333C43.5058 6.64928 44.0768 5.60219 44.9193 4.79767C45.7619 3.99316 46.8343 3.47122 47.9873 3.30444C49.8466 3.06538 51.0419 3.83567 51.1481 5.32311C51.1481 5.96059 51.1481 5.96058 52.184 5.96058C53.2199 5.96058 53.034 6.14652 53.5652 3.80911C54.0964 1.4717 54.1761 1.33889 53.0605 1.15296C51.3208 0.747588 49.5275 0.622057 47.7482 0.781097" fill="white"/>
<path fill-rule="evenodd" clip-rule="evenodd" d="M4.45295 1.04645C4.30033 1.4949 4.19353 1.95766 4.13421 2.42764C4.13421 2.61357 4.13421 2.69326 4.61232 2.90575C4.80817 2.98498 4.97596 3.12079 5.09424 3.29585C5.21252 3.47091 5.27593 3.67725 5.27636 3.88852C5.27636 4.23382 3.65611 12.0695 3.31081 13.2382C3.24892 13.6475 3.08514 14.0348 2.83451 14.3643C2.58388 14.6938 2.25445 14.9551 1.87649 15.124C1.26558 15.2834 1.26558 15.2834 1.13277 15.8678C0.787471 17.1693 0.362487 17.063 5.19667 17.063C10.0309 17.063 9.36682 17.063 9.55275 16.2927C9.73868 15.5225 9.76525 15.2037 9.3137 15.0178C9.02026 14.8827 8.78475 14.6472 8.64966 14.3537C8.8537 12.8961 9.13745 11.4508 9.49963 10.0242C9.49963 9.86486 9.49963 9.86486 10.3496 11.2726C12.6073 15.31 13.6698 16.4521 15.6619 16.9036C17.4296 17.0515 19.2065 17.0515 20.9742 16.9036C21.1778 16.4685 21.3036 16.001 21.346 15.5225C21.346 15.2834 21.1601 15.1506 20.7086 15.0975C19.7789 15.0975 19.6461 14.885 16.8306 11.0867C14.7057 8.19148 14.626 8.08524 14.7322 7.97899C15.3166 7.4212 20.443 3.25105 20.7086 3.11824C21.1595 2.89217 21.6438 2.73973 22.1429 2.6667C22.5944 2.6667 22.6741 2.53389 22.8069 1.92298C23.0725 0.727709 23.4444 0.833955 19.2211 0.833955C14.9979 0.833955 15.5556 0.833958 15.476 1.1527C15.1838 2.34796 15.1838 2.50733 15.476 2.71982C15.7681 2.93231 16.0869 3.06512 13.2182 5.37597C10.3496 7.68682 9.92461 8.03212 9.92461 8.03212C9.92461 8.03212 10.8543 3.59635 10.9605 3.38386C11.1389 3.04677 11.4305 2.78341 11.7839 2.64014C12.2089 2.45421 12.2089 2.42764 12.3683 1.76361C12.6073 0.621465 13.0589 0.727712 8.41061 0.727712H4.53264L4.45295 1.04645Z" fill="white"/>
<path fill-rule="evenodd" clip-rule="evenodd" d="M24.0822 1.04639C23.9083 1.49006 23.7923 1.95427 23.7369 2.42758C23.7369 2.61351 23.7369 2.66664 24.215 2.87913C24.3962 2.98327 24.558 3.11808 24.6931 3.27755C25.0384 3.75566 25.065 3.54317 23.551 10.4226C22.037 17.302 22.1432 16.7708 22.3026 16.9301C24.5215 17.1029 26.7506 17.1029 28.9695 16.9301C29.199 16.4105 29.3253 15.8512 29.3414 15.2833C29.2761 15.1904 29.1952 15.1096 29.1023 15.0443C28.1195 14.5662 28.093 14.274 28.8898 10.9538H31.546C32.474 11.0308 33.4069 11.0308 34.3349 10.9538C34.6087 10.086 34.813 9.19784 34.9459 8.29766C34.9459 7.95236 34.9459 7.95237 32.1569 7.95237C29.3679 7.95237 29.5008 7.95237 29.5008 7.95237C29.5008 7.95237 29.7132 6.91647 29.9523 5.77433L30.4038 3.72909H32.2631C35.0521 3.72909 35.3708 3.72909 35.3708 5.21653C35.3708 5.82745 35.3708 5.88057 36.4599 5.85401C37.0708 5.85401 37.2301 5.85401 37.3098 5.85401C37.72 4.42903 38.0569 2.98396 38.3192 1.52449C38.3192 1.20576 38.7707 1.20575 31.0679 1.20575H24.1619L24.0822 1.04639Z" fill="white"/>
</svg>
