<svg width="204" height="55" viewBox="0 0 204 55" fill="none" xmlns="http://www.w3.org/2000/svg">
<path d="M15.5903 44.56C12.8564 44.56 10.5019 43.9759 8.52681 42.8077C6.56371 41.6274 5.04623 39.9714 3.97436 37.8397C2.91453 35.696 2.38462 33.1849 2.38462 30.3065C2.38462 27.4643 2.91453 24.9592 3.97436 22.7914C5.04623 20.6235 6.53963 18.9314 8.45455 17.715C10.3815 16.4986 12.6336 15.8904 15.211 15.8904C16.7766 15.8904 18.2941 16.1494 19.7634 16.6672C21.2327 17.1851 22.5515 17.9981 23.7197 19.1061C24.8879 20.2141 25.8092 21.6533 26.4837 23.4237C27.1581 25.182 27.4953 27.3197 27.4953 29.8368V31.7517H5.43765V27.7051H22.2022C22.2022 26.284 21.9132 25.0254 21.3351 23.9295C20.757 22.8215 19.9441 21.9483 18.8963 21.31C17.8605 20.6717 16.6441 20.3526 15.2471 20.3526C13.7296 20.3526 12.4048 20.7259 11.2727 21.4726C10.1527 22.2073 9.28555 23.1707 8.67133 24.3631C8.06915 25.5433 7.76807 26.826 7.76807 28.211V31.3724C7.76807 33.2271 8.09324 34.8048 8.74359 36.1055C9.40598 37.4062 10.3273 38.3998 11.5076 39.0862C12.6878 39.7607 14.0668 40.0979 15.6445 40.0979C16.6682 40.0979 17.6016 39.9534 18.4446 39.6643C19.2877 39.3632 20.0163 38.9176 20.6305 38.3275C21.2448 37.7374 21.7145 37.0087 22.0396 36.1416L27.1521 37.0629C26.7426 38.5684 26.008 39.8871 24.9481 41.0192C23.9004 42.1393 22.5816 43.0124 20.9918 43.6387C19.4141 44.2529 17.6136 44.56 15.5903 44.56ZM57.7908 54.9837C55.5868 54.9837 53.69 54.6946 52.1002 54.1166C50.5225 53.5385 49.2339 52.7737 48.2343 51.8223C47.2347 50.8708 46.488 49.8291 45.9942 48.697L50.6369 46.7821C50.9621 47.312 51.3957 47.872 51.9376 48.4621C52.4916 49.0643 53.2383 49.5761 54.1777 49.9977C55.1292 50.4192 56.3516 50.63 57.845 50.63C59.8924 50.63 61.5845 50.1301 62.9213 49.1305C64.2582 48.143 64.9266 46.5653 64.9266 44.3974V38.9417H64.5833C64.2582 39.5319 63.7885 40.1882 63.1742 40.9108C62.5721 41.6334 61.7411 42.2597 60.6812 42.7896C59.6214 43.3195 58.2424 43.5845 56.5443 43.5845C54.3524 43.5845 52.3772 43.0726 50.6189 42.049C48.8726 41.0132 47.4876 39.4897 46.4639 37.4784C45.4522 35.4551 44.9464 32.9681 44.9464 30.0175C44.9464 27.0668 45.4462 24.5377 46.4458 22.4301C47.4575 20.3225 48.8425 18.7086 50.6008 17.5886C52.3592 16.4565 54.3524 15.8904 56.5804 15.8904C58.3026 15.8904 59.6937 16.1795 60.7535 16.7576C61.8133 17.3236 62.6383 17.986 63.2284 18.7448C63.8306 19.5035 64.2943 20.1719 64.6195 20.75H65.0169V16.2517H70.31V44.6142C70.31 46.9988 69.756 48.9559 68.648 50.4854C67.54 52.015 66.0406 53.147 64.1498 53.8817C62.271 54.6164 60.1513 54.9837 57.7908 54.9837ZM57.7366 39.1043C59.2902 39.1043 60.603 38.743 61.6748 38.0204C62.7587 37.2857 63.5777 36.238 64.1317 34.877C64.6977 33.5041 64.9808 31.8601 64.9808 29.9452C64.9808 28.0785 64.7038 26.4345 64.1498 25.0134C63.5958 23.5923 62.7828 22.4843 61.711 21.6894C60.6391 20.8825 59.3143 20.479 57.7366 20.479C56.1107 20.479 54.7558 20.9005 53.6719 21.7436C52.588 22.5746 51.769 23.7067 51.215 25.1399C50.6731 26.573 50.4021 28.1748 50.4021 29.9452C50.4021 31.7638 50.6791 33.3596 51.2331 34.7325C51.7871 36.1055 52.6061 37.1774 53.69 37.9481C54.7859 38.7189 56.1348 39.1043 57.7366 39.1043ZM77.5542 44V16.2517H82.7751V20.6597H83.0641C83.5699 19.1663 84.4612 17.992 85.7378 17.1369C87.0264 16.2698 88.4837 15.8362 90.1096 15.8362C90.4468 15.8362 90.8442 15.8483 91.3019 15.8724C91.7716 15.8965 92.1389 15.9266 92.4038 15.9627V21.1294C92.1871 21.0692 91.8017 21.0029 91.2477 20.9307C90.6937 20.8463 90.1397 20.8042 89.5857 20.8042C88.3091 20.8042 87.1709 21.0752 86.1713 21.6171C85.1838 22.147 84.4009 22.8877 83.8228 23.8392C83.2448 24.7786 82.9557 25.8504 82.9557 27.0548V44H77.5542ZM107.773 44.56C105.171 44.56 102.901 43.9639 100.962 42.7716C99.0233 41.5793 97.5178 39.9112 96.446 37.7675C95.3741 35.6237 94.8381 33.1187 94.8381 30.2523C94.8381 27.3739 95.3741 24.8568 96.446 22.701C97.5178 20.5453 99.0233 18.8712 100.962 17.6789C102.901 16.4866 105.171 15.8904 107.773 15.8904C110.374 15.8904 112.644 16.4866 114.583 17.6789C116.522 18.8712 118.028 20.5453 119.1 22.701C120.172 24.8568 120.708 27.3739 120.708 30.2523C120.708 33.1187 120.172 35.6237 119.1 37.7675C118.028 39.9112 116.522 41.5793 114.583 42.7716C112.644 43.9639 110.374 44.56 107.773 44.56ZM107.791 40.0256C109.477 40.0256 110.874 39.58 111.982 38.6888C113.09 37.7976 113.909 36.6113 114.439 35.13C114.981 33.6486 115.252 32.0167 115.252 30.2343C115.252 28.4639 114.981 26.838 114.439 25.3566C113.909 23.8632 113.09 22.6649 111.982 21.7617C110.874 20.8584 109.477 20.4068 107.791 20.4068C106.093 20.4068 104.684 20.8584 103.564 21.7617C102.456 22.6649 101.631 23.8632 101.089 25.3566C100.559 26.838 100.294 28.4639 100.294 30.2343C100.294 32.0167 100.559 33.6486 101.089 35.13C101.631 36.6113 102.456 37.7976 103.564 38.6888C104.684 39.58 106.093 40.0256 107.791 40.0256ZM131.908 44L123.743 16.2517H129.325L134.762 36.6294H135.033L140.489 16.2517H146.071L151.491 36.539H151.762L157.163 16.2517H162.745L154.598 44H149.088L143.452 23.9656H143.036L137.4 44H131.908Z" fill="#424D5E"/>
<path d="M38.89 7.00233V44H33.4885V7.00233H38.89Z" fill="#3ECE5D"/>
<line x1="179" y1="29.5" x2="204" y2="29.5" stroke="#424D5E"/>
</svg>
