<svg width="161" height="48" viewBox="0 0 161 48" fill="none" xmlns="http://www.w3.org/2000/svg">
<path d="M13.5903 37.56C10.8564 37.56 8.50194 36.9759 6.52681 35.8077C4.56371 34.6274 3.04623 32.9714 1.97436 30.8397C0.91453 28.696 0.384615 26.1849 0.384615 23.3065C0.384615 20.4643 0.91453 17.9592 1.97436 15.7914C3.04623 13.6235 4.53963 11.9314 6.45455 10.715C8.38151 9.49864 10.6336 8.89044 13.211 8.89044C14.7766 8.89044 16.2941 9.14938 17.7634 9.66725C19.2327 10.1851 20.5515 10.9981 21.7197 12.1061C22.8879 13.2141 23.8092 14.6533 24.4837 16.4237C25.1581 18.182 25.4953 20.3197 25.4953 22.8368V24.7517H3.43765V20.7051H20.2022C20.2022 19.284 19.9132 18.0254 19.3351 16.9295C18.757 15.8215 17.9441 14.9483 16.8963 14.31C15.8605 13.6717 14.6441 13.3526 13.2471 13.3526C11.7296 13.3526 10.4048 13.7259 9.27273 14.4726C8.15268 15.2073 7.28555 16.1707 6.67133 17.3631C6.06915 18.5433 5.76807 19.826 5.76807 21.211V24.3724C5.76807 26.2271 6.09324 27.8048 6.74359 29.1055C7.40598 30.4062 8.32731 31.3998 9.50758 32.0862C10.6878 32.7607 12.0668 33.0979 13.6445 33.0979C14.6682 33.0979 15.6016 32.9534 16.4446 32.6643C17.2877 32.3632 18.0163 31.9176 18.6305 31.3275C19.2448 30.7374 19.7145 30.0087 20.0396 29.1416L25.1521 30.0629C24.7426 31.5684 24.008 32.8871 22.9481 34.0192C21.9004 35.1393 20.5816 36.0124 18.9918 36.6387C17.4141 37.2529 15.6136 37.56 13.5903 37.56ZM55.7908 47.9837C53.5868 47.9837 51.69 47.6946 50.1002 47.1166C48.5225 46.5385 47.2339 45.7737 46.2343 44.8223C45.2347 43.8708 44.488 42.8291 43.9942 41.697L48.6369 39.7821C48.9621 40.312 49.3957 40.872 49.9376 41.4621C50.4916 42.0643 51.2383 42.5761 52.1777 42.9977C53.1292 43.4192 54.3516 43.63 55.845 43.63C57.8924 43.63 59.5845 43.1301 60.9213 42.1305C62.2582 41.143 62.9266 39.5653 62.9266 37.3974V31.9417H62.5833C62.2582 32.5319 61.7885 33.1882 61.1742 33.9108C60.5721 34.6334 59.7411 35.2597 58.6812 35.7896C57.6214 36.3195 56.2424 36.5845 54.5443 36.5845C52.3524 36.5845 50.3772 36.0726 48.6189 35.049C46.8726 34.0132 45.4876 32.4897 44.4639 30.4784C43.4522 28.4551 42.9464 25.9681 42.9464 23.0175C42.9464 20.0668 43.4462 17.5377 44.4458 15.4301C45.4575 13.3225 46.8425 11.7086 48.6008 10.5886C50.3592 9.45649 52.3524 8.89044 54.5804 8.89044C56.3026 8.89044 57.6937 9.17949 58.7535 9.75757C59.8133 10.3236 60.6383 10.986 61.2284 11.7448C61.8306 12.5035 62.2943 13.1719 62.6195 13.75H63.0169V9.25175H68.31V37.6142C68.31 39.9988 67.756 41.9559 66.648 43.4854C65.54 45.015 64.0406 46.147 62.1498 46.8817C60.271 47.6164 58.1513 47.9837 55.7908 47.9837ZM55.7366 32.1043C57.2902 32.1043 58.603 31.743 59.6748 31.0204C60.7587 30.2857 61.5777 29.238 62.1317 27.877C62.6977 26.5041 62.9808 24.8601 62.9808 22.9452C62.9808 21.0785 62.7038 19.4345 62.1498 18.0134C61.5958 16.5923 60.7828 15.4843 59.711 14.6894C58.6391 13.8825 57.3143 13.479 55.7366 13.479C54.1107 13.479 52.7558 13.9005 51.6719 14.7436C50.588 15.5746 49.769 16.7067 49.215 18.1399C48.6731 19.573 48.4021 21.1748 48.4021 22.9452C48.4021 24.7638 48.6791 26.3596 49.2331 27.7325C49.7871 29.1055 50.6061 30.1774 51.69 30.9481C52.7859 31.7189 54.1348 32.1043 55.7366 32.1043ZM75.5542 37V9.25175H80.7751V13.6597H81.0641C81.5699 12.1663 82.4612 10.992 83.7378 10.1369C85.0264 9.26981 86.4837 8.83625 88.1096 8.83625C88.4468 8.83625 88.8442 8.84829 89.3019 8.87238C89.7716 8.89646 90.1389 8.92657 90.4038 8.9627V14.1294C90.1871 14.0692 89.8017 14.0029 89.2477 13.9307C88.6937 13.8463 88.1397 13.8042 87.5857 13.8042C86.3091 13.8042 85.1709 14.0752 84.1713 14.6171C83.1838 15.147 82.4009 15.8877 81.8228 16.8392C81.2448 17.7786 80.9557 18.8504 80.9557 20.0548V37H75.5542ZM105.773 37.56C103.171 37.56 100.901 36.9639 98.9623 35.7716C97.0233 34.5793 95.5178 32.9112 94.446 30.7675C93.3741 28.6237 92.8381 26.1187 92.8381 23.2523C92.8381 20.3739 93.3741 17.8568 94.446 15.701C95.5178 13.5453 97.0233 11.8712 98.9623 10.6789C100.901 9.4866 103.171 8.89044 105.773 8.89044C108.374 8.89044 110.644 9.4866 112.583 10.6789C114.522 11.8712 116.028 13.5453 117.1 15.701C118.172 17.8568 118.708 20.3739 118.708 23.2523C118.708 26.1187 118.172 28.6237 117.1 30.7675C116.028 32.9112 114.522 34.5793 112.583 35.7716C110.644 36.9639 108.374 37.56 105.773 37.56ZM105.791 33.0256C107.477 33.0256 108.874 32.58 109.982 31.6888C111.09 30.7976 111.909 29.6113 112.439 28.13C112.981 26.6486 113.252 25.0167 113.252 23.2343C113.252 21.4639 112.981 19.838 112.439 18.3566C111.909 16.8632 111.09 15.6649 109.982 14.7617C108.874 13.8584 107.477 13.4068 105.791 13.4068C104.093 13.4068 102.684 13.8584 101.564 14.7617C100.456 15.6649 99.6307 16.8632 99.0887 18.3566C98.5588 19.838 98.2939 21.4639 98.2939 23.2343C98.2939 25.0167 98.5588 26.6486 99.0887 28.13C99.6307 29.6113 100.456 30.7976 101.564 31.6888C102.684 32.58 104.093 33.0256 105.791 33.0256ZM129.908 37L121.743 9.25175H127.325L132.762 29.6294H133.033L138.489 9.25175H144.071L149.491 29.539H149.762L155.163 9.25175H160.745L152.598 37H147.088L141.452 16.9656H141.036L135.4 37H129.908Z" fill="white"/>
<path d="M36.89 0.00232933V37H31.4885V0.00232933H36.89Z" fill="#3ECE5D"/>
</svg>
