<svg width="50" height="50" viewBox="0 0 50 50" fill="none" xmlns="http://www.w3.org/2000/svg">
<circle cx="25" cy="25" r="25" fill="#F3FFF6"/>
<path d="M26.5088 22.6992L24.5625 24.0023C24.5625 24.0023 26.1094 25.8005 26.5556 28.2773C26.8444 29.8748 27.0713 31.2998 26.8819 32.6536C26.805 33.2067 26.2706 34.3223 26.1169 34.6973C25.9631 35.0723 25.7419 35.9555 26.4263 36.1317C27.1106 36.308 29.34 36.3755 29.6719 36.3305C30.0037 36.2855 30.3956 36.0455 30.2175 35.2448C30.1069 34.748 29.9194 33.1936 29.8088 32.1342C29.6981 31.0748 29.6306 29.0348 28.7081 26.5298C27.81 24.0923 26.5088 22.6992 26.5088 22.6992Z" fill="#DC8124"/>
<path d="M28.2991 33.4481C29.3041 33.5062 29.9416 33.3131 29.9416 33.3131L30.0784 34.3312C30.0784 34.3312 29.4634 34.5056 28.3066 34.4325C27.2959 34.3688 26.3828 34.0931 26.3828 34.0931L26.7597 33.1313C26.7578 33.1294 27.2866 33.39 28.2991 33.4481ZM26.9116 30.6863C26.9116 30.6863 26.9303 30.9694 26.9397 31.1475C26.9491 31.3275 26.9528 31.605 26.9528 31.605C26.9528 31.605 27.7122 31.6931 28.3122 31.6688C29.2947 31.6294 29.7372 31.395 29.7372 31.395C29.7372 31.395 29.7203 31.1756 29.6922 30.9169C29.6659 30.6562 29.6341 30.4425 29.6341 30.4425C29.6341 30.4425 29.1522 30.6806 28.1397 30.7463C27.4178 30.7931 26.9116 30.6863 26.9116 30.6863ZM26.5234 28.1063C26.5234 28.1063 26.9847 28.2 27.8434 28.0144C28.6778 27.8325 29.0359 27.5156 29.0359 27.5156C29.0359 27.5156 29.1147 27.7594 29.1616 27.9469C29.2047 28.1213 29.2722 28.3763 29.2722 28.3763C29.2722 28.3763 28.9347 28.7081 28.0197 28.8881C27.1216 29.0662 26.6753 28.9444 26.6753 28.9444C26.6753 28.9444 26.6322 28.7044 26.6022 28.5262C26.5666 28.3237 26.5234 28.1063 26.5234 28.1063Z" fill="#C0711F"/>
<path d="M26.0509 26.5211C26.0509 26.5211 26.4766 26.5492 27.3034 26.238C28.0253 25.9661 28.3347 25.6023 28.3347 25.6023L27.3184 23.3711L24.8828 24.2561L26.0509 26.5211Z" fill="#A2672B"/>
<path d="M26.0084 23.7827C26.0084 23.7827 27.8909 24.3846 28.7215 24.6621C29.5521 24.9396 30.214 25.0783 30.214 25.0783C30.214 25.0783 30.4746 24.5608 30.5665 24.1146C30.6284 23.8183 30.6152 23.3533 30.7427 23.3627C30.9527 23.3777 31.1046 23.7339 31.114 24.2177C31.1215 24.6339 31.0127 25.2527 31.0127 25.2527L31.8921 25.4927C31.8921 25.4927 32.119 25.1664 32.2465 24.6471C32.3796 24.1033 32.3121 23.8971 32.4452 23.8596C32.5934 23.8183 32.8727 24.0114 32.8202 24.8702C32.7884 25.3933 32.7002 25.6914 32.7265 25.7121C32.7696 25.7458 33.1934 25.9033 33.5777 26.0121C33.9621 26.1189 34.3559 26.1883 34.3559 26.1883C34.3559 26.1883 35.0515 23.0533 33.109 21.7877C30.679 20.2033 27.5552 21.6189 27.5552 21.6189L29.8446 19.8114C29.8446 19.8114 29.6796 19.4027 29.479 19.0914C29.2502 18.7352 28.9446 18.5083 29.0027 18.4277C29.0815 18.3152 29.554 18.3152 29.9571 18.6902C30.2965 19.0071 30.5534 19.3352 30.5646 19.3446L31.2377 18.8589C31.2377 18.8589 31.1721 18.4183 30.994 18.1389C30.8215 17.8671 30.559 17.6139 30.6246 17.5764C30.7634 17.4977 31.1946 17.6346 31.4665 17.8989C31.7009 18.1277 31.8902 18.4821 31.8902 18.4821L33.259 17.5446C33.259 17.5446 32.2596 15.9602 30.1521 16.0371C28.0446 16.1139 26.9065 17.4677 26.5521 17.8671C26.1977 18.2664 25.7984 19.1289 25.7984 19.1289L25.8377 16.7383C25.8377 16.7383 25.5096 16.6633 25.1946 16.6258C24.7202 16.5696 24.3902 16.6671 24.3827 16.6202C24.3584 16.4533 24.6546 16.2096 25.1215 16.1102C25.579 16.0146 25.9484 16.0708 25.9484 16.0708L26.3346 13.8358C26.3346 13.8358 25.474 13.7664 24.514 14.2221C23.8934 14.5164 23.1734 15.0264 22.6952 15.8533C21.6359 17.6814 22.6577 19.6502 22.6577 19.6502C22.6577 19.6502 21.1615 18.0939 18.6734 18.6808C15.9452 19.3239 15.2571 22.3183 15.4109 22.3183C15.8271 22.3183 17.3459 22.3896 17.4227 22.3277C17.4621 22.2977 17.5671 21.8758 17.8165 21.4952C18.064 21.1146 18.3959 20.7939 18.6677 20.7939C18.8084 20.7939 18.619 21.0771 18.4521 21.4858C18.2834 21.9021 18.1896 22.3652 18.1896 22.3652H19.5434C19.5434 22.3652 19.8284 20.9946 20.3046 20.8971C20.509 20.8558 20.3702 21.2964 20.3196 21.6339C20.2671 21.9827 20.2371 22.3671 20.2371 22.3671L21.9509 22.4214C21.9509 22.4214 19.7477 22.5546 18.2196 23.9496C16.639 25.3896 16.474 27.3921 16.6127 28.3914C16.7515 29.3908 16.8902 29.8521 16.9821 29.8989C17.074 29.9458 18.3509 28.5302 18.3977 28.4214C18.4446 28.3146 18.1971 27.8514 18.1971 27.2364C18.1971 26.6214 18.3359 26.3139 18.4577 26.2989C18.5815 26.2839 18.5496 26.7302 18.6415 27.1146C18.739 27.5177 18.8871 27.8533 18.949 27.8833C19.0109 27.9133 19.7609 26.9627 19.7609 26.9627C19.7609 26.9627 19.6334 26.6027 19.5921 26.2521C19.5509 25.9014 19.5865 25.5227 19.6877 25.4533C19.7984 25.3764 19.8921 25.7777 20.0234 26.1208C20.1284 26.3946 20.179 26.4883 20.239 26.5614L21.5965 25.2696C21.5965 25.2696 20.5015 27.0189 20.644 28.7608C20.8015 30.7089 22.1515 31.4383 22.2284 31.4214C22.3052 31.4064 23.2127 29.3289 23.2127 29.3289C23.2127 29.3289 22.8921 29.0346 22.654 28.5902C22.354 28.0296 22.3615 27.6002 22.474 27.5289C22.6315 27.4296 22.8584 28.0521 23.089 28.3296C23.3196 28.6071 23.4584 28.7608 23.5052 28.7608C23.5521 28.7608 24.2215 27.2983 24.2215 27.2983C24.2215 27.2983 24.0265 27.1839 23.8802 26.9571C23.7565 26.7658 23.6459 26.4358 23.7509 26.2371C23.8634 26.1321 23.9777 26.4039 24.1521 26.5464C24.3265 26.6889 24.4596 26.7602 24.4596 26.7602C24.4596 26.7602 25.1665 25.5452 25.444 24.9752C25.7234 24.3996 26.0084 23.7827 26.0084 23.7827Z" fill="#728137"/>
<path d="M26.451 24.5934C26.5372 24.5372 26.7116 23.369 26.7941 22.7859C26.8691 22.2609 27.0529 21.4753 26.6535 21.3984C26.3797 21.3459 26.2654 21.734 26.1754 22.1503C26.0966 22.5215 25.9804 23.0259 25.9804 23.0259C25.9804 23.0259 25.626 22.3453 25.3879 21.9309C25.2154 21.6309 24.8441 20.999 24.5479 21.1884C24.2085 21.4059 24.576 22.1015 24.7841 22.4859C24.9922 22.8703 25.2266 23.3184 25.2266 23.3184C25.2266 23.3184 24.6004 23.1047 24.2347 22.9922C23.8335 22.8684 23.2991 22.7597 23.2241 22.9753C23.0929 23.3503 23.5879 23.5378 24.5479 23.9297C25.5022 24.3178 26.3047 24.689 26.451 24.5934ZM22.7741 17.3447C22.731 18.1097 22.866 19.2234 23.4097 19.0997C23.8804 18.9947 23.3347 18.2728 23.3404 17.3597C23.3479 16.079 24.1766 15.7734 23.916 15.4978C23.7041 15.2728 22.8435 16.1015 22.7741 17.3447ZM19.6072 19.4128C20.1229 19.2965 20.4472 19.3134 20.4585 19.1897C20.4716 19.0303 20.3141 18.9178 19.6466 18.9515C19.0335 18.9815 18.4147 19.1428 17.8147 19.5497C17.4765 19.7789 17.1685 20.0498 16.8979 20.3559C16.3241 21.0159 16.2379 21.5728 16.581 21.6422C16.9354 21.7134 17.1004 21.314 17.3685 20.8884C18.0135 19.859 18.9941 19.5515 19.6072 19.4128ZM17.4004 28.8422C17.6929 28.8309 17.6835 28.5515 17.691 27.8297C17.6966 27.359 17.676 26.7478 17.8747 26.144C18.1429 25.3322 18.5572 24.8165 19.0316 24.3815C19.5529 23.9034 20.1022 23.6165 20.4116 23.4778C21.0022 23.2097 20.7266 22.9715 20.3347 23.1403C19.9447 23.309 18.6172 23.7909 17.751 25.1109C17.1866 25.9697 17.046 26.6484 17.0216 27.554C17.0047 28.2365 17.2016 28.8497 17.4004 28.8422ZM21.8779 26.0672C21.6397 26.0672 21.2029 27.194 21.2347 28.3284C21.2647 29.4628 21.6379 30.1884 21.9697 30.3215C22.2379 30.4284 22.4291 30.1453 22.3297 29.7084C22.2641 29.4234 21.9079 28.964 21.8385 28.2215C21.7691 27.4772 21.9004 26.6653 21.9379 26.4665C21.9772 26.2659 22.0372 26.0672 21.8779 26.0672Z" fill="#BDCF47"/>
</svg>
