<svg width="49" height="44" viewBox="0 0 49 44" fill="none" xmlns="http://www.w3.org/2000/svg">
<path d="M2.78182 43.3084C2.8401 43.3876 2.95155 43.4045 3.03073 43.3462L4.32117 42.3965C4.40036 42.3382 4.41731 42.2268 4.35903 42.1476C4.30075 42.0684 4.1893 42.0514 4.11012 42.1097L2.96306 42.9539L2.11884 41.8069C2.06056 41.7277 1.94912 41.7107 1.86993 41.769C1.79074 41.8273 1.77379 41.9387 1.83207 42.0179L2.78182 43.3084ZM48.4965 0.283243C46.5941 0.706091 44.7639 1.14915 43.0033 1.61445L43.0942 1.95869C44.8499 1.49469 46.6756 1.05274 48.5738 0.63082L48.4965 0.283243ZM32.2377 5.08176C28.4511 6.57024 25.0942 8.23895 22.1252 10.1237L22.316 10.4243C25.2628 8.55365 28.5988 6.89474 32.368 5.41314L32.2377 5.08176ZM13.48 17.3989C10.9957 20.2005 8.97063 23.3435 7.33751 26.8814L7.66079 27.0306C9.28028 23.5223 11.2867 20.409 13.7464 17.6351L13.48 17.3989ZM3.79104 37.6097C3.38895 39.3882 3.04327 41.2424 2.7492 43.1761L3.10121 43.2296C3.39414 41.3035 3.7383 39.4577 4.13833 37.6883L3.79104 37.6097ZM2.63844 43.4139C2.755 43.5723 2.97788 43.6062 3.13626 43.4896L5.71714 41.5901C5.87551 41.4735 5.90941 41.2507 5.79285 41.0923C5.67629 40.9339 5.4534 40.9 5.29503 41.0166L3.00091 42.705L1.31247 40.4109C1.19591 40.2525 0.973029 40.2186 0.814653 40.3352C0.656277 40.4518 0.622379 40.6746 0.738943 40.833L2.63844 43.4139ZM48.4579 0.109454C46.5534 0.532768 44.7208 0.976375 42.9578 1.44233L43.1397 2.13081C44.8929 1.66746 46.7163 1.22606 48.6124 0.804608L48.4579 0.109454ZM32.1726 4.91607C28.3772 6.40799 25.0099 8.0816 22.0298 9.97342L22.4114 10.5746C25.3471 8.711 28.6727 7.05699 32.4331 5.57883L32.1726 4.91607ZM13.3468 17.2808C10.8502 20.0963 8.8158 23.2541 7.17587 26.8068L7.82243 27.1052C9.4351 23.6116 11.4322 20.5133 13.8796 17.7533L13.3468 17.2808ZM3.61739 37.5705C3.21428 39.3535 2.86784 41.2119 2.57319 43.1493L3.27722 43.2564C3.56957 41.334 3.91297 39.4924 4.31198 37.7275L3.61739 37.5705Z" fill="#7E7B77"/>
</svg>
