<svg width="63" height="25" viewBox="0 0 63 25" fill="none" xmlns="http://www.w3.org/2000/svg">
<path d="M61.5027 24.1465C61.4854 24.2233 61.409 24.2715 61.3323 24.2541L60.081 23.971C60.0042 23.9536 59.9561 23.8773 59.9734 23.8005C59.9908 23.7237 60.0671 23.6756 60.1439 23.693L61.2561 23.9446L61.5078 22.8324C61.5251 22.7556 61.6015 22.7074 61.6782 22.7248C61.755 22.7422 61.8032 22.8185 61.7858 22.8953L61.5027 24.1465ZM0.969639 3.31385C2.42327 2.99697 3.84417 2.70799 5.23362 2.44728L5.2862 2.72748C3.89964 2.98764 2.48146 3.27606 1.03036 3.5924L0.969639 3.31385ZM13.8119 1.15698C16.8637 0.825312 19.7477 0.664042 22.4821 0.678354L22.4806 0.963433C19.7584 0.949184 16.8853 1.10973 13.8427 1.4404L13.8119 1.15698ZM31.1343 1.39476C34.1024 1.9023 36.8766 2.68216 39.4903 3.74374L39.383 4.00786C36.7896 2.95453 34.0354 2.18007 31.0862 1.67577L31.1343 1.39476ZM47.0952 7.93292C49.3806 9.56144 51.5423 11.4722 53.613 13.6731L53.4053 13.8685C51.3462 11.6797 49.1984 9.78168 46.9298 8.16509L47.0952 7.93292ZM59.074 20.4226C59.8874 21.575 60.69 22.7803 61.4843 24.039L61.2432 24.1911C60.4513 22.9363 59.6514 21.7351 58.841 20.587L59.074 20.4226ZM61.6418 24.178C61.607 24.3315 61.4544 24.4279 61.3008 24.3931L58.7983 23.827C58.6447 23.7922 58.5484 23.6396 58.5832 23.486C58.6179 23.3324 58.7706 23.2361 58.9241 23.2708L61.1486 23.7741L61.6518 21.5497C61.6866 21.3961 61.8392 21.2998 61.9928 21.3345C62.1464 21.3693 62.2427 21.5219 62.2079 21.6755L61.6418 24.178ZM0.939279 3.17458C2.39417 2.85742 3.81643 2.56817 5.20734 2.30719L5.31248 2.86757C3.92738 3.12746 2.51056 3.4156 1.06072 3.73167L0.939279 3.17458ZM13.7965 1.01528C16.8529 0.683103 19.7423 0.521471 22.4828 0.535815L22.4798 1.10597C19.7637 1.09176 16.8961 1.25194 13.8581 1.5821L13.7965 1.01528ZM31.1583 1.25426C34.1359 1.76342 36.9201 2.54597 39.5439 3.61167L39.3293 4.13993C36.7461 3.09072 34.0019 2.31895 31.0622 1.81627L31.1583 1.25426ZM47.1779 7.81684C49.4717 9.45133 51.6404 11.3684 53.7168 13.5755L53.3015 13.9661C51.2481 11.7835 49.1073 9.89179 46.8471 8.28117L47.1779 7.81684ZM59.1904 20.3404C60.0054 21.495 60.8094 22.7023 61.6048 23.9629L61.1226 24.2672C60.332 23.0143 59.5335 21.8152 58.7246 20.6692L59.1904 20.3404Z" fill="#7E7B77"/>
</svg>
