<svg width="127" height="50" viewBox="0 0 127 50" fill="none" xmlns="http://www.w3.org/2000/svg">
<path d="M125.545 49.2017C125.521 49.3094 125.413 49.377 125.306 49.3526L123.55 48.9554C123.442 48.9311 123.375 48.824 123.399 48.7162C123.424 48.6085 123.531 48.5409 123.638 48.5653L125.199 48.9184L125.552 47.3578C125.576 47.2501 125.683 47.1825 125.791 47.2069C125.899 47.2312 125.966 47.3383 125.942 47.4461L125.545 49.2017ZM0.957401 6.39834C3.33869 5.87922 5.67727 5.39649 7.97449 4.95051L8.05072 5.34318C5.75666 5.78855 3.42106 6.27066 1.0426 6.78916L0.957401 6.39834ZM22.0805 2.60756C27.0283 1.93764 31.7679 1.47068 36.3163 1.21135L36.3391 1.6107C31.8021 1.86938 27.0728 2.33525 22.1341 3.00394L22.0805 2.60756ZM50.6155 1.11354C55.5861 1.35524 60.3088 1.90227 64.8125 2.76272L64.7374 3.15561C60.2537 2.29898 55.5497 1.75394 50.5961 1.51306L50.6155 1.11354ZM78.5915 6.62598C83.0876 8.33129 87.3528 10.4299 91.4263 12.9323L91.2169 13.2731C87.1648 10.7839 82.9222 8.69635 78.4497 6.99998L78.5915 6.62598ZM102.902 21.4759C106.353 24.5295 109.672 27.9359 112.892 31.7031L112.587 31.9629C109.379 28.2085 106.073 24.8156 102.637 21.7755L102.902 21.4759ZM121.574 43.0645C122.902 44.9904 124.216 46.9857 125.519 49.0508L125.181 49.2643C123.88 47.2034 122.569 45.2127 121.245 43.2915L121.574 43.0645ZM125.74 49.2458C125.691 49.4613 125.477 49.5965 125.262 49.5477L121.75 48.7533C121.535 48.7046 121.4 48.4904 121.448 48.2749C121.497 48.0594 121.711 47.9243 121.927 47.973L125.048 48.6792L125.754 45.558C125.803 45.3426 126.017 45.2074 126.233 45.2562C126.448 45.3049 126.583 45.5191 126.534 45.7346L125.74 49.2458ZM0.914802 6.20293C3.2975 5.6835 5.63758 5.20046 7.93637 4.75417L8.08884 5.53951C5.79635 5.98458 3.46225 6.46638 1.0852 6.98457L0.914802 6.20293ZM22.0536 2.40936C27.006 1.73883 31.7508 1.27133 36.305 1.01167L36.3505 1.81038C31.8192 2.06873 27.0951 2.53406 22.161 3.20213L22.0536 2.40936ZM50.6253 0.913772C55.6043 1.15589 60.3363 1.70392 64.85 2.56627L64.6999 3.35206C60.2261 2.49733 55.5315 1.95329 50.5864 1.71283L50.6253 0.913772ZM78.6625 6.43898C83.1703 8.14876 87.4468 10.2529 91.531 12.7619L91.1122 13.4435C87.0708 10.9608 82.8395 8.87888 78.3788 7.18698L78.6625 6.43898ZM103.035 21.3262C106.493 24.3865 109.819 27.7997 113.044 31.5731L112.435 32.0928C109.233 28.3448 105.933 24.9586 102.505 21.9253L103.035 21.3262ZM121.739 42.951C123.068 44.8793 124.384 46.8768 125.688 48.9441L125.012 49.371C123.712 47.3123 122.403 45.3239 121.08 43.405L121.739 42.951Z" fill="#7E7B77"/>
</svg>
