<svg width="20" height="20" viewBox="0 0 20 20" fill="none" xmlns="http://www.w3.org/2000/svg">
<rect x="0.347222" y="0.347222" width="19.3056" height="19.3056" rx="9.65278" fill="#0088CC"/>
<path d="M14.4904 4.88372C14.4904 4.88372 15.6466 4.43283 15.5499 5.52775C15.5181 5.97864 15.2291 7.55689 15.0041 9.26371L14.2333 14.3202C14.2333 14.3202 14.169 15.061 13.5907 15.1898C13.0128 15.3184 12.1455 14.7389 11.9848 14.6101C11.8562 14.5133 9.5759 13.064 8.77293 12.3556C8.54794 12.1622 8.2908 11.7759 8.80507 11.325L12.1773 8.10421C12.5628 7.7179 12.9482 6.81613 11.3422 7.91105L6.84528 10.9705C6.84528 10.9705 6.3313 11.2929 5.36792 11.003L3.27986 10.3586C3.27986 10.3586 2.50903 9.87561 3.82598 9.39258C7.03814 7.87891 10.989 6.3331 14.4898 4.88372H14.4904Z" fill="white"/>
<rect x="0.347222" y="0.347222" width="19.3056" height="19.3056" rx="9.65278" stroke="#0088CC" stroke-width="0.694444"/>
</svg>
