<svg width="25" height="25" viewBox="0 0 25 25" fill="none" xmlns="http://www.w3.org/2000/svg">
<rect x="0.347222" y="0.347222" width="24.3056" height="24.3056" rx="12.1528" fill="#0088CC"/>
<path d="M16.9904 7.38372C16.9904 7.38372 18.1466 6.93283 18.0499 8.02775C18.0181 8.47864 17.7291 10.0569 17.5041 11.7637L16.7333 16.8202C16.7333 16.8202 16.669 17.561 16.0907 17.6898C15.5128 17.8184 14.6455 17.2389 14.4848 17.1101C14.3562 17.0133 12.0759 15.564 11.2729 14.8556C11.0479 14.6622 10.7908 14.2759 11.3051 13.825L14.6773 10.6042C15.0628 10.2179 15.4482 9.31613 13.8422 10.4111L9.34528 13.4705C9.34528 13.4705 8.8313 13.7929 7.86792 13.503L5.77986 12.8586C5.77986 12.8586 5.00903 12.3756 6.32598 11.8926C9.53814 10.3789 13.489 8.8331 16.9898 7.38372H16.9904Z" fill="white"/>
<rect x="0.347222" y="0.347222" width="24.3056" height="24.3056" rx="12.1528" stroke="#0088CC" stroke-width="0.694444"/>
</svg>
