<svg width="66" height="60" viewBox="0 0 66 60" fill="none" xmlns="http://www.w3.org/2000/svg">
<path d="M3.11685 58.7866C3.17611 58.8798 3.29972 58.9073 3.39294 58.8481L4.91189 57.8823C5.00511 57.823 5.03262 57.6994 4.97336 57.6062C4.91409 57.513 4.79049 57.4855 4.69727 57.5447L3.34709 58.4032L2.48861 57.053C2.42934 56.9598 2.30573 56.9323 2.21252 56.9916C2.11931 57.0508 2.09179 57.1744 2.15105 57.2676L3.11685 58.7866ZM64.8746 0.71399C62.3933 1.42512 60.0042 2.15563 57.7037 2.9084L57.8281 3.28856C60.1235 2.53746 62.5079 1.8084 64.9848 1.09851L64.8746 0.71399ZM43.6934 8.26571C38.8075 10.4627 34.4433 12.8447 30.545 15.4594L30.7678 15.7916C34.6447 13.1912 38.9889 10.8197 43.8574 8.63053L43.6934 8.26571ZM19.1324 25.176C15.7555 28.8643 12.9189 32.9314 10.5356 37.449L10.8894 37.6356C13.2575 33.1469 16.0747 29.1081 19.4275 25.4461L19.1324 25.176ZM4.96669 51.3646C4.27511 53.6914 3.652 56.1132 3.0904 58.6358L3.48085 58.7227C4.04061 56.2084 4.66143 53.7956 5.35011 51.4786L4.96669 51.3646ZM2.94808 58.8939C3.06661 59.0803 3.31382 59.1354 3.50024 59.0168L6.53817 57.0852C6.72459 56.9667 6.77963 56.7195 6.66109 56.5331C6.54256 56.3467 6.29535 56.2916 6.10893 56.4102L3.40855 58.1271L1.69158 55.4267C1.57305 55.2403 1.32584 55.1853 1.13942 55.3038C0.952992 55.4224 0.897958 55.6696 1.01649 55.856L2.94808 58.8939ZM64.8195 0.521731C62.3361 1.23349 59.9445 1.96471 57.6415 2.71831L57.8903 3.47864C60.1832 2.72837 62.5652 2.00003 65.0399 1.29077L64.8195 0.521731ZM43.6114 8.0833C38.7169 10.2842 34.3425 12.6715 30.4336 15.2933L30.8792 15.9577C34.7455 13.3645 39.0795 10.9983 43.9395 8.81294L43.6114 8.0833ZM18.9849 25.0409C15.596 28.7424 12.7497 32.8237 10.3587 37.3556L11.0663 37.7289C13.4268 33.2546 16.2342 29.23 19.575 25.5811L18.9849 25.0409ZM4.77498 51.3076C4.08195 53.6393 3.45769 56.0657 2.89518 58.5924L3.67606 58.7662C4.23491 56.2559 4.85458 53.8477 5.54182 51.5356L4.77498 51.3076Z" fill="#7E7B77"/>
</svg>
