<svg width="125" height="113" viewBox="0 0 125 113" fill="none" xmlns="http://www.w3.org/2000/svg">
<path d="M123.963 108.841C124.047 108.733 124.029 108.577 123.921 108.492L122.166 107.112C122.058 107.027 121.902 107.046 121.817 107.153C121.732 107.261 121.751 107.417 121.859 107.502L123.419 108.729L122.192 110.289C122.107 110.397 122.126 110.553 122.234 110.638C122.341 110.723 122.497 110.704 122.582 110.596L123.963 108.841ZM1.0672 1.03743C1.47124 3.68546 1.89298 6.27954 2.33301 8.82029L2.82201 8.7356C2.38257 6.19827 1.96137 3.60748 1.5578 0.962571L1.0672 1.03743ZM5.38585 24.2747C6.59147 29.644 7.90216 34.7344 9.32534 39.5536L9.8013 39.413C8.38155 34.6055 7.07356 29.5258 5.87007 24.166L5.38585 24.2747ZM14.4368 54.4739C16.4775 59.6162 18.6967 64.3711 21.1078 68.7523L21.5426 68.513C19.1426 64.152 16.932 59.4161 14.898 54.2908L14.4368 54.4739ZM29.802 81.9005C33.1884 86.1454 36.8663 89.8836 40.8579 93.1379L41.1715 92.7532C37.2087 89.5225 33.5555 85.8098 30.19 81.591L29.802 81.9005ZM54.1313 101.638C58.7313 103.896 63.6575 105.705 68.9306 107.087L69.0564 106.607C63.8129 105.233 58.9181 103.435 54.3501 101.192L54.1313 101.638ZM84.4499 109.841C89.433 110.355 94.6746 110.584 100.187 110.54L100.183 110.043C94.6867 110.087 89.4636 109.86 84.5009 109.347L84.4499 109.841ZM115.944 109.751C118.51 109.526 121.127 109.253 123.797 108.934L123.738 108.441C121.073 108.759 118.461 109.032 115.901 109.257L115.944 109.751ZM124.158 108.994C124.327 108.779 124.29 108.467 124.074 108.297L120.564 105.536C120.348 105.367 120.036 105.404 119.867 105.619C119.697 105.835 119.735 106.147 119.95 106.316L123.071 108.771L120.616 111.891C120.447 112.107 120.484 112.419 120.699 112.588C120.915 112.758 121.227 112.72 121.396 112.505L124.158 108.994ZM0.821894 1.07486C1.22617 3.72445 1.64818 6.32017 2.08851 8.86263L3.06652 8.69325C2.62737 6.15764 2.20643 3.56849 1.80311 0.925143L0.821894 1.07486ZM5.14373 24.3291C6.35043 29.7032 7.66246 34.7989 9.08736 39.6239L10.0393 39.3427C8.62124 34.541 7.3146 29.4666 6.11219 24.1116L5.14373 24.3291ZM14.2061 54.5654C16.2503 59.7163 18.4738 64.4807 20.8904 68.8719L21.7599 68.3933C19.3655 64.0424 17.1593 59.316 15.1287 54.1993L14.2061 54.5654ZM29.6081 82.0553C33.0049 86.3132 36.6951 90.0642 40.7011 93.3302L41.3283 92.5609C37.3799 89.3419 33.7391 85.642 30.384 81.4363L29.6081 82.0553ZM54.0219 101.86C58.6379 104.127 63.5798 105.941 68.8677 107.327L69.1193 106.367C63.8906 104.997 59.0115 103.205 54.4595 100.969L54.0219 101.86ZM84.4244 110.088C89.4177 110.603 94.6685 110.832 100.189 110.788L100.181 109.795C94.6928 109.839 89.4789 109.612 84.5263 109.1L84.4244 110.088ZM115.966 109.998C118.534 109.773 121.154 109.499 123.826 109.18L123.709 108.195C121.046 108.513 118.437 108.785 115.879 109.01L115.966 109.998Z" fill="#7E7B77"/>
</svg>
