<svg width="35" height="51" viewBox="0 0 35 51" fill="none" xmlns="http://www.w3.org/2000/svg">
<path d="M34.7064 49.4773C34.7455 49.4466 34.7523 49.3901 34.7216 49.351L34.2213 48.7145C34.1906 48.6755 34.1341 48.6687 34.095 48.6994C34.0559 48.7301 34.0492 48.7867 34.0799 48.8257L34.5245 49.3915L33.9588 49.8361C33.9197 49.8668 33.913 49.9234 33.9436 49.9624C33.9743 50.0015 34.0309 50.0083 34.07 49.9776L34.7064 49.4773ZM0.636953 0.992203C0.552788 1.95953 0.479473 2.90937 0.417163 3.84198L0.596659 3.85398C0.658885 2.92262 0.732107 1.97398 0.816172 1.0078L0.636953 0.992203ZM0.1707 9.54692C0.136139 11.5414 0.162443 13.4466 0.251575 15.2659L0.431256 15.257C0.342338 13.4422 0.316069 11.541 0.350569 9.55004L0.1707 9.54692ZM0.77593 20.9587C1.05497 22.9447 1.42998 24.8094 1.90455 26.5589L2.07818 26.5118C1.60578 24.7703 1.23219 22.913 0.954077 20.9337L0.77593 20.9587ZM3.84254 31.934C4.67233 33.7189 5.64812 35.3502 6.77582 36.8379L6.91918 36.7293C5.79963 35.2523 4.83035 33.6321 4.00567 31.8581L3.84254 31.934ZM10.7244 40.9672C12.1516 42.1564 13.7321 43.2148 15.4714 44.1525L15.5568 43.9941C13.8273 43.0617 12.2568 42.0099 10.8396 40.829L10.7244 40.9672ZM20.7025 46.45C22.4138 47.0575 24.2406 47.5862 26.1861 48.0422L26.2272 47.8671C24.2874 47.4124 22.467 46.8855 20.7627 46.2805L20.7025 46.45ZM31.804 49.1122C32.7272 49.2522 33.6724 49.3799 34.6401 49.4959L34.6615 49.3173C33.6956 49.2015 32.7522 49.074 31.831 48.9343L31.804 49.1122ZM34.762 49.548C34.8401 49.4866 34.8537 49.3735 34.7923 49.2954L33.7918 48.0225C33.7304 47.9444 33.6173 47.9308 33.5392 47.9922C33.4611 48.0536 33.4475 48.1667 33.5089 48.2448L34.3982 49.3763L33.2667 50.2657C33.1886 50.3271 33.1751 50.4402 33.2365 50.5183C33.2979 50.5964 33.411 50.6099 33.4891 50.5485L34.762 49.548ZM0.547344 0.984407C0.463129 1.95231 0.389767 2.90274 0.327415 3.83599L0.686407 3.85997C0.748591 2.92924 0.821766 1.98121 0.905781 1.01559L0.547344 0.984407ZM0.0807651 9.54536C0.0461734 11.5416 0.0724953 13.4488 0.161735 15.2703L0.521096 15.2526C0.432285 13.4399 0.406034 11.5408 0.440503 9.55159L0.0807651 9.54536ZM0.686858 20.9712C0.966357 22.9605 1.34208 24.8289 1.81774 26.5824L2.16499 26.4882C1.69368 24.7508 1.3208 22.8972 1.04315 20.9212L0.686858 20.9712ZM3.76097 31.9719C4.59332 33.7623 5.57237 35.3992 6.70414 36.8923L6.99087 36.6749C5.87539 35.2033 4.90936 33.5886 4.08723 31.8202L3.76097 31.9719ZM10.6668 41.0363C12.099 42.2296 13.6846 43.2914 15.4287 44.2317L15.5995 43.915C13.8748 42.9852 12.3094 41.9367 10.8972 40.7599L10.6668 41.0363ZM20.6724 46.5348C22.3872 47.1435 24.2173 47.6731 26.1656 48.1298L26.2477 47.7795C24.3107 47.3255 22.4936 46.7995 20.7928 46.1957L20.6724 46.5348ZM31.7905 49.2011C32.7147 49.3413 33.6609 49.4691 34.6294 49.5852L34.6722 49.228C33.7072 49.1123 32.7647 48.985 31.8445 48.8454L31.7905 49.2011Z" fill="#7E7B77"/>
</svg>
