<svg width="84" height="30" viewBox="0 0 84 30" fill="none" xmlns="http://www.w3.org/2000/svg">
<path fill-rule="evenodd" clip-rule="evenodd" d="M5.67247 0L4.25347 3.88693H23.9177L25.3367 0H5.67247ZM3.54353 5.82951L2.12452 9.71555H21.7887L23.2078 5.82951H3.54353ZM1.419 11.659L0 15.5451H19.6642L21.0823 11.659H1.419Z" fill="#009FDF"/>
<mask id="mask0_95_92" style="mask-type:alpha" maskUnits="userSpaceOnUse" x="29" y="5" width="55" height="25">
<path d="M29.5029 29.7142H83.3315V5.9043H29.5029V29.7142Z" fill="white"/>
</mask>
<g mask="url(#mask0_95_92)">
<path fill-rule="evenodd" clip-rule="evenodd" d="M41.8052 17.0263V17.1083C42.7039 17.4382 43.5623 18.015 44.0121 18.3854C45.4017 19.5389 46.0151 21.0629 46.0151 23.0402C46.0151 26.2954 44.2982 28.6431 41.4779 29.3848C40.6195 29.6318 39.7209 29.7147 38.0442 29.7147H29.5029V5.9043H37.0642C38.6174 5.9043 39.6797 5.98631 40.6195 6.23324C43.3584 6.97495 45.1566 8.87023 45.1566 11.8767C45.1566 13.4836 44.5844 14.8436 43.6446 15.7493C43.2359 16.1612 42.6636 16.6559 41.8052 17.0263ZM34.2439 19.5389V25.8007H37.514C38.494 25.8007 39.3936 25.7187 40.0481 25.1004C40.7018 24.4822 40.9879 23.6999 40.9879 22.6698C40.9879 21.8875 40.7832 21.1458 40.3745 20.6105C39.6797 19.7453 38.8213 19.5389 37.3504 19.5389H34.2439ZM34.2028 15.4194H36.8594C37.6767 15.4194 38.0854 15.4194 38.494 15.296C39.5984 14.9661 40.2931 13.9784 40.2931 12.6184C40.2931 11.0124 39.5572 10.3113 38.494 9.98235C38.0442 9.85888 37.5954 9.81742 36.6958 9.81742H34.2028V15.4194ZM53.1266 29.7147V9.89943H46.3012V5.9043H65.2661L63.9177 9.89943H57.8676V29.7147H53.1266ZM66.7371 29.7147V5.9043H82.1055L80.7571 9.89943H71.4378V15.1725H75.239C78.3043 15.1725 79.8987 15.9142 81.0021 16.8614C81.8605 17.6031 83.3315 19.2506 83.3315 22.5058C83.3315 25.7187 81.8194 27.4896 80.5523 28.3962C79.0814 29.4254 77.5282 29.7147 74.3806 29.7147H66.7371ZM71.4378 25.7187H74.994C76.3425 25.7187 77.1598 25.3888 77.732 24.6471C78.0182 24.2767 78.4268 23.617 78.4268 22.3814C78.4268 21.1458 78.0182 20.2807 77.2009 19.6624C76.7109 19.292 76.0563 19.0865 74.9529 19.0865H71.4378V25.7187Z" fill="#0A2973"/>
</g>
</svg>
