<svg width="24" height="24" viewBox="0 0 24 24" fill="none" xmlns="http://www.w3.org/2000/svg">
<path d="M12.4535 16.4036C11.9897 16.3719 11.4549 16.2885 11.033 16.1633C10.954 16.1398 10.6268 16.0165 10.5436 15.9774C9.07501 15.2799 8.05192 13.7575 8.05192 11.9912C8.05192 9.56857 9.97442 7.59525 12.339 7.59525C14.6826 7.59525 16.5921 9.53491 16.6249 11.9301H18.1737C18.1409 8.6598 15.5369 6.00939 12.339 6.00939C9.12197 6.00939 6.50353 8.69228 6.50353 11.9912C6.50353 14.2655 7.7511 16.2435 9.57778 17.254C9.90762 17.4329 10.381 17.6172 10.5417 17.6677C11.0624 17.8266 11.7015 17.9323 12.2703 17.9765C12.4634 17.9914 13.138 17.9992 13.3346 18H24V16.4184H13.3525C13.2109 16.4184 12.5921 16.413 12.4535 16.4036ZM13.3525 13.9203C13.2399 13.9203 12.6509 13.9164 12.5421 13.907C12.3577 13.8909 12.0905 13.8628 11.9187 13.8224C11.7248 13.7692 11.5427 13.6988 11.4606 13.6526C10.8853 13.3336 10.4932 12.7098 10.4932 11.9912C10.4932 10.9458 11.319 10.0981 12.339 10.0981C13.3377 10.0981 14.1496 10.9126 14.1821 11.9301H15.6702C15.6389 10.0711 14.1607 8.57291 12.339 8.57291C10.497 8.57291 9.00401 10.1032 9.00401 11.9912C9.00401 13.3227 9.74843 14.4725 10.8326 15.0357C10.9994 15.1359 11.3132 15.2408 11.4026 15.2647C11.7087 15.3472 12.1199 15.4036 12.4535 15.4287C12.5768 15.4392 13.1808 15.4439 13.3083 15.4447V15.4471H23.9996V13.9203H13.3525ZM5.54915 17.9941H3.99007V7.59877H1.71178V6H5.54915V17.9941ZM0 8.39757V9.9349H1.71178V17.9941H3.20977V8.39757H0Z" fill="#D91920"/>
<path d="M21.2451 6.11142C20.6835 6.11142 20.2178 6.5705 20.2178 7.14661C20.2178 7.72272 20.6835 8.2002 21.2451 8.2002C21.8238 8.2002 22.2716 7.72272 22.2716 7.14661C22.2716 6.5705 21.8238 6.11142 21.2451 6.11142ZM21.2451 8.03034C20.7812 8.03034 20.3815 7.65657 20.3815 7.14661C20.3815 6.66248 20.7812 6.27932 21.2451 6.27932C21.7085 6.27932 22.1063 6.66248 22.1063 7.14661C22.1063 7.65657 21.7085 8.03034 21.2451 8.03034Z" fill="#D91920"/>
<path d="M21.6362 7.43041C21.6362 7.31417 21.6194 7.20615 21.4896 7.16349C21.6523 7.10557 21.6683 6.99637 21.6683 6.93023C21.6683 6.66292 21.4316 6.62887 21.3343 6.62887H20.8865V7.66406H21.0732V7.23942H21.2201C21.4316 7.23942 21.4492 7.33922 21.4492 7.43041C21.4492 7.60692 21.4492 7.64019 21.4896 7.66406H21.6767C21.6362 7.62218 21.6523 7.5897 21.6362 7.43041ZM21.2934 7.08835H21.0732V6.76233H21.2617C21.3923 6.76233 21.4809 6.8046 21.4809 6.93023C21.4809 6.99637 21.4492 7.08835 21.2934 7.08835Z" fill="#D91920"/>
</svg>
