<svg width="100" height="24" viewBox="0 0 100 24" fill="none" xmlns="http://www.w3.org/2000/svg">
<path d="M68.299 16.2522H77.3711V14.2174H71.3918C72.2165 10.8783 77.268 10.1478 77.268 6.44348C77.268 4.46087 75.9278 3 73.0928 3C71.3402 3 69.7938 3.52174 68.7629 4.04348L69.3815 5.92174C70.3093 5.45217 71.3918 5.03478 72.732 5.03478C73.7629 5.03478 74.7423 5.50435 74.7423 6.70435C74.7423 9.41739 68.8144 9.62609 68.299 16.2522ZM77.6289 13.0174H83.4536V16.2522H85.7732V13.0174H87.732V11.0348H85.7732V3H84.0722L77.6289 11.4522V13.0174ZM80.2577 11.1391L83.5567 6.65217C83.5567 7.01739 83.4536 8.16522 83.4536 9.20869V11.087H81.9072C81.4433 11.087 80.567 11.1391 80.2577 11.1391Z" fill="#005893"/>
<path d="M2.42268 14.2696V10.1478H3.40206C4.27835 10.1478 5 10.2522 5.51546 10.5652C6.03093 10.8783 6.34021 11.4 6.34021 12.2348C6.34021 13.6435 5.51546 14.2696 3.5567 14.2696H2.42268ZM3.50515 16.2522C7.37113 16.2522 8.76289 14.5304 8.76289 12.1304C8.76289 10.513 8.09278 9.41739 6.90722 8.79131C5.97938 8.26957 4.79381 8.11305 3.35052 8.11305H2.42268V4.98261H7.62887L8.24742 3.05218H0V16.2522H3.50515ZM10.3608 16.2522H12.6289L15.567 11.9739C16.134 11.1913 16.5464 10.4087 16.8041 9.99131H16.8557C16.8041 10.5652 16.7526 11.2957 16.7526 12.0261V16.2H19.0722V6.8087H16.8041L13.866 11.087C13.3505 11.8696 12.8866 12.6522 12.6289 13.0696H12.5773C12.6289 12.4957 12.6804 11.7652 12.6804 11.0348V6.86087H10.3608V16.2522ZM23.0412 16.2522H25.4124V8.79131H28.1959L28.8144 6.8087H20.2062V8.79131H23.0412V16.2522ZM31.9588 21V16.2522C32.4227 16.4087 32.8866 16.4609 33.4021 16.4609C36.3402 16.4609 38.2474 14.4261 38.2474 11.5043C38.2474 8.47826 36.4949 6.54783 33.1443 6.54783C31.8557 6.54783 30.6186 6.8087 29.5876 7.12174V21H31.9588ZM31.9588 14.2174V8.68696C32.3196 8.58261 32.6289 8.53044 33.0412 8.53044C34.7423 8.53044 35.8247 9.46957 35.8247 11.5043C35.8247 13.3304 34.9485 14.4783 33.1959 14.4783C32.732 14.4783 32.3711 14.3739 31.9588 14.2174ZM39.6392 16.2522H41.9072L44.8454 11.9739C45.4124 11.1913 45.8247 10.4087 46.0825 9.99131H46.134C46.0825 10.5652 46.0309 11.2957 46.0309 12.0261V16.2H48.3505V6.8087H46.0825L43.1443 11.087C42.6289 11.8696 42.165 12.6522 41.9072 13.0696H41.8557C41.9072 12.4957 41.9588 11.7652 41.9588 11.0348V6.86087H39.6392V16.2522ZM50.2062 16.2522H52.5773V12.3391H53.9691C54.2268 12.3391 54.4845 12.6 54.7938 13.2261L55.9794 16.2522H58.5052L56.8041 12.6522C56.4948 12.0261 56.1856 11.6609 55.7216 11.5043V11.4522C56.4948 10.9826 56.5979 9.62609 57.0619 8.94783C57.2165 8.73913 57.4227 8.63478 57.732 8.63478C57.8866 8.63478 58.0928 8.63478 58.2474 8.73913V6.70435C57.9897 6.6 57.5258 6.54783 57.268 6.54783C56.4433 6.54783 55.9278 6.86087 55.567 7.38261C54.7938 8.53044 54.7938 10.513 53.6598 10.513H52.5773V6.8087H50.2062V16.2522ZM63.7629 16.4609C65.0516 16.4609 66.2371 16.0435 66.9588 15.5217L66.2887 13.9043C65.6186 14.2696 65 14.5304 64.1237 14.5304C62.5258 14.5304 61.4949 13.487 61.4949 11.5565C61.4949 9.83478 62.5258 8.47826 64.2784 8.47826C65.2062 8.47826 65.8763 8.73913 66.5464 9.2087V7.17392C66.0309 6.86087 65.2062 6.54783 64.0206 6.54783C61.2371 6.54783 59.0722 8.63478 59.0722 11.6087C59.0722 14.3217 60.7217 16.4609 63.7629 16.4609Z" fill="#0BBBEF"/>
<path d="M98.299 8.37391H95.7732V5.81739H95.1031V9.05217H98.299V8.37391Z" fill="#005893"/>
</svg>
