<svg width="24" height="24" viewBox="0 0 24 24" fill="none" xmlns="http://www.w3.org/2000/svg">
<g clip-path="url(#clip0_643_735)">
<path d="M22.9646 7.09998C22.9645 6.69748 22.8797 6.34181 22.7084 6.03656C22.5401 5.73639 22.288 5.48481 21.9498 5.2859C19.1587 3.65098 16.3649 2.02106 13.5747 0.38448C12.8225 -0.0566864 12.0931 -0.0406036 11.3465 0.406897C10.2355 1.07248 4.6734 4.30973 3.01596 5.28498C2.33337 5.6864 2.00123 6.30073 2.00107 7.09923C2 10.3871 2.00107 13.675 2 16.963C2 17.3566 2.08129 17.7054 2.24511 18.0061C2.41352 18.3153 2.66913 18.5738 3.01505 18.7772C4.67258 19.7525 10.2354 22.9895 11.3461 23.6552C12.0931 24.103 12.8225 24.119 13.5749 23.6776C16.3652 22.041 19.1592 20.4111 21.9507 18.7762C22.2967 18.5729 22.5523 18.3142 22.7207 18.0052C22.8843 17.7046 22.9657 17.3558 22.9657 16.9621C22.9657 16.9621 22.9657 10.388 22.9646 7.09998Z" fill="#A179DC"/>
<path d="M12.5149 11.9991L2.24511 18.0061C2.41352 18.3153 2.66913 18.5738 3.01505 18.7772C4.67258 19.7525 10.2354 22.9895 11.3461 23.6552C12.0931 24.103 12.8225 24.119 13.5749 23.6776C16.3652 22.041 19.1592 20.4111 21.9507 18.7762C22.2967 18.5729 22.5523 18.3142 22.7207 18.0052L12.5149 11.9991Z" fill="#280068"/>
<path d="M22.9646 7.09998C22.9645 6.69748 22.8797 6.34181 22.7084 6.03656L12.5149 11.9991L22.7207 18.0052C22.8843 17.7046 22.9657 17.3558 22.9657 16.9621C22.9657 16.9621 22.9657 10.388 22.9646 7.09998Z" fill="#390091"/>
<path d="M18.5615 9.75345V10.8763H19.6667V9.75345H20.2194V10.8763H21.3246V11.4377H20.2194V12.5605H21.3246V13.1219H20.2194V14.2447H19.6667V13.1219H18.5615V14.2447H18.0088V13.1219H16.9036V12.5605H18.0088V11.4377H16.9036V10.8763H18.0088V9.75345H18.5615ZM19.6667 11.4377H18.5615V12.5605H19.6667V11.4377Z" fill="white"/>
<path d="M12.5375 4.11444C15.4204 4.11444 17.9374 5.70496 19.2855 8.06911L19.2724 8.04635L15.8805 10.0304C15.2122 8.88091 13.9871 8.1052 12.5817 8.08923L12.5375 8.08898C10.3944 8.08898 8.65689 9.85393 8.65689 12.0311C8.65689 12.743 8.84374 13.4104 9.16868 13.9868C9.83757 15.1731 11.095 15.9732 12.5375 15.9732C13.9888 15.9732 15.2534 15.1629 15.9189 13.964L15.9028 13.9928L19.2895 15.9859C17.9562 18.3301 15.4737 19.9157 12.6243 19.9473L12.5375 19.9478C9.64549 19.9478 7.12133 18.3475 5.77657 15.9708C5.12008 14.8106 4.74445 13.4654 4.74445 12.0311C4.74445 7.65889 8.23343 4.11444 12.5375 4.11444Z" fill="white"/>
</g>
<defs>
<clipPath id="clip0_643_735">
<rect width="24" height="24" fill="white"/>
</clipPath>
</defs>
</svg>
