<svg width="24" height="24" viewBox="0 0 24 24" fill="none" xmlns="http://www.w3.org/2000/svg">
<path d="M3.65093 3.36998C8.39272 -1.23231 15.9746 -1.10859 20.5682 3.6669C21.0869 2.97408 21.5314 2.20703 21.8525 1.41524C23.359 6.01753 24.2727 9.87751 23.927 12.8715C23.7541 15.3953 22.7662 17.8202 21.1363 19.7502C16.8884 24.7978 9.33119 25.4412 4.29305 21.1853L4.19619 21.099L4.17945 21.0874C4.1678 21.0791 4.15627 21.0704 4.14487 21.0616C4.09927 21.026 4.05784 20.9874 4.02056 20.9461L4.00708 20.9306L3.84851 20.7894C3.70033 20.6621 3.55215 20.5349 3.41952 20.392L3.35457 20.3193C-1.23903 15.5685 -1.09085 7.97226 3.65093 3.36998ZM5.4291 19.478C4.98456 19.1316 4.34244 19.1811 3.99669 19.6264C3.69526 20.0147 3.69416 20.5535 3.99338 20.9147L4.00708 20.9306L4.19619 21.099L4.21475 21.1117C4.6426 21.394 5.21722 21.339 5.55011 20.9466L5.57728 20.9131C5.92304 20.4677 5.84895 19.8244 5.4291 19.478ZM21.729 2.65241C20.4941 5.25048 17.4317 7.22996 14.7892 7.84855C13.7711 8.09093 12.8064 8.15194 11.8651 8.19982L11.5833 8.21396C10.3184 8.27734 9.09027 8.34746 7.82469 8.83829C2.58897 10.8425 2.68776 17.0779 5.55259 18.4882L5.72546 18.5872C5.72546 18.5872 7.62123 18.2096 9.57809 17.6999L9.75345 17.6539C9.78268 17.6461 9.81192 17.6384 9.84116 17.6306L10.0165 17.5836C10.8338 17.3629 11.6379 17.1224 12.2948 16.8799C15.703 15.618 19.4569 12.5003 20.6917 8.88777C20.0496 12.6488 16.8143 16.2861 13.579 17.9439C11.8503 18.8347 10.5166 19.0326 7.67651 20.0223C7.33075 20.1461 7.05909 20.2698 7.05909 20.2698C7.07537 20.2675 7.09164 20.2653 7.10791 20.2631L7.20536 20.2502L7.3022 20.238C7.92882 20.1602 8.4915 20.1213 8.4915 20.1213C12.5171 19.9234 18.8395 21.2595 21.7784 17.3253C24.7914 13.3169 23.112 6.83406 21.729 2.65241Z" fill="#6DB33F"/>
<path d="M5.4291 19.478C5.84895 19.8244 5.92304 20.4677 5.57728 20.9131C5.23153 21.3585 4.58941 21.408 4.14487 21.0616C3.70033 20.7152 3.65093 20.0718 3.99669 19.6264C4.34244 19.1811 4.98456 19.1316 5.4291 19.478ZM21.729 2.65241C23.112 6.83406 24.7914 13.3169 21.7784 17.3253C18.8395 21.2595 12.5171 19.9234 8.4915 20.1213C8.4915 20.1213 7.7753 20.1708 7.05909 20.2698C7.05909 20.2698 7.33075 20.1461 7.67651 20.0223C10.5166 19.0326 11.8503 18.8347 13.579 17.9439C16.8143 16.2861 20.0496 12.6488 20.6917 8.88777C19.4569 12.5003 15.703 15.618 12.2948 16.8799C11.6848 17.1051 10.9481 17.3285 10.1916 17.536L10.0165 17.5836C7.91474 18.1511 5.72546 18.5872 5.72546 18.5872L5.55259 18.4882C2.68776 17.0779 2.58897 10.8425 7.82469 8.83829C10.1215 7.94752 12.2948 8.44239 14.7892 7.84855C17.4317 7.22996 20.4941 5.25048 21.729 2.65241Z" fill="white"/>
</svg>
