<svg width="24" height="24" viewBox="0 0 24 24" fill="none" xmlns="http://www.w3.org/2000/svg">
<path fill-rule="evenodd" clip-rule="evenodd" d="M23.2053 4.21916C22.8437 4.23071 22.958 4.33491 22.1766 4.52721C21.3875 4.7214 20.4237 4.66185 19.574 5.01821C17.0374 6.082 16.5285 9.71785 14.2225 11.0203C12.4989 11.9939 10.7599 12.0715 9.19639 12.5615C8.16891 12.8837 7.04494 13.5444 6.11402 14.3466C5.39143 14.9696 5.37256 15.5173 4.61757 16.2985C3.81001 17.1342 1.40797 16.3127 0.319336 17.5917C0.670026 17.9463 0.823772 18.0456 1.51487 17.9536C1.37179 18.2248 0.528343 18.4533 0.693449 18.8523C0.867175 19.272 2.90627 19.5566 4.75989 18.4375C5.62315 17.9163 6.31074 17.1651 7.6552 16.9858C9.39499 16.7539 11.3992 17.1345 13.4133 17.4249C13.1146 18.3154 12.5151 18.9076 12.0348 19.6168C11.886 19.7769 12.3335 19.7949 12.844 19.6981C13.7623 19.471 14.4241 19.2882 15.1171 18.8848C15.9685 18.3891 16.0976 17.1184 17.1422 16.8434C17.7243 17.7381 19.3073 17.9494 20.2896 17.2338C19.4277 16.9898 19.1895 15.1551 19.4804 14.3466C19.756 13.5814 20.0284 12.3572 20.3059 11.3456C20.6039 10.2592 20.7138 8.88984 21.0745 8.33643C21.6171 7.50382 22.2166 7.2179 22.7371 6.7484C23.2576 6.2789 23.734 5.82187 23.7184 4.74756C23.7133 4.40153 23.5344 4.20864 23.2053 4.21916Z" fill="#002B64"/>
<path d="M4.25079 18.3159C3.19078 18.7756 2.38803 18.9647 1.06803 18.7756C0.994157 18.6761 1.17308 18.5638 1.39051 18.4274C1.66637 18.2544 2.00421 18.0424 1.96629 17.7683C1.78052 17.7477 1.62277 17.7508 1.47603 17.7536C1.21469 17.7586 0.988266 17.763 0.700684 17.6323C0.750262 17.541 0.823132 17.4648 0.914871 17.4015C1.31625 17.1236 2.07789 17.0848 2.82551 17.0467C3.61093 17.0066 4.38088 16.9673 4.70142 16.6526C5.04822 16.3123 5.2879 15.9578 5.52315 15.6098C5.54988 15.5703 5.57655 15.5308 5.60332 15.4915C5.85772 15.1174 6.1207 14.7537 6.52136 14.4259C6.66931 14.3048 6.83015 14.1853 7.00088 14.0685C7.68365 13.6013 8.5283 13.1774 9.35954 12.8853C9.89089 12.6985 10.4256 12.5922 10.9681 12.4842C11.5819 12.3621 12.2057 12.2381 12.8463 11.9933C13.5919 11.7083 14.4027 11.3563 15.0636 10.8638C15.2206 10.7467 15.369 10.6219 15.5063 10.4881C16.1715 9.83963 16.6488 9.01652 17.1168 8.20921C17.9766 6.72622 18.8055 5.29657 20.712 5.10076C20.9627 5.07501 21.1814 5.07326 21.3815 5.07167C21.4656 5.071 21.5464 5.07035 21.6249 5.06797C21.9307 5.05886 22.2013 5.02333 22.4957 4.85742C22.5826 5.15372 22.7186 5.2897 23.3065 5.34409C23.2206 6.08946 22.7234 6.49714 22.1659 6.8883C22.1083 6.92873 22.05 6.96898 21.9914 7.0094C21.5517 7.31306 21.0973 7.6268 20.7926 8.10108C20.5945 8.40931 20.4369 9.13556 20.2403 10.0417C20.0857 10.7541 19.907 11.5776 19.6655 12.3967C19.1914 14.0045 18.4753 15.5943 17.2248 16.2908C17.1718 16.1574 17.1645 15.9783 17.1573 15.7991C17.1466 15.5366 17.136 15.2742 16.9816 15.1556C16.8134 15.6351 16.6233 16.0927 16.4007 16.5179C15.6669 17.9204 14.5805 18.9705 12.7649 19.2912C13.6264 18.1255 14.4501 16.9217 14.4679 14.9125C14.1542 14.9804 14.0063 15.3965 13.8503 15.8354C13.7048 16.2447 13.5522 16.6738 13.2516 16.8586C12.8523 16.902 12.4477 16.9018 12.0405 16.8773C11.5604 16.8485 11.0767 16.7866 10.594 16.7248C9.39576 16.5713 8.20391 16.4187 7.08884 16.7765C6.47641 16.973 5.92812 17.3232 5.40124 17.6597C5.01182 17.9084 4.63409 18.1496 4.25079 18.3159Z" fill="white"/>
<path d="M19.5561 17.1934C19.2679 16.9222 18.9414 15.8064 18.9062 15.244C18.835 15.3194 18.7495 15.4019 18.6578 15.4906C18.3099 15.8268 17.8711 16.2508 17.7697 16.7057C18.0192 17.1039 18.9916 17.3307 19.5561 17.1934Z" fill="white"/>
<path d="M22.3348 5.1441C22.1578 5.33109 21.5799 5.95088 21.3977 6.51407C21.3655 6.61036 21.2714 6.6533 21.3186 6.50366C21.5024 5.95504 22.0084 5.36414 22.2645 5.10181C22.3776 4.99679 22.4039 5.06381 22.3348 5.1441Z" fill="#002B64"/>
<path d="M21.6905 6.55298C21.7722 6.08293 22.1028 5.67608 22.306 5.42589C22.355 5.36558 22.3967 5.31437 22.4256 5.27358C22.4827 5.18444 22.4472 5.12185 22.3501 5.2417C22.3135 5.29172 22.2711 5.34607 22.2254 5.40461C22.0011 5.69223 21.6979 6.08095 21.6107 6.55376C21.5851 6.70848 21.6723 6.65279 21.6905 6.55298Z" fill="#002B64"/>
<path d="M22.4568 5.50301C22.4835 5.46103 22.5076 5.42324 22.5274 5.38965C22.5771 5.29609 22.5363 5.23675 22.4497 5.36414C22.4329 5.39156 22.4158 5.41934 22.3983 5.4476C22.2161 5.74209 22.002 6.08809 21.9502 6.61336C21.9378 6.76964 22.02 6.70705 22.0296 6.60594C22.0738 6.1055 22.3072 5.73831 22.4568 5.50301Z" fill="#002B64"/>
<path d="M22.5817 5.59027C22.4678 5.80904 22.3159 6.10074 22.3159 6.60151C22.315 6.70314 22.2387 6.77276 22.2374 6.61608C22.2427 6.08824 22.3706 5.8338 22.5165 5.54362C22.5305 5.51575 22.5447 5.48755 22.559 5.45874C22.6346 5.32406 22.6801 5.37963 22.639 5.47722C22.6219 5.51303 22.6024 5.55045 22.5817 5.59027Z" fill="#002B64"/>
<path d="M19.7332 6.31862C20.1499 6.6805 21.0245 6.39006 20.8682 5.67007C20.2206 5.61646 19.8455 5.83624 19.7332 6.31862Z" fill="#002B64"/>
</svg>
