<svg width="24" height="24" viewBox="0 0 24 24" fill="none" xmlns="http://www.w3.org/2000/svg">
<g clip-path="url(#clip0_950_1742)">
<path fill-rule="evenodd" clip-rule="evenodd" d="M83.4364 9.92523C83.3625 9.94045 83.2886 10.1077 83.2886 10.1988C83.2737 10.8068 83.2589 12.418 83.2589 13.5123C83.2589 13.5428 83.3032 13.6035 83.3477 13.6035C83.5696 13.6187 84.1023 13.6339 84.561 13.6339C85.1972 13.6339 85.5671 13.5428 85.7744 13.4516C86.3069 13.178 86.5585 12.5851 86.5585 11.9315C86.5585 10.4572 85.5523 9.8948 84.0579 9.8948C83.9543 9.87973 83.6585 9.87973 83.4364 9.92523ZM87.254 16.7194C87.254 15.2147 86.1738 14.3787 84.2207 14.3787C84.1319 14.3787 83.5105 14.3635 83.3625 14.3939C83.318 14.4091 83.2589 14.4395 83.2589 14.4852C83.2589 15.5643 83.2441 17.2819 83.2886 17.9505C83.318 18.2394 83.5253 18.6498 83.7768 18.7714C84.0431 18.9234 84.6498 18.9537 85.064 18.9537C86.233 18.9537 87.254 18.285 87.254 16.7194ZM80.418 9.08933C80.5659 9.08933 81.0099 9.13483 82.1492 9.13483C83.2293 9.13483 84.0875 9.10454 85.1381 9.10454C86.4253 9.10454 88.2009 9.57568 88.2009 11.5515C88.2009 12.5244 87.535 13.2996 86.662 13.6796C86.6177 13.6948 86.6177 13.7251 86.662 13.7403C87.9049 14.0596 89 14.85 89 16.3395C89 17.7987 88.1122 18.7257 86.8248 19.3034C86.0406 19.6529 85.064 19.7745 84.0727 19.7745C83.318 19.7745 81.291 19.6834 80.1665 19.7138C80.0481 19.6682 80.27 19.1209 80.3736 19.0298C80.6399 19.0146 80.8471 18.9993 81.1282 18.9082C81.5278 18.8018 81.5721 18.6802 81.6313 18.0571C81.6609 17.5251 81.6609 15.6402 81.6609 14.3027C81.6609 12.4635 81.6757 11.2172 81.6609 10.6093C81.6461 10.1381 81.4833 9.9861 81.1578 9.8948C80.9063 9.84929 80.492 9.78843 80.1517 9.74292C80.0776 9.66684 80.3292 9.15005 80.418 9.08933ZM71.8804 18.5434C72.2356 18.8321 72.931 18.9537 73.5524 18.9537C74.3515 18.9537 75.1504 18.8018 75.9199 18.0874C76.7041 17.3578 77.2515 16.2331 77.2515 14.4395C77.2515 12.7219 76.6152 11.3236 75.3132 10.5029C74.5734 10.0316 73.6264 9.83408 72.5314 9.83408C72.206 9.83408 71.8952 9.84929 71.7029 9.94045C71.6584 9.97088 71.5549 10.1077 71.5549 10.1836C71.5253 10.4877 71.5253 12.8283 71.5253 14.1964C71.5253 15.6099 71.5253 17.5858 71.5549 17.8137C71.5549 18.0418 71.6584 18.3914 71.8804 18.5434ZM68.5215 9.08933C68.8027 9.08933 69.8828 9.13483 70.4007 9.13483C71.333 9.13483 71.9987 9.08933 73.7595 9.08933C75.2392 9.08933 76.4821 9.49974 77.3699 10.2748C78.45 11.2324 79.0123 12.5548 79.0123 14.1659C79.0123 16.461 77.9913 17.7835 76.9703 18.5434C75.9495 19.3186 74.6177 19.7745 72.7239 19.7745C71.7177 19.7745 69.9865 19.7441 68.5512 19.7289H68.5364C68.4624 19.5922 68.6547 19.0602 68.7731 19.045C69.1578 18.9993 69.2614 18.9841 69.4538 18.9082C69.7645 18.7866 69.8237 18.6194 69.8681 18.0571C69.9124 17.0083 69.8976 15.7467 69.8976 14.3179C69.8976 13.2996 69.9124 11.3084 69.8828 10.67C69.8385 10.1381 69.6166 10.0013 69.1726 9.91002C68.9507 9.86451 68.6547 9.80364 68.2405 9.75814C68.1813 9.65162 68.4476 9.18048 68.5215 9.08933Z" fill="#8E714E"/>
<path fill-rule="evenodd" clip-rule="evenodd" d="M50.6179 19.1361C50.248 19.0905 49.9817 19.0298 49.656 18.8778C49.6117 18.8473 49.5377 18.6954 49.5377 18.6346C49.5081 18.1026 49.5081 16.5826 49.5081 15.5643C49.5081 14.7434 49.375 14.0291 49.0346 13.5275C48.6351 12.9499 48.058 12.6156 47.3182 12.6156C46.6671 12.6156 45.7942 13.0716 45.0691 13.71C45.0543 13.7251 44.936 13.8316 44.9508 13.6643C44.9508 13.4971 44.9804 13.1628 44.9952 12.9348C45.01 12.7219 44.8917 12.6156 44.8917 12.6156C44.4181 12.8587 43.0864 13.178 42.5981 13.2235C42.243 13.2996 42.1543 13.6491 42.5242 13.7707H42.539C42.9384 13.8923 43.2048 14.0291 43.4119 14.1659C43.5599 14.2875 43.5451 14.4548 43.5451 14.5916C43.5599 15.7315 43.5599 17.4794 43.5156 18.437C43.5008 18.817 43.3972 18.9537 43.1309 19.0146L43.1603 18.9993C42.9532 19.045 42.7904 19.0905 42.5389 19.1209C42.4502 19.2121 42.4502 19.6986 42.5389 19.805C42.7017 19.805 43.5599 19.7593 44.2702 19.7593C45.2468 19.7593 45.7498 19.805 46.0014 19.805C46.1049 19.6834 46.1346 19.2273 46.0753 19.1209C45.7942 19.1057 45.587 19.0754 45.3948 19.0146C45.1284 18.9537 45.0543 18.817 45.0395 18.4978C45.01 17.6922 45.01 15.9899 45.01 14.8347C45.01 14.5155 45.0988 14.3635 45.1875 14.2723C45.5278 13.9684 46.0753 13.7555 46.5636 13.7555C47.0371 13.7555 47.3479 13.9075 47.5846 14.1052C47.91 14.3787 48.0136 14.7739 48.058 15.0627C48.132 15.7163 48.1025 17.0083 48.1025 18.133C48.1025 18.7409 48.058 18.893 47.8361 18.9689C47.7326 19.0146 47.4662 19.0754 47.1554 19.1057C47.0519 19.2121 47.0815 19.6834 47.1554 19.7897C47.5846 19.7897 48.0877 19.7441 48.8275 19.7441C49.7448 19.7441 50.3368 19.7897 50.5735 19.7897C50.6474 19.6986 50.6772 19.2577 50.6179 19.1361ZM54.7165 13.33C53.9323 13.33 53.444 13.9532 53.444 14.9259C53.444 15.9138 53.873 17.0538 55.0865 17.0538C55.2936 17.0538 55.6783 16.9626 55.8558 16.7499C56.1369 16.4763 56.3294 15.929 56.3294 15.3515C56.3294 14.09 55.7226 13.33 54.7165 13.33ZM54.6129 20.0481C54.317 20.0481 54.1098 20.1393 53.9767 20.2154C53.3551 20.6257 53.0741 21.0209 53.0741 21.4921C53.0741 21.9328 53.2368 22.2824 53.592 22.5864C54.021 22.9664 54.6129 23.1489 55.3675 23.1489C56.8767 23.1489 57.5426 22.3128 57.5426 21.4921C57.5426 20.9145 57.2615 20.5345 56.6845 20.3218C56.2701 20.1393 55.5155 20.0481 54.6129 20.0481ZM54.7165 24C53.8139 24 53.1628 23.8023 52.6006 23.3616C52.0531 22.936 51.8164 22.2976 51.8164 21.8569C51.8164 21.7353 51.846 21.4008 52.1124 21.0969C52.275 20.9145 52.6301 20.5649 53.4736 19.9722C53.5031 19.957 53.5179 19.9418 53.5179 19.9113C53.5179 19.8809 53.4883 19.8505 53.4588 19.8354C52.7633 19.5618 52.5562 19.1209 52.497 18.8778V18.8473C52.4823 18.7562 52.4526 18.665 52.5858 18.5737C52.6894 18.4978 52.8374 18.4066 53 18.3002C53.2516 18.1482 53.5179 17.981 53.6807 17.8442C53.7104 17.8137 53.7104 17.7835 53.7104 17.753C53.7104 17.7226 53.6807 17.6922 53.6511 17.6771C52.6155 17.3274 52.0976 16.537 52.0976 15.3515C52.0976 14.5763 52.4378 13.8771 53.0445 13.4364C53.4588 13.1019 54.4945 12.6916 55.1752 12.6916H55.2196C55.915 12.7067 56.2997 12.8587 56.8471 13.0564C57.1431 13.1628 57.4243 13.2083 57.809 13.2083C58.386 13.2083 58.6376 13.026 58.8447 12.8132C58.8595 12.8435 58.8891 12.9196 58.9039 13.1171C58.9187 13.3148 58.8595 13.6035 58.7115 13.8164C58.5931 13.9835 58.3269 14.1052 58.0605 14.1052H57.9865C57.7201 14.0748 57.6017 14.0443 57.6017 14.0443L57.5426 14.0748C57.5278 14.1052 57.5426 14.1355 57.5574 14.1811L57.5723 14.2116C57.6018 14.3484 57.661 14.7587 57.661 14.8652C57.661 16.1115 57.1727 16.6586 56.6548 17.069C56.1517 17.449 55.5747 17.6922 54.9236 17.753C54.9088 17.753 54.8497 17.753 54.7165 17.7682C54.6425 17.7682 54.5389 17.7835 54.5241 17.7835H54.5093C54.3909 17.8137 54.0951 17.9658 54.0951 18.2242C54.0951 18.4521 54.2283 18.7257 54.8644 18.7714C54.9976 18.7866 55.1307 18.7866 55.2787 18.8018C56.1221 18.8625 57.1727 18.9386 57.661 19.1057C58.3416 19.3641 58.7707 19.9873 58.7707 20.7322C58.7707 21.8569 57.9865 22.9057 56.6845 23.5592C56.0482 23.848 55.4119 24 54.7165 24ZM63.1505 13.406C62.8397 13.406 62.5586 13.4819 62.3515 13.6339C61.7744 13.9987 61.4785 14.7284 61.4785 15.7922C61.4785 17.7835 62.455 19.1818 63.8459 19.1818C64.2603 19.1818 64.5857 19.0602 64.8669 18.817C65.2959 18.4521 65.518 17.7226 65.518 16.7042C65.518 14.7284 64.5561 13.406 63.1505 13.406ZM63.4169 19.9113C60.9014 19.9113 59.9988 18.0114 59.9988 16.2331C59.9988 14.9868 60.4871 14.0291 61.4636 13.3451C62.1592 12.9044 62.9877 12.6612 63.7275 12.6612C65.651 12.6612 66.9976 14.0748 66.9976 16.1115C66.9976 17.4946 66.4649 18.5889 65.4439 19.2577C64.9556 19.5921 64.1124 19.9113 63.4169 19.9113ZM37.0495 13.406C36.7387 13.406 36.4577 13.4819 36.2504 13.6339C35.6734 13.9987 35.3774 14.7284 35.3774 15.7922C35.3774 17.7835 36.354 19.1818 37.7449 19.1818C38.1592 19.1818 38.4847 19.0602 38.7659 18.817C39.1949 18.4521 39.417 17.7226 39.417 16.7042C39.417 14.7284 38.4699 13.406 37.0495 13.406ZM37.3159 19.9113C34.8004 19.9113 33.8978 18.0114 33.8978 16.2331C33.8978 14.9868 34.3861 14.0291 35.3626 13.3451C36.0581 12.9044 36.8867 12.6612 37.6265 12.6612C39.5501 12.6612 40.8966 14.0748 40.8966 16.1115C40.8966 17.4946 40.3639 18.5889 39.3429 19.2577C38.8694 19.5921 38.0261 19.9113 37.3159 19.9113ZM20.4035 19.7593C20.3738 19.7138 20.3442 19.577 20.359 19.4098C20.359 19.2882 20.3887 19.2121 20.4035 19.1818C20.7141 19.1361 20.8769 19.0905 21.0544 19.045C21.3504 18.9689 21.4688 18.8018 21.4836 18.4218C21.528 17.5098 21.528 15.777 21.5132 14.5763V14.5459C21.5132 14.4091 21.5132 14.2419 21.3504 14.1203C21.1137 13.9684 20.8325 13.8316 20.4626 13.7251C20.3294 13.6796 20.2407 13.6035 20.2555 13.5123C20.2555 13.4212 20.3442 13.3148 20.5366 13.2844C21.0249 13.2387 22.2973 12.9196 22.8004 12.6916C22.83 12.7219 22.8745 12.8132 22.8745 12.9348L22.8596 13.1019C22.8448 13.2691 22.83 13.4668 22.83 13.6643C22.83 13.7251 22.8893 13.7707 22.9484 13.7707C22.978 13.7707 23.0076 13.7555 23.0373 13.7403C23.9842 12.9803 24.8424 12.7067 25.2862 12.7067C26.0114 12.7067 26.5736 13.0564 27.0027 13.7859C27.0322 13.8316 27.0618 13.8467 27.1063 13.8467C27.1359 13.8467 27.1802 13.8316 27.195 13.8012C28.068 13.1171 28.941 12.7067 29.518 12.7067C30.8941 12.7067 31.708 13.7555 31.708 15.5338C31.708 16.0354 31.708 16.689 31.6932 17.2819C31.6932 17.8137 31.6784 18.3002 31.6784 18.6498C31.6784 18.7257 31.7819 18.9689 31.9447 19.0146C32.1518 19.1209 32.433 19.1666 32.8029 19.2273H32.8177C32.8473 19.3337 32.7881 19.7289 32.729 19.805C32.6401 19.805 32.5069 19.805 32.3591 19.7897C32.0779 19.7745 31.6784 19.7593 31.2345 19.7593C30.3171 19.7593 29.8436 19.7745 29.3848 19.805C29.3553 19.6834 29.3405 19.3186 29.3848 19.2273C29.6512 19.1818 29.7844 19.1361 29.9472 19.0905C30.2432 18.9993 30.3171 18.8625 30.3319 18.4673C30.3319 18.1787 30.391 15.7163 30.3023 15.1234C30.2135 14.5155 29.7696 13.8012 28.793 13.8012C28.4231 13.8012 27.8461 13.9532 27.2837 14.3939C27.2543 14.4243 27.2246 14.5003 27.2246 14.5459V14.5611C27.2837 14.8802 27.2837 15.2452 27.2837 15.8074V16.7954C27.2837 17.4794 27.2689 18.1178 27.2837 18.6041C27.2837 18.9386 27.4762 19.0146 27.639 19.0754C27.7277 19.0905 27.7868 19.1057 27.8609 19.1209C27.9941 19.1514 28.1273 19.1818 28.3344 19.2273C28.364 19.2882 28.364 19.4857 28.3195 19.6529C28.3047 19.7441 28.2751 19.7897 28.2604 19.805C27.7573 19.7897 27.2394 19.7745 26.4848 19.7745C26.2629 19.7745 25.8782 19.7897 25.5526 19.7897C25.2862 19.7897 25.0347 19.805 24.8868 19.805C24.872 19.7745 24.8424 19.6682 24.8424 19.5009C24.8424 19.3641 24.872 19.2577 24.9016 19.2273C24.9756 19.2121 25.0347 19.197 25.1087 19.197C25.2862 19.1666 25.4342 19.1361 25.5822 19.1057C25.8337 19.0298 25.9225 18.893 25.9373 18.5586C25.9817 17.7987 26.026 15.6251 25.9225 15.0779C25.745 14.1964 25.2567 13.7555 24.4725 13.7555C24.0138 13.7555 23.4367 13.9835 22.9632 14.3484C22.8893 14.4091 22.83 14.5611 22.83 14.6979V15.5947C22.83 16.689 22.83 18.0571 22.8448 18.6498C22.8596 18.8321 22.9188 19.045 23.2592 19.1209C23.3331 19.1361 23.4515 19.1666 23.5995 19.1818L23.8658 19.2273C23.8955 19.3186 23.8806 19.6834 23.8214 19.805C23.6734 19.805 23.4959 19.7897 23.2887 19.7897C22.978 19.7745 22.5785 19.7593 22.1346 19.7593C21.6167 19.7593 21.2468 19.7745 20.9509 19.7897C20.7437 19.7593 20.5809 19.7593 20.4035 19.7593Z" fill="white"/>
<path fill-rule="evenodd" clip-rule="evenodd" d="M12.6204 23.4073L12.0138 23.1944C12.0138 23.1944 12.0878 20.0177 10.9781 19.7897C10.2383 18.9082 11.0965 -17.601 13.7598 19.6682C13.7598 19.6682 12.8425 20.1393 12.6797 20.9449C12.5021 21.7353 12.6204 23.4073 12.6204 23.4073Z" fill="white"/>
<path fill-rule="evenodd" clip-rule="evenodd" d="M12.6204 23.4073L12.0138 23.1944C12.0138 23.1944 12.0878 20.0177 10.9781 19.7897C10.2383 18.9082 11.0965 -17.601 13.7598 19.6682C13.7598 19.6682 12.8425 20.1393 12.6797 20.9449C12.5021 21.7353 12.6204 23.4073 12.6204 23.4073Z" fill="#A6A385"/>
<path fill-rule="evenodd" clip-rule="evenodd" d="M12.946 20.337C12.946 20.337 18.2579 16.7499 17.015 9.28685C15.8166 3.86071 12.9903 2.08238 12.6797 1.39835C12.3394 0.91199 12.0138 0.0608657 12.0138 0.0608657L12.2358 15.1539C12.2358 15.1691 11.7771 19.7745 12.946 20.337Z" fill="white"/>
<path fill-rule="evenodd" clip-rule="evenodd" d="M12.946 20.337C12.946 20.337 18.2579 16.7499 17.015 9.28685C15.8166 3.86071 12.9903 2.08238 12.6797 1.39835C12.3394 0.91199 12.0138 0.0608657 12.0138 0.0608657L12.2358 15.1539C12.2358 15.1691 11.7771 19.7745 12.946 20.337Z" fill="#499D4A"/>
<path fill-rule="evenodd" clip-rule="evenodd" d="M11.7031 20.5345C11.7031 20.5345 6.71669 17.0386 7.01267 10.8829C7.29371 4.72705 10.8153 1.70239 11.4959 1.15517C11.9399 0.668812 11.9547 0.486357 11.9843 0C12.295 0.684028 12.2358 10.2293 12.2801 11.354C12.4133 15.6859 12.0434 19.7138 11.7031 20.5345Z" fill="white"/>
<path fill-rule="evenodd" clip-rule="evenodd" d="M11.7031 20.5345C11.7031 20.5345 6.71669 17.0386 7.01267 10.8829C7.29371 4.72705 10.8153 1.70239 11.4959 1.15517C11.9399 0.668812 11.9547 0.486357 11.9843 0C12.295 0.684028 12.2358 10.2293 12.2801 11.354C12.4133 15.6859 12.0434 19.7138 11.7031 20.5345Z" fill="#58AA50"/>
</g>
<defs>
<clipPath id="clip0_950_1742">
<rect width="24" height="24" fill="white"/>
</clipPath>
</defs>
</svg>
