<svg width="24" height="24" viewBox="0 0 24 24" fill="none" xmlns="http://www.w3.org/2000/svg">
<path fill-rule="evenodd" clip-rule="evenodd" d="M12.0212 23.6753C11.6989 23.6753 11.398 23.5893 11.1186 23.4389L8.26015 21.741C7.83031 21.5046 8.04523 21.4186 8.17418 21.3756C8.75447 21.1822 8.86193 21.1392 9.4637 20.7953C9.52818 20.7524 9.61415 20.7738 9.67862 20.8168L11.8708 22.1278C11.9568 22.1708 12.0642 22.1708 12.1287 22.1278L20.704 17.1632C20.79 17.1202 20.833 17.0342 20.833 16.9268V7.01898C20.833 6.91152 20.79 6.82556 20.704 6.78257L12.1287 1.83942C12.0427 1.79643 11.9353 1.79643 11.8708 1.83942L3.29551 6.78257C3.20954 6.82556 3.16655 6.93302 3.16655 7.01898V16.9268C3.16655 17.0128 3.20954 17.1202 3.29551 17.1632L5.63813 18.5172C6.90616 19.1619 7.70136 18.4097 7.70136 17.6575V7.87866C7.70136 7.74971 7.80882 7.62076 7.95926 7.62076H9.05536C9.18431 7.62076 9.31326 7.72822 9.31326 7.87866V17.6575C9.31326 19.3554 8.3891 20.344 6.77721 20.344C6.28289 20.344 5.89604 20.344 4.79994 19.8067L2.54329 18.5172C1.9845 18.1948 1.64062 17.593 1.64062 16.9483V7.04048C1.64062 6.39572 1.9845 5.79394 2.54329 5.47156L11.1186 0.506916C11.6559 0.206028 12.3866 0.206028 12.9239 0.506916L21.4992 5.47156C22.058 5.79394 22.4019 6.39572 22.4019 7.04048V16.9483C22.4019 17.593 22.058 18.1948 21.4992 18.5172L12.9239 23.4818C12.6445 23.6108 12.3221 23.6753 12.0212 23.6753ZM14.6648 16.8623C10.9037 16.8623 10.13 15.1429 10.13 13.6815C10.13 13.5525 10.2374 13.4236 10.3879 13.4236H11.5054C11.6344 13.4236 11.7419 13.5096 11.7419 13.6385C11.9138 14.7776 12.4081 15.3364 14.6863 15.3364C16.4916 15.3364 17.2653 14.928 17.2653 13.9609C17.2653 13.4021 17.0504 12.9938 14.2349 12.7144C11.8923 12.4779 10.4308 11.9621 10.4308 10.0923C10.4308 8.35149 11.8923 7.31987 14.3424 7.31987C17.0934 7.31987 18.4473 8.26552 18.6193 10.3287C18.6193 10.3932 18.5978 10.4577 18.5548 10.5222C18.5118 10.5652 18.4473 10.6081 18.3829 10.6081H17.2653C17.1578 10.6081 17.0504 10.5222 17.0289 10.4147C16.771 9.23266 16.1047 8.8458 14.3424 8.8458C12.3651 8.8458 12.1287 9.53354 12.1287 10.0494C12.1287 10.6726 12.4081 10.866 15.0731 11.2099C17.7166 11.5538 18.9632 12.0481 18.9632 13.8964C18.9417 15.7877 17.3942 16.8623 14.6648 16.8623Z" fill="#539E43"/>
</svg>
