<svg width="86" height="10" viewBox="0 0 86 10" fill="none" xmlns="http://www.w3.org/2000/svg">
<path fill-rule="evenodd" clip-rule="evenodd" d="M64.1107 0.00167558H62.2894V9.99983H70.8456L72.0046 8.36641H64.1107V0.00167558ZM39.1366 0.496581L32.4574 9.99983H34.6655L36.6802 7.12882H40.9857L42.1174 5.49591H37.8118L40.1576 2.20426L45.65 9.99983H47.8575L41.1233 0.471936C40.7098 -0.146861 39.6055 -0.146861 39.1366 0.496581ZM52.0803 1.63191H59.7392L60.8685 0L52.0253 0.00452535C48.9477 0.00452535 46.9223 2.24131 46.9223 5.0005C46.9223 7.75952 48.9477 9.99681 52.0253 9.99681L59.5063 9.98893L60.6774 8.36926H52.0805C50.0055 8.36926 48.7929 6.86108 48.7929 5.0005C48.7927 3.14026 50.0056 1.63191 52.0803 1.63191ZM12.9961 0.00452535H5.10251C2.02541 0.00452535 0 2.24132 0 5.00067C0 7.75952 2.02541 9.99681 5.10251 9.99681H12.9961C16.0733 9.99681 18.0986 7.75952 18.0986 5.00067C18.0986 2.24132 16.0733 0.00452535 12.9961 0.00452535ZM12.9961 8.36926H5.10251C3.02774 8.36926 1.81507 6.86108 1.81507 5.00067C1.81507 3.14026 3.02793 1.63191 5.10251 1.63191H12.9961C15.0708 1.63191 16.2837 3.14026 16.2837 5.00067C16.2837 6.86108 15.0708 8.36926 12.9961 8.36926ZM74.0096 5.79265H83.6551L84.815 4.15923H74.0096C74.3252 2.71191 75.4648 1.63207 77.2107 1.63207H84.8698L86 0.000166279L77.1559 0.00469418C74.0783 0.00469418 72.0538 2.24148 72.0538 5.00067C72.0538 7.75969 74.0783 9.99698 77.1559 9.99698L84.6366 9.9891L85.8078 8.36943H77.2109C75.4399 8.36926 74.3058 7.27116 74.0096 5.79265ZM28.479 5.9375C30.3058 5.9375 31.7868 4.60954 31.7868 2.97126C31.7868 1.33315 30.3058 0.00536442 28.479 0.00536442L19.1916 0.00184442V10H21.234V1.63291H28.479C29.3035 1.63291 29.9719 2.23226 29.9719 2.97143C29.9719 3.71077 29.3035 4.31012 28.479 4.31012H22.6693L29.2229 9.9886H31.8597L27.1679 5.94102L28.479 5.9375Z" fill="#E72E15"/>
</svg>
