<svg width="24" height="24" viewBox="0 0 24 24" fill="none" xmlns="http://www.w3.org/2000/svg">
<path fill-rule="evenodd" clip-rule="evenodd" d="M23.9365 14.3765C23.7923 13.9528 23.4144 13.6576 22.9257 13.5868C22.6953 13.5534 22.4314 13.5676 22.1191 13.6301C21.5748 13.739 21.171 13.7805 20.8763 13.7885C21.9887 11.9669 22.8932 9.88949 23.4139 7.93401C24.2558 4.77212 23.8059 3.33168 23.2802 2.68008C21.8887 0.955575 19.8586 0.0290843 17.4093 0.000683818C16.1029 -0.0147829 14.9558 0.235432 14.3575 0.41532C13.8004 0.320041 13.2014 0.266797 12.5728 0.256935C11.3948 0.23872 10.3538 0.487803 9.46433 0.999766C8.97179 0.838309 8.18155 0.61062 7.26886 0.465277C5.12223 0.123447 3.39219 0.38983 2.12674 1.25693C0.594388 2.30683 -0.116008 4.13093 0.0153927 6.67862C0.057063 7.48752 0.523604 9.94856 1.25811 12.2826C1.68026 13.6241 2.13041 14.7382 2.59606 15.5941C3.2564 16.8078 3.96296 17.5225 4.7562 17.7792C5.20085 17.9229 6.00864 18.0235 6.85833 17.3372C6.966 17.4636 7.10963 17.5894 7.30036 17.7061C7.5425 17.8542 7.83863 17.9753 8.13433 18.047C9.20014 18.3055 10.1985 18.2408 11.0501 17.8786C11.0554 18.0255 11.0594 18.1659 11.0629 18.2871C11.0685 18.4837 11.0741 18.6765 11.0815 18.8568C11.132 20.0759 11.2175 21.0238 11.4708 21.687C11.4847 21.7235 11.5035 21.779 11.5232 21.838C11.6496 22.2134 11.861 22.8417 12.3986 23.3339C12.9555 23.8437 13.629 24.0001 14.2459 24C14.5552 24 14.8504 23.9607 15.1093 23.9068C16.0322 23.715 17.0803 23.4227 17.8385 22.3756C18.5552 21.3857 18.9037 19.8948 18.9668 17.5454C18.9749 17.479 18.9825 17.4156 18.9898 17.3552C18.9947 17.3144 18.9997 17.2726 19.0047 17.231L19.1736 17.2454L19.2171 17.2483C20.1571 17.2898 21.3064 17.0965 22.0123 16.7785C22.57 16.5274 24.3573 15.6122 23.9365 14.3765Z" fill="black"/>
<path fill-rule="evenodd" clip-rule="evenodd" d="M22.7468 14.3521C19.8396 14.9178 19.6397 13.9894 19.6397 13.9894C22.7093 9.69317 23.9924 4.2398 22.8851 2.90512C19.8642 -0.73564 14.6348 0.986204 14.5475 1.03091L14.5195 1.03565C13.9451 0.923185 13.3023 0.856186 12.5799 0.845065C11.2644 0.824732 10.2666 1.17035 9.50945 1.71196C9.50945 1.71196 0.180816 -1.91299 0.614678 6.27101C0.706975 8.0121 3.26027 19.4448 6.30574 15.9916C7.41886 14.7289 8.49435 13.6612 8.49435 13.6612C9.02854 13.9959 9.66804 14.1667 10.3384 14.1054L10.3905 14.0637C10.3743 14.2204 10.3817 14.3738 10.4114 14.5553C9.62683 15.3821 9.85737 15.5273 8.28901 15.8318C6.70203 16.1403 7.63431 16.6896 8.243 16.8331C8.98092 17.0072 10.6881 17.2537 11.8416 15.7306L11.7956 15.9044C12.103 16.1366 12.3189 17.4151 12.2827 18.5739C12.2465 19.7328 12.2224 20.5285 12.4646 21.15C12.7068 21.7714 12.9482 23.1697 15.01 22.753C16.7328 22.4048 17.6255 21.5023 17.7497 19.997C17.8378 18.9268 18.0373 19.0851 18.0499 18.1283L18.2099 17.6753C18.3943 16.2246 18.2392 15.7566 19.3006 15.9743L19.5585 15.9957C20.3397 16.0292 21.3621 15.8771 21.9622 15.6141C23.2544 15.0484 24.0208 14.104 22.7468 14.3521Z" fill="#336791"/>
<path fill-rule="evenodd" clip-rule="evenodd" d="M10.2412 7.61948C10.0064 7.59492 9.79367 7.61765 9.68605 7.67885C9.62548 7.7133 9.60678 7.75319 9.60175 7.78068C9.58823 7.85343 9.6561 7.93385 9.69776 7.97535C9.81569 8.09278 9.98801 8.17352 10.1586 8.19131C10.1833 8.19388 10.2079 8.19512 10.2323 8.19512C10.5168 8.19512 10.7753 8.02875 10.7981 7.90594C10.8266 7.75214 10.5294 7.64961 10.2412 7.61948Z" fill="white"/>
<path fill-rule="evenodd" clip-rule="evenodd" d="M18.5987 7.33983C18.5741 7.06012 18.2604 6.98038 17.9628 7.04604C17.6656 7.11179 17.3773 7.32466 17.4014 7.605C17.4208 7.82302 17.6687 8.19521 17.9624 8.19512C17.9871 8.19512 18.0122 8.1925 18.0374 8.1869C18.2334 8.14382 18.3772 7.9463 18.4455 7.83241C18.5495 7.65901 18.6097 7.46555 18.5987 7.33983Z" fill="white"/>
<path fill-rule="evenodd" clip-rule="evenodd" d="M23.2535 14.6223C23.1461 14.3055 22.8005 14.2035 22.2261 14.3193C20.5209 14.6626 19.9102 14.4247 19.7097 14.2807C21.0351 12.3107 22.1255 9.92951 22.7137 7.70773C22.9924 6.65532 23.1463 5.67797 23.1589 4.88138C23.1728 4.0069 23.0202 3.36441 22.7053 2.97191C21.436 1.38956 19.5731 0.5408 17.3181 0.517474C15.7679 0.500485 14.4581 0.887579 14.2041 0.996398C13.6694 0.866656 13.0864 0.787009 12.4519 0.776848C11.288 0.758493 10.2821 1.03032 9.4492 1.58436C9.08742 1.45303 8.15244 1.13991 7.0091 0.960234C5.0323 0.649674 3.4615 0.884957 2.34051 1.65975C1.00293 2.58427 0.385431 4.23688 0.50509 6.57157C0.54535 7.35712 1.00405 9.77349 1.72805 12.0876C2.68101 15.1334 3.71684 16.8577 4.80681 17.2124C4.93436 17.2539 5.08152 17.2829 5.24367 17.2829C5.64129 17.2829 6.12871 17.1081 6.6359 16.5132C7.47833 15.5245 8.26487 14.6959 8.55481 14.3949C8.98327 14.6193 9.4539 14.7445 9.93539 14.7571C9.93623 14.7694 9.93752 14.7817 9.93864 14.7939C9.84205 14.9057 9.76282 15.0036 9.69529 15.0873C9.36173 15.5004 9.2923 15.5863 8.21857 15.8021C7.91318 15.8635 7.10188 16.0267 7.09007 16.5814C7.07713 17.1875 8.04891 17.4421 8.15966 17.4691C8.54551 17.5633 8.9172 17.6098 9.2717 17.6098C10.1339 17.6097 10.8925 17.3333 11.4989 16.7984C11.4802 18.9592 11.5726 21.0885 11.8385 21.7372C12.0563 22.2683 12.5884 23.5663 14.2691 23.5661C14.5157 23.5661 14.7872 23.5382 15.0858 23.4757C16.8399 23.1088 17.6016 22.3525 17.8962 20.685C18.0539 19.7939 18.3245 17.6658 18.4518 16.5243C18.7204 16.606 19.0662 16.6435 19.44 16.6434C20.2197 16.6434 21.1192 16.4818 21.6834 16.2263C22.3172 15.9392 23.4609 15.2345 23.2535 14.6223ZM19.0763 6.90903C19.0705 7.24603 19.023 7.55195 18.9726 7.8713C18.9184 8.21475 18.8623 8.56983 18.8482 9.0009C18.8342 9.42039 18.8879 9.85654 18.9399 10.2783C19.0448 11.1301 19.1525 12.0072 18.7356 12.8726C18.6708 12.7604 18.6083 12.6379 18.5509 12.5022C18.4991 12.3797 18.3867 12.1829 18.2309 11.9104C17.6249 10.8501 16.2056 8.36705 16.9322 7.35381C17.1485 7.05216 17.6977 6.74214 19.0763 6.90903ZM17.4053 1.2C19.4257 1.24354 21.024 1.98097 22.1556 3.39168C23.0235 4.47375 22.0678 9.39738 19.3011 13.645C19.2738 13.6111 19.2459 13.5769 19.2172 13.5418C19.2057 13.5278 19.194 13.5135 19.1822 13.4991C19.8971 12.3472 19.7573 11.2075 19.6329 10.197C19.5817 9.78229 19.5335 9.3906 19.5457 9.02274C19.5584 8.6327 19.6113 8.29832 19.6624 7.97492C19.7252 7.57635 19.7891 7.16402 19.7715 6.67789C19.7847 6.62692 19.79 6.56666 19.7831 6.49515C19.7381 6.02896 19.1926 4.63392 18.0807 3.37109C17.4725 2.68048 16.5855 1.90754 15.3745 1.38623C15.8954 1.28091 16.6077 1.18269 17.4053 1.2ZM6.09917 16.0782C5.54041 16.7336 5.1545 16.608 5.02762 16.5668C4.20076 16.2977 3.24141 14.5928 2.39557 11.8892C1.66368 9.54983 1.23594 7.1975 1.20212 6.53786C1.09523 4.45173 1.61356 2.9978 2.74279 2.21651C4.58051 0.945042 7.60193 1.70607 8.81599 2.09207C8.79852 2.10884 8.78037 2.12457 8.76307 2.14161C6.77087 4.10456 6.81813 7.45829 6.823 7.66326C6.82283 7.74236 6.82961 7.85434 6.83896 8.0084C6.87323 8.57243 6.937 9.62227 6.76661 10.8112C6.60821 11.916 6.95727 12.9974 7.72416 13.778C7.80356 13.8588 7.88643 13.9347 7.97205 14.0061C7.63065 14.3627 6.88879 15.1514 6.09917 16.0782ZM8.2281 13.3068C7.60999 12.6777 7.32929 11.8025 7.45785 10.9055C7.63782 9.64951 7.57135 8.55569 7.53569 7.96806C7.5307 7.88584 7.52628 7.81379 7.52365 7.75692C7.8147 7.5052 9.16342 6.80011 10.1252 7.01513C10.5642 7.11324 10.8316 7.40479 10.9428 7.90638C11.5183 10.503 11.019 11.5853 10.6178 12.455C10.5351 12.6342 10.457 12.8035 10.3902 12.9788L10.3386 13.1142C10.2077 13.4566 10.0859 13.775 10.0104 14.0774C9.35335 14.0754 8.71413 13.8016 8.2281 13.3068ZM8.32903 16.8081C8.1372 16.7614 7.96462 16.6801 7.86339 16.6128C7.94794 16.5739 8.09845 16.5212 8.35944 16.4687C9.6226 16.215 9.81763 16.036 10.2436 15.5083C10.3413 15.3873 10.452 15.2501 10.6053 15.0831C10.6053 15.0831 10.6054 15.083 10.6053 15.0831C10.8337 14.8337 10.9383 14.8757 11.1278 14.9524C11.2813 15.0144 11.4308 15.2021 11.4914 15.4087C11.5201 15.5062 11.5524 15.6915 11.4469 15.8355C10.557 17.0511 9.26032 17.0355 8.32903 16.8081ZM14.9396 22.8099C13.3943 23.1329 12.8472 22.3637 12.4866 21.4843C12.2539 20.9166 12.1396 18.3565 12.2207 15.5295C12.2218 15.4919 12.2163 15.4555 12.2057 15.4214C12.1964 15.3554 12.1822 15.2887 12.1625 15.2216C12.0418 14.8103 11.7477 14.4662 11.395 14.3235C11.2548 14.2669 10.9975 14.1629 10.6884 14.24C10.7544 13.975 10.8687 13.6759 10.9926 13.3518L11.0446 13.2154C11.1032 13.0618 11.1766 12.9026 11.2543 12.7341C11.6742 11.8241 12.2492 10.5778 11.6251 7.76209C11.3913 6.7075 10.6108 6.19252 9.42747 6.3121C8.71803 6.38372 8.06906 6.66298 7.74536 6.82309C7.67576 6.85751 7.6121 6.89072 7.55263 6.92311C7.64295 5.86049 7.98434 3.87471 9.26122 2.61832C10.0651 1.8273 11.1358 1.43666 12.4404 1.45769C15.0108 1.49877 16.6591 2.7857 17.5893 3.8581C18.3908 4.78224 18.8249 5.7131 18.9981 6.21514C17.6955 6.08594 16.8095 6.33685 16.3603 6.96327C15.3832 8.32591 16.8949 10.9708 17.6214 12.2419C17.7546 12.4749 17.8696 12.6762 17.9058 12.7617C18.1423 13.3211 18.4486 13.6945 18.6723 13.9672C18.7408 14.0507 18.8073 14.1317 18.8579 14.2025C18.4634 14.3135 17.7546 14.5698 17.8192 15.8515C17.7671 16.4946 17.3967 19.5055 17.2085 20.5693C16.9601 21.9746 16.43 22.4981 14.9396 22.8099ZM21.3896 15.609C20.9861 15.7918 20.311 15.9288 19.6696 15.9582C18.9611 15.9906 18.6005 15.8808 18.5157 15.8133C18.4758 15.0146 18.7806 14.9311 19.1031 14.8428C19.1537 14.8289 19.2032 14.8154 19.2509 14.7991C19.2806 14.8227 19.313 14.846 19.3486 14.8689C19.918 15.2356 20.9336 15.2751 22.3673 14.9864C22.3726 14.9853 22.3779 14.9844 22.3831 14.9833C22.1897 15.1597 21.8588 15.3965 21.3896 15.609Z" fill="white"/>
</svg>
