<svg width="64" height="24" viewBox="0 0 84 24" fill="none" xmlns="http://www.w3.org/2000/svg">
<path d="M2.36704 14.472C2.36704 15.3401 2.6732 15.7735 3.28472 15.7735C3.93918 15.7626 4.48147 15.3961 4.9108 14.6751C5.06107 14.4275 5.1845 14.1233 5.2811 13.7622C5.2811 12.5007 5.38843 11.4194 5.60336 10.5176C4.73371 10.6981 3.97701 11.1375 3.33302 11.8357C2.68903 12.5345 2.36704 13.4136 2.36704 14.472ZM9.96614 13.4581C10.1593 13.4581 10.2559 13.7177 10.2559 14.2354C10.2559 14.5171 10.1432 14.8582 9.91811 15.2581C9.69271 15.6581 9.39996 16.0245 9.0404 16.3566C8.68057 16.6889 8.28103 16.9624 7.84097 17.1765C7.4009 17.3902 6.97158 17.497 6.55298 17.497C5.98385 17.497 5.60336 16.9734 5.4099 15.9254C5.13057 16.4101 4.76564 16.8072 4.31511 17.117C3.86432 17.4271 3.26057 17.5818 2.50388 17.5818C1.74693 17.5818 1.13808 17.3342 0.676557 16.8379C0.21503 16.3425 -0.0103673 15.7395 0.000365905 15.0297C0.000365905 13.115 0.606523 11.6053 1.81964 10.5007C2.3351 10.039 2.81515 9.73486 3.26057 9.5884C3.706 9.44194 4.17558 9.36843 4.66931 9.36843C5.16303 9.36843 5.56553 9.45884 5.87679 9.63882C6.02706 9.31238 6.19879 9.14902 6.39198 9.14902C6.76765 9.14902 7.12452 9.32055 7.46262 9.66445C7.80072 10.0083 7.97003 10.3317 7.97003 10.6359C7.81923 11.0079 7.59947 11.453 7.30967 11.9712C7.22381 12.4892 7.18061 13.2161 7.18061 14.1512C7.18061 15.0866 7.29357 15.5536 7.51897 15.5536C7.79803 15.5536 8.47422 14.9683 9.54754 13.7966C9.74074 13.571 9.88027 13.4581 9.96614 13.4581Z" fill="#C8C9CB"/>
<path d="M17.0654 12.31C17.0654 11.9385 16.8615 11.7526 16.4536 11.7526C16.1745 11.7526 15.8633 12.0371 15.5198 12.606C15.1761 13.175 14.9292 13.7861 14.7792 14.4396V14.4731C14.7792 14.8567 14.8353 15.251 14.948 15.6563C15.0607 16.0619 15.1173 16.3436 15.1173 16.5013C15.1173 16.8844 14.6609 17.2618 13.7488 17.6336C13.609 17.6896 13.4856 17.7183 13.3785 17.7183C13.1102 17.7183 12.9248 17.5713 12.8228 17.2787C12.7209 16.986 12.6699 16.5889 12.6699 16.0873C12.6699 15.5859 12.6836 15.113 12.7104 14.668C12.737 14.223 12.7641 13.8121 12.7909 13.4341C12.8177 13.0567 12.8446 12.7243 12.8711 12.437C12.898 12.1497 12.9116 11.9162 12.9116 11.7357C12.9116 11.3529 12.745 11.1611 12.4126 11.1611C12.0798 11.1611 11.6932 11.5695 11.2534 12.3863C10.813 13.2034 10.5933 13.8509 10.5933 14.3295C10.5933 14.8088 10.6496 15.251 10.7623 15.6563C10.875 16.0619 10.9314 16.3436 10.9314 16.5013C10.9314 16.8844 10.4749 17.2618 9.56289 17.6336C9.42336 17.6896 9.29966 17.7183 9.1926 17.7183C8.92427 17.7183 8.73912 17.5713 8.63715 17.2787C8.53492 16.986 8.48421 16.5348 8.48421 15.9264C8.48421 14.3269 8.54297 13.1721 8.6613 12.4624C8.82203 11.4143 9.18696 10.4232 9.75609 9.48781C9.94929 9.17264 10.1586 9.01491 10.384 9.01491C10.7382 9.01491 11.0655 9.3191 11.3661 9.92748C11.4519 10.0855 11.5161 10.2317 11.5593 10.3669C12.0745 9.69089 12.6806 9.35262 13.3785 9.35262C13.8398 9.35262 14.2533 9.51316 14.6182 9.83453C14.9829 10.1556 15.1656 10.5584 15.1656 11.0425V11.2284C15.8201 10.3725 16.62 9.94438 17.5642 9.94438C18.1441 9.94438 18.5841 10.1021 18.8844 10.4176C19.1849 10.7327 19.3355 11.1217 19.3355 11.5836C19.3355 12.0458 19.3033 12.4624 19.2389 12.8344C19.1742 13.2057 19.102 13.5549 19.0215 13.8819C18.941 14.2086 18.8686 14.4985 18.8042 14.7519C18.7398 15.0057 18.7073 15.2032 18.7073 15.3434C18.7073 15.4848 18.7502 15.5547 18.8364 15.5547C18.9971 15.5547 19.1957 15.4479 19.4321 15.2339C19.6679 15.0201 19.9043 14.7863 20.1405 14.5325C20.3766 14.279 20.5937 14.0453 20.7925 13.8312C20.9908 13.6172 21.1279 13.5098 21.203 13.5098C21.353 13.5098 21.4284 13.7019 21.4284 14.0847C21.4284 14.8736 21.0501 15.6394 20.2931 16.383C19.5367 17.1263 18.7288 17.4981 17.8704 17.4981C17.0973 17.4981 16.7112 16.7604 16.7112 15.2846C16.7112 14.9128 16.77 14.3999 16.8883 13.7464C17.0061 13.0936 17.0654 12.6145 17.0654 12.31Z" fill="#C8C9CB"/>
<path d="M25.7759 14.0495C25.9584 13.6442 26.0499 13.2496 26.0499 12.8669C26.0499 12.4838 25.9313 12.2923 25.6954 12.2923C25.5988 12.2923 25.5183 12.3655 25.4539 12.512C25.3895 12.6584 25.3573 12.7993 25.3573 12.9345C25.3573 13.3851 25.4968 13.7569 25.7759 14.0495ZM25.9208 16.0101C25.0729 17.0582 24.0556 17.5818 22.8699 17.5818C21.6836 17.5818 20.7954 17.2632 20.2054 16.6267C19.615 15.9904 19.3252 15.1987 19.336 14.2526C19.3252 12.9119 19.7277 11.7571 20.5435 10.788C21.3592 9.81936 22.4274 9.33491 23.7473 9.33491C24.3484 9.33491 24.8311 9.41377 25.1963 9.5715C25.8296 9.84161 26.1462 10.0951 26.1462 10.3317C26.1462 10.5122 25.7032 10.6052 24.8182 10.6108C23.9325 10.6164 23.1919 10.9375 22.5959 11.5738C22.0008 12.2103 21.7024 13.013 21.7024 13.9825C21.7024 14.4892 21.8449 14.9142 22.1293 15.2581C22.4137 15.602 22.8162 15.7735 23.3368 15.7735C23.8573 15.7735 24.2894 15.6609 24.6328 15.4353C23.8705 14.8945 23.4895 14.1118 23.4895 13.0863C23.4787 12.5458 23.6641 12.0532 24.0452 11.6079C24.4262 11.1629 24.9146 10.9375 25.5103 10.9319C26.1057 10.9263 26.5323 11.0981 26.7902 11.4473C27.0478 11.7966 27.1766 12.2444 27.1766 12.7908C27.1766 13.3372 27.0532 13.9146 26.8063 14.5233H26.9029C27.3751 14.5117 27.7827 14.3371 28.1265 13.9988C28.2553 13.8636 28.365 13.7453 28.4565 13.6442C28.5475 13.5428 28.6419 13.4921 28.7383 13.4921C28.8885 13.4921 28.9637 13.6783 28.9637 14.0495C28.9637 14.7371 28.7705 15.2525 28.3841 15.5958C27.9977 15.9397 27.571 16.1112 27.1041 16.1112C26.6372 16.1112 26.2428 16.0777 25.9208 16.0101Z" fill="#C8C9CB"/>
<path d="M64 15.8907C64 16.8247 63.2785 17.5818 62.3884 17.5818C61.4992 17.5812 60.7779 16.8241 60.7779 15.8901C60.7779 14.9562 61.4997 14.1991 62.3889 14.1997C63.2787 14.1997 64 14.9567 64 15.8907Z" fill="#8CD7F8"/>
<path d="M38.7777 7.67425C38.9172 7.67425 38.9872 7.86606 38.9872 8.24883C38.9872 8.63159 38.9652 8.99239 38.9228 9.33038C38.826 9.98382 38.7028 10.5922 38.5523 11.1555C38.1662 12.6874 37.9727 13.5831 37.9727 13.8422V16.3264C37.9727 16.9348 37.7527 17.3519 37.3129 17.5775C37.1084 17.6786 36.9131 17.7744 36.725 17.8645C36.5371 17.9547 36.3249 18 36.089 18C35.6385 18 35.4131 17.4564 35.4131 16.3689C35.4131 15.2817 35.6546 13.9098 36.1373 12.254C36.6206 10.5978 37.1248 9.33601 37.651 8.46823C37.7578 8.29952 37.9134 8.12518 38.1179 7.94464C38.3218 7.76438 38.5418 7.67425 38.7777 7.67425ZM45.7811 13.758C45.9633 13.758 46.0551 14.0171 46.0551 14.5354C46.0551 14.817 45.9424 15.1581 45.717 15.5581C45.4913 15.958 45.1988 16.3242 44.8392 16.6559C44.4797 16.9889 44.0799 17.2623 43.6401 17.4756C43.1998 17.6902 42.7812 17.7969 42.3843 17.7969C41.9872 17.7969 41.6759 17.7183 41.4505 17.5603C41.2251 17.4026 41.048 17.1886 40.9189 16.9184C40.7368 16.5354 40.5862 15.8056 40.4684 14.7294C40.3498 13.6541 40.232 12.902 40.114 12.4736C39.8346 12.4173 39.591 12.3021 39.3814 12.1272C39.1724 11.9526 39.0675 11.7385 39.0675 11.485C39.0675 11.2316 39.1775 11.0482 39.3978 10.9355C39.6173 10.8234 39.8698 10.7665 40.1545 10.7665C40.4384 10.7665 40.6938 10.8401 40.9189 10.9865C41.2195 10.7274 41.4637 10.4204 41.6518 10.0652C41.8393 9.71033 41.9332 9.2318 41.9332 8.62906C41.9332 8.0266 41.7403 7.54469 41.3536 7.18417C40.9672 6.82337 40.4013 6.64339 39.6551 6.64339C38.9092 6.64339 38.3373 6.70536 37.9408 6.82928C37.5434 6.95321 37.2023 7.08869 36.9182 7.23487C36.6337 7.38133 36.3815 7.51652 36.1615 7.64045C35.9414 7.76438 35.7348 7.82634 35.5419 7.82634C35.3487 7.82634 35.2521 7.76156 35.2521 7.632C35.2521 7.50272 35.3538 7.29148 35.5577 6.99828C35.7616 6.70536 36.0624 6.41272 36.4596 6.11923C37.4575 5.38721 38.5847 5.02388 39.8405 5.02951C41.0963 5.03514 42.1318 5.2861 42.9478 5.78153C43.9028 6.36737 44.3807 7.24585 44.3807 8.41782C44.3911 9.38699 44.1496 10.1922 43.6559 10.8344C43.1622 11.4766 42.5507 11.9388 41.8205 12.2202C41.9818 12.5917 42.113 12.9916 42.2153 13.4197C42.3167 13.8481 42.4165 14.2427 42.5128 14.603C42.6097 14.9638 42.7192 15.262 42.8429 15.4986C42.966 15.7352 43.1166 15.8535 43.2937 15.8535C43.4708 15.8535 43.6857 15.7439 43.9377 15.524C44.1899 15.3043 44.4394 15.0652 44.6863 14.806C44.9329 14.5463 45.1559 14.3069 45.3544 14.0875C45.553 13.8676 45.695 13.758 45.7811 13.758Z" fill="#8CD7F8"/>
<path d="M59.6433 13.758C59.8257 13.758 59.917 14.0171 59.917 14.5354C59.917 14.817 59.8043 15.1581 59.5789 15.5581C59.3535 15.958 59.061 16.3242 58.7014 16.6559C58.3413 16.9889 57.9415 17.2621 57.502 17.4756C57.0616 17.6902 56.5972 17.7969 56.1093 17.7969C55.621 17.7969 55.24 17.6308 54.9663 17.2984C54.6923 16.9663 54.5555 16.5943 54.5555 16.1828C54.5555 15.7718 54.6198 15.3071 54.7489 14.7889C54.8777 14.2706 55.0172 13.7298 55.1675 13.1665C55.5754 11.6684 55.7844 10.6147 55.7954 10.0064C55.7954 9.74723 55.7629 9.54725 55.6985 9.40614C55.6341 9.26532 55.511 9.1949 55.3285 9.1949C55.0062 9.1949 54.6628 9.39798 54.2981 9.80328C53.9329 10.2091 53.5895 10.7274 53.2677 11.358C52.5269 12.8004 52.1354 14.2086 52.0922 15.5831C52.1136 15.7411 52.1354 15.8986 52.1568 16.0563C52.1783 16.2143 52.1888 16.383 52.1888 16.563C52.1888 16.9238 52.02 17.2533 51.6819 17.5522C51.3438 17.8502 50.9655 18 50.5469 18C50.3 18 50.1175 17.8727 49.9992 17.6192C49.8806 17.3663 49.8218 17.0531 49.8218 16.6819C49.8218 16.3101 49.9021 15.8028 50.0636 15.1606C50.2249 14.5182 50.4017 13.8366 50.5949 13.1155C51.1101 11.2118 51.3733 9.79229 51.3838 8.8572C51.3838 8.38374 51.3277 8.01223 51.215 7.74156C51.1023 7.47146 50.8847 7.33626 50.563 7.33626C49.9834 7.33626 49.4083 7.77001 48.8398 8.63751C48.2706 9.50529 47.7613 10.8513 47.31 12.6764C47.1922 13.1496 47.101 13.5611 47.0366 13.9098L47.0202 14.2312C47.2241 15.2679 47.3264 15.9436 47.3264 16.2594C47.3264 16.9128 47.1061 17.3519 46.6665 17.5775C46.4621 17.6786 46.2659 17.7744 46.0784 17.8645C45.8908 17.9547 45.6896 18 45.4746 18C44.938 18 44.6696 17.4618 44.6696 16.3858C44.6696 15.3099 44.9543 13.2062 45.5235 10.0737C45.7269 8.94733 45.8291 8.31642 45.8291 8.18123C45.8291 7.26838 45.6088 6.81238 45.1693 6.81238C45.0187 6.81238 44.8819 6.85745 44.7582 6.94758C44.635 7.03771 44.5113 7.13319 44.3882 7.23487C44.2645 7.33626 44.1389 7.43202 44.0098 7.52215C43.881 7.61228 43.7332 7.65735 43.5671 7.65735C43.4004 7.65735 43.3175 7.50497 43.3175 7.20079C43.3175 6.58143 43.5912 6.07445 44.1389 5.68013C44.6645 5.27426 45.3034 5.07175 46.0542 5.07175C47.0202 5.07175 47.5893 5.54494 47.7613 6.4913C47.8037 6.77295 47.8362 7.07151 47.8577 7.38668C48.6517 5.82124 49.6552 5.03796 50.8686 5.03796C52.1888 5.03796 52.9455 5.70294 53.1389 7.03207C53.2033 7.41513 53.2302 7.82634 53.2192 8.26572V8.40064C53.9166 7.38668 54.743 6.87998 55.6985 6.87998C57.0512 6.87998 57.7271 7.73621 57.7271 9.44867C57.7271 10.1922 57.6171 11.0626 57.3971 12.0593C57.177 13.0567 57.016 13.7724 56.9143 14.2058C56.8121 14.6393 56.7614 14.9747 56.7614 15.2113C56.7614 15.6395 56.9033 15.8532 57.188 15.8532C57.4719 15.8532 58.1511 15.2679 59.2244 14.0957C59.4179 13.8707 59.5574 13.758 59.6433 13.758Z" fill="#8CD7F8"/>
<path d="M36.7125 11.5161C36.983 11.5161 37.1193 11.7879 37.1193 12.3306C37.1193 12.8737 37.0028 13.4567 36.7686 14.08C36.5354 14.7033 36.1815 15.3041 35.7068 15.882C35.2319 16.4608 34.6257 16.9554 33.8878 17.3641C33.1488 17.7739 32.2789 17.9787 31.2775 17.9787C30.275 17.9787 29.3978 17.6277 28.6449 16.9241C27.8912 16.2206 27.515 15.2055 27.515 13.8792C27.515 12.5537 27.6915 11.3516 28.0457 10.2746C28.3997 9.1975 28.8665 8.2672 29.4467 7.48392C30.0265 6.70035 30.6861 6.09057 31.4243 5.65429C32.1624 5.21856 32.8625 5 33.5256 5C34.6858 5 35.2659 5.5436 35.2659 6.62909C35.2659 7.25268 35.157 7.75064 34.9386 8.12468C34.7194 8.49816 34.4977 8.68517 34.2718 8.68517C33.9699 8.68517 33.707 8.56097 33.481 8.31114C33.2545 8.06244 33.0061 7.93316 32.7348 7.92442C32.4632 7.91569 31.7269 7.89429 31.1007 8.95049C30.663 9.68871 30.7304 9.61379 30.564 10.1123C30.2329 11.1097 30.0386 11.8752 30.0386 13.2102C30.0536 13.8513 30.5997 14.8314 31.0819 15.1523C31.413 15.3655 31.8082 15.5449 32.2572 15.4855C33.2253 15.3579 33.7687 14.876 34.1645 14.4309C34.5296 14.02 34.8514 13.6305 35.1983 13.2114C35.5442 12.7934 35.8493 12.4067 36.1136 12.0501C36.3771 11.6941 36.5762 11.5161 36.7125 11.5161Z" fill="#8CD7F8"/>
</svg>
