<svg width="24" height="24" viewBox="0 0 24 24" fill="none" xmlns="http://www.w3.org/2000/svg">
<path fill-rule="evenodd" clip-rule="evenodd" d="M17.34 12.8617C17.7785 12.7812 18.2262 12.7542 18.672 12.7812C18.8149 13.4727 17.9117 13.8532 17.3228 13.6066C17.2478 13.5731 17.1844 13.5203 17.1401 13.4544C17.0957 13.3885 17.0721 13.3121 17.0721 13.2342C17.0721 13.1562 17.0957 13.0798 17.1401 13.0139C17.1844 12.948 17.2478 12.8952 17.3228 12.8617H17.34ZM12.6008 10.0369C13.2159 9.99054 13.835 10.0339 14.4359 10.1655C14.6467 10.2709 14.8071 10.4473 14.8845 10.6592C14.962 10.8712 14.9508 11.1027 14.8532 11.3072C14.789 11.4626 14.6803 11.5983 14.5391 11.6995C14.3979 11.8007 14.2296 11.8634 14.0529 11.8807C13.5701 11.9201 13.0852 11.9326 12.6008 11.9183C12.6008 11.2893 12.6008 10.6622 12.6008 10.0369ZM20.0326 10.6693C20.6042 11.9289 21.1416 13.1832 21.6962 14.4214C21.5818 14.6626 21.5018 14.9575 21.2045 15.07C21.0917 15.0906 20.9754 15.0879 20.8638 15.062C20.7522 15.036 20.648 14.9876 20.5585 14.9199C20.5585 15.1933 20.5585 15.4559 20.5585 15.7347C20.726 15.8201 20.9109 15.8714 21.101 15.8853C21.2912 15.8991 21.4823 15.8752 21.6619 15.8151C22.0183 15.5928 22.2779 15.2581 22.3936 14.8717C22.931 13.4673 23.4569 12.0576 24 10.6586H23.0282C22.7137 11.5001 22.4565 12.3632 22.1249 13.1886C21.759 12.3524 21.416 11.5001 21.0502 10.6586L20.0326 10.6693ZM16.4425 10.932C16.4425 11.2964 16.4425 11.6609 16.4425 12.004C16.6467 11.7351 16.9362 11.5334 17.2698 11.4275C17.6033 11.3217 17.9639 11.3171 18.3004 11.4144C18.6491 11.5216 18.6548 11.9129 18.672 12.2023C18.1336 12.1808 17.5943 12.2023 17.0599 12.2666C16.8518 12.289 16.6561 12.371 16.4996 12.5015C16.3431 12.6319 16.2333 12.8045 16.1852 12.9957C16.1161 13.2333 16.1275 13.4852 16.2176 13.7166C16.3077 13.948 16.4721 14.1474 16.6883 14.2874C17.0342 14.4641 17.4402 14.507 17.8194 14.4068C18.1986 14.3067 18.521 14.0714 18.7177 13.7514C18.7177 13.9694 18.7177 14.1891 18.7177 14.4107H19.5867C19.5867 13.5102 19.5867 12.6097 19.5867 11.7306C19.5725 11.4839 19.4708 11.2487 19.2979 11.0623C19.125 10.8759 18.8906 10.7489 18.632 10.7015C17.9027 10.531 17.1317 10.6228 16.471 10.9588L16.4425 10.932ZM7.53576 9.55981C6.42671 10.3424 5.31385 11.1196 4.19718 11.8914C3.67123 11.5698 3.13386 11.2589 2.60221 10.9427C2.60221 11.3286 2.60221 11.7146 2.60221 12.1005C3.13958 12.4007 3.65981 12.7223 4.18575 13.0385C5.47773 12.1487 6.75828 11.2482 8.03883 10.3585C7.88915 10.085 7.71913 9.82167 7.53004 9.57054L7.53576 9.55981ZM11.6004 9.1739C11.6004 10.9177 11.6004 12.6615 11.6004 14.4054H12.5779C12.5779 13.8694 12.5779 13.3333 12.5779 12.7973C13.4469 12.7973 14.3901 12.867 15.1562 12.406C15.5039 12.1517 15.752 11.7965 15.8617 11.396C15.9713 10.9955 15.9363 10.5722 15.7622 10.1923C15.6239 9.92678 15.4129 9.70053 15.1507 9.53665C14.8885 9.37277 14.5846 9.27716 14.2701 9.25961C13.3768 9.18537 12.4795 9.1621 11.5832 9.18993L11.6004 9.1739ZM0.00108191 11.8968C0.0314181 10.8714 0.479804 9.89582 1.25397 9.17095C2.02813 8.44608 3.06918 8.02703 4.16288 8C5.14086 8.00726 6.0891 8.31619 6.86118 8.87907L6.03797 9.45793C5.57548 9.16379 5.03963 8.98696 4.4826 8.94469C3.92558 8.90242 3.36637 8.99617 2.85946 9.21675C2.27443 9.47599 1.78421 9.89164 1.45043 10.4114C1.11665 10.9311 0.954209 11.5318 0.983535 12.1379C1.01286 12.7439 1.23265 13.3284 1.61525 13.8177C1.99786 14.3069 2.5262 14.6792 3.13386 14.8877C3.57553 15.0363 4.0466 15.0922 4.51381 15.0514C4.98103 15.0107 5.43302 14.8743 5.83789 14.6519C6.33673 14.3682 6.74789 13.9671 7.03065 13.4886C7.31341 13.0101 7.45796 12.4706 7.45001 11.9236C7.74728 11.7039 8.05598 11.5001 8.35326 11.2804C8.50827 12.1104 8.38232 12.9651 7.9931 13.7246C7.68637 14.3338 7.21964 14.86 6.63669 15.2537C6.05373 15.6475 5.37364 15.896 4.66023 15.9758C3.82937 16.0647 2.98971 15.9072 2.2592 15.5256C1.56208 15.1753 0.982065 14.6508 0.583478 14.0102C0.18489 13.3697 -0.0166946 12.6382 0.00108191 11.8968Z" fill="#219F38"/>
</svg>
