<svg width="24" height="24" viewBox="0 0 24 24" fill="none" xmlns="http://www.w3.org/2000/svg">
<g clip-path="url(#clip0_5305_80794)">
<path fill-rule="evenodd" clip-rule="evenodd" d="M83.4364 9.92523C83.3625 9.94045 83.2886 10.1077 83.2886 10.1988C83.2737 10.8068 83.2589 12.418 83.2589 13.5123C83.2589 13.5428 83.3032 13.6035 83.3477 13.6035C83.5696 13.6187 84.1023 13.6339 84.561 13.6339C85.1972 13.6339 85.5671 13.5428 85.7744 13.4516C86.3069 13.178 86.5585 12.5851 86.5585 11.9315C86.5585 10.4572 85.5523 9.8948 84.0579 9.8948C83.9543 9.87973 83.6585 9.87973 83.4364 9.92523ZM87.254 16.7194C87.254 15.2147 86.1738 14.3787 84.2207 14.3787C84.1319 14.3787 83.5105 14.3635 83.3625 14.3939C83.318 14.4091 83.2589 14.4395 83.2589 14.4852C83.2589 15.5643 83.2441 17.2819 83.2886 17.9505C83.318 18.2394 83.5253 18.6498 83.7768 18.7714C84.0431 18.9234 84.6498 18.9537 85.064 18.9537C86.233 18.9537 87.254 18.285 87.254 16.7194ZM80.418 9.08933C80.5659 9.08933 81.0099 9.13483 82.1492 9.13483C83.2293 9.13483 84.0875 9.10454 85.1381 9.10454C86.4253 9.10454 88.2009 9.57568 88.2009 11.5515C88.2009 12.5244 87.535 13.2996 86.662 13.6796C86.6177 13.6948 86.6177 13.7251 86.662 13.7403C87.9049 14.0596 89 14.85 89 16.3395C89 17.7987 88.1122 18.7257 86.8248 19.3034C86.0406 19.6529 85.064 19.7745 84.0727 19.7745C83.318 19.7745 81.291 19.6834 80.1665 19.7138C80.0481 19.6682 80.27 19.1209 80.3736 19.0298C80.6399 19.0146 80.8471 18.9993 81.1282 18.9082C81.5278 18.8018 81.5721 18.6802 81.6313 18.0571C81.6609 17.5251 81.6609 15.6402 81.6609 14.3027C81.6609 12.4635 81.6757 11.2172 81.6609 10.6093C81.6461 10.1381 81.4833 9.9861 81.1578 9.8948C80.9063 9.84929 80.492 9.78843 80.1517 9.74292C80.0776 9.66684 80.3292 9.15005 80.418 9.08933ZM71.8804 18.5434C72.2356 18.8321 72.931 18.9537 73.5524 18.9537C74.3515 18.9537 75.1504 18.8018 75.9199 18.0874C76.7041 17.3578 77.2515 16.2331 77.2515 14.4395C77.2515 12.7219 76.6152 11.3236 75.3132 10.5029C74.5734 10.0316 73.6264 9.83408 72.5314 9.83408C72.206 9.83408 71.8952 9.84929 71.7029 9.94045C71.6584 9.97088 71.5549 10.1077 71.5549 10.1836C71.5253 10.4877 71.5253 12.8283 71.5253 14.1964C71.5253 15.6099 71.5253 17.5858 71.5549 17.8137C71.5549 18.0418 71.6584 18.3914 71.8804 18.5434ZM68.5215 9.08933C68.8027 9.08933 69.8828 9.13483 70.4007 9.13483C71.333 9.13483 71.9987 9.08933 73.7595 9.08933C75.2392 9.08933 76.4821 9.49974 77.3699 10.2748C78.45 11.2324 79.0123 12.5548 79.0123 14.1659C79.0123 16.461 77.9913 17.7835 76.9703 18.5434C75.9495 19.3186 74.6177 19.7745 72.7239 19.7745C71.7177 19.7745 69.9865 19.7441 68.5512 19.7289H68.5364C68.4624 19.5922 68.6547 19.0602 68.7731 19.045C69.1578 18.9993 69.2614 18.9841 69.4538 18.9082C69.7645 18.7866 69.8237 18.6194 69.8681 18.0571C69.9124 17.0083 69.8976 15.7467 69.8976 14.3179C69.8976 13.2996 69.9124 11.3084 69.8828 10.67C69.8385 10.1381 69.6166 10.0013 69.1726 9.91002C68.9507 9.86451 68.6547 9.80364 68.2405 9.75814C68.1813 9.65162 68.4476 9.18048 68.5215 9.08933Z" fill="#8E714E"/>
<path fill-rule="evenodd" clip-rule="evenodd" d="M12.6204 23.4073L12.0138 23.1944C12.0138 23.1944 12.0878 20.0177 10.9781 19.7897C10.2383 18.9082 11.0965 -17.601 13.7598 19.6682C13.7598 19.6682 12.8425 20.1393 12.6797 20.9449C12.5021 21.7353 12.6204 23.4073 12.6204 23.4073Z" fill="#A6A385"/>
<path fill-rule="evenodd" clip-rule="evenodd" d="M12.946 20.337C12.946 20.337 18.2579 16.7499 17.015 9.28685C15.8166 3.86071 12.9903 2.08238 12.6797 1.39835C12.3394 0.91199 12.0138 0.0608657 12.0138 0.0608657L12.2358 15.1539C12.2358 15.1691 11.7771 19.7745 12.946 20.337Z" fill="#499D4A"/>
<path fill-rule="evenodd" clip-rule="evenodd" d="M11.7031 20.5345C11.7031 20.5345 6.71669 17.0386 7.01267 10.8829C7.29371 4.72705 10.8153 1.70239 11.4959 1.15517C11.9399 0.668812 11.9547 0.486357 11.9843 0C12.295 0.684028 12.2358 10.2293 12.2801 11.354C12.4133 15.6859 12.0434 19.7138 11.7031 20.5345Z" fill="#58AA50"/>
</g>
<defs>
<clipPath id="clip0_5305_80794">
<rect width="24" height="24" fill="white"/>
</clipPath>
</defs>
</svg>
