<svg width="24" height="25" viewBox="0 0 24 25" fill="none" xmlns="http://www.w3.org/2000/svg">
<g clip-path="url(#clip0_643_943)">
<path d="M22.9149 9.22372C23.2375 9.22371 23.5469 9.35143 23.7755 9.57893C24.0041 9.80642 24.1334 10.1152 24.1349 10.4377V23.1427C24.1349 23.8117 23.5939 24.3577 22.9209 24.3577H1.25895C0.936707 24.3577 0.627667 24.2297 0.399811 24.0019C0.171954 23.774 0.0439453 23.465 0.0439453 23.1427V0.101719C0.0439453 -0.566281 0.584945 -1.11228 1.25995 -1.11228H3.89295C4.56095 -1.11228 5.10695 -0.572281 5.10695 0.101719V8.08072C5.12482 8.36519 5.24087 8.63465 5.43528 8.8431C5.62968 9.05155 5.89041 9.18607 6.17295 9.22372H8.14295C8.73995 9.16872 9.23695 8.68272 9.26995 8.08072V0.100719C9.26995 -0.567281 9.80995 -1.11328 10.4839 -1.11328H13.1169C13.7849 -1.11328 14.3319 -0.573281 14.3319 0.100719V7.99672C14.3319 8.62072 14.7899 9.15072 15.3919 9.22272H22.9159L22.9149 9.22372ZM19.4479 17.9367V15.4507C19.4479 14.7827 18.9079 14.2357 18.2339 14.2357H15.5999C14.9319 14.2357 14.3849 14.7767 14.3849 15.4507V17.9357C14.3849 18.6037 14.9259 19.1497 15.5999 19.1497H18.2329C18.9009 19.1497 19.4469 18.6097 19.4469 17.9357L19.4479 17.9367ZM41.6679 24.3807L40.4089 18.5047C40.2532 17.7177 40.0543 16.9398 39.8129 16.1747C39.5979 15.4957 39.2929 14.9267 38.9129 14.4637C38.5269 13.9997 38.0239 13.6517 37.3999 13.4087C36.7769 13.1717 35.9599 13.0497 34.9499 13.0497H32.3049V24.3797H29.4239V-1.06828H35.7279C36.7709 -1.06828 37.7809 -0.958281 38.7639 -0.743281C39.7409 -0.527281 40.6079 -0.168281 41.3589 0.328719C42.1142 0.832736 42.7354 1.51298 43.1689 2.31072C43.6269 3.13372 43.8539 4.14372 43.8539 5.34772C43.8539 6.26972 43.7439 7.08672 43.5279 7.78772C43.3314 8.45339 43.0006 9.07175 42.5559 9.60472C42.1259 10.1127 41.5849 10.5427 40.9449 10.8907C40.3049 11.2387 39.5479 11.5207 38.6869 11.7357V11.8077C39.5259 12.0227 40.1989 12.2987 40.7019 12.6247C41.2039 12.9557 41.6069 13.3477 41.9109 13.8067C42.2089 14.2647 42.4409 14.7887 42.6059 15.3797C42.7719 15.9707 42.9259 16.6497 43.0809 17.4067L44.5489 24.3797L41.6679 24.3807ZM40.9669 5.65072C40.9669 4.59672 40.7789 3.77372 40.4089 3.19372C40.0548 2.62941 39.5421 2.18208 38.9349 1.90772C38.3219 1.63172 37.6269 1.46572 36.8479 1.41072C36.0508 1.35484 35.252 1.32715 34.4529 1.32772H32.3099V10.6587H33.8939C34.7609 10.6587 35.6109 10.5987 36.4609 10.4717C37.2539 10.3621 38.0218 10.115 38.7299 9.74172C39.3953 9.3854 39.9551 8.86012 40.3529 8.21872C40.7559 7.56172 40.9669 6.70572 40.9669 5.65072ZM57.8199 24.3807V22.0557H57.7489C57.5064 22.5148 57.1762 22.9218 56.7769 23.2537C56.3679 23.5957 55.9209 23.8837 55.4349 24.1097C54.9457 24.3364 54.4329 24.5085 53.9059 24.6227C53.4002 24.7344 52.8839 24.7918 52.3659 24.7937C51.6099 24.7937 50.9359 24.6777 50.3509 24.4407C49.7906 24.2284 49.2863 23.8904 48.8769 23.4527C48.4674 23.0055 48.1572 22.4765 47.9669 21.9007C47.7569 21.2937 47.6519 20.6207 47.6519 19.8747C47.6519 19.2007 47.7839 18.6047 48.0489 18.0747C48.3139 17.5447 48.6619 17.0807 49.1039 16.6777C49.5607 16.2623 50.0733 15.9129 50.6269 15.6397C51.2069 15.3467 51.8029 15.1147 52.4209 14.9377C53.5947 14.5987 54.8093 14.422 56.0309 14.4127C56.3299 14.4127 56.6219 14.4077 56.8979 14.4027C57.1739 14.3967 57.4609 14.3637 57.7649 14.3027V13.9277C57.7649 13.2817 57.7539 12.6357 57.7369 11.9897C57.7296 11.3953 57.6197 10.8067 57.4119 10.2497C57.2207 9.74576 56.882 9.31118 56.4399 9.00272C55.9929 8.68772 55.3249 8.52772 54.4529 8.52772C53.9339 8.52772 53.4699 8.57772 53.0559 8.67172C52.6717 8.75224 52.3077 8.90974 51.9859 9.13472C51.6783 9.36069 51.4282 9.65601 51.2559 9.99672C51.0689 10.3557 50.9419 10.7967 50.8699 11.3217H48.0769C48.0869 10.4317 48.2759 9.68172 48.6449 9.06372C49.0006 8.45737 49.4896 7.93996 50.0749 7.55072C50.6896 7.14981 51.37 6.86007 52.0849 6.69472C52.8367 6.5133 53.6076 6.42265 54.3809 6.42472C56.3739 6.42472 57.8529 6.87672 58.8189 7.77672C59.7859 8.67672 60.2709 10.1067 60.2709 12.0617V24.3797H57.8209L57.8199 24.3807ZM56.2699 16.4177C55.7059 16.4177 55.0879 16.4787 54.4249 16.6057C53.7769 16.7257 53.1488 16.9358 52.5589 17.2297C51.9789 17.5227 51.4989 17.8977 51.1079 18.3727C50.716 18.8477 50.5219 19.4327 50.5219 20.1287C50.5219 20.8737 50.7489 21.4867 51.1959 21.9667C51.6489 22.4467 52.2449 22.6847 52.9899 22.6847C53.4319 22.6847 53.8619 22.6187 54.2699 22.4747C54.6756 22.3398 55.0604 22.1486 55.4129 21.9067C55.772 21.6618 56.0968 21.3703 56.3789 21.0397C56.6669 20.7027 56.9039 20.3377 57.0809 19.9397C57.2239 19.6147 57.3399 19.3167 57.4339 19.0517C57.6132 18.5189 57.7136 17.9626 57.7319 17.4007C57.7429 17.1137 57.7489 16.7827 57.7489 16.4127H56.2689L56.2699 16.4177ZM79.2449 15.7887C79.2449 16.9427 79.1289 18.0587 78.8919 19.1397C78.6539 20.2227 78.2619 21.1827 77.7099 22.0227C77.1605 22.8602 76.4158 23.5517 75.5399 24.0377C74.646 24.5397 73.5309 24.7937 72.1999 24.7937C70.9639 24.7937 69.9259 24.6007 69.0869 24.2197C68.2479 23.8337 67.5689 23.3037 67.0609 22.6187C66.5539 21.9337 66.1839 21.1287 65.9629 20.1947C65.7348 19.1987 65.6237 18.1795 65.632 17.1577V-1.06828H68.132V9.73672H68.2209C68.3662 9.23037 68.6035 8.75511 68.9209 8.33472C69.2302 7.93254 69.6015 7.58215 70.021 7.29672C70.447 7.01211 70.9141 6.79427 71.4059 6.65072C71.9149 6.49966 72.4431 6.4232 72.9739 6.42372C73.8129 6.42372 74.5529 6.55672 75.1869 6.82672C75.8219 7.09772 76.3739 7.46672 76.8319 7.93672C77.2959 8.40672 77.6819 8.94672 77.9919 9.56672C78.3086 10.1949 78.5567 10.8554 78.7319 11.5367C78.9139 12.2327 79.0409 12.9447 79.1179 13.6737C79.2059 14.3967 79.2449 15.1037 79.2449 15.7887ZM76.3629 15.7227C76.3601 15.2638 76.3401 14.8051 76.3029 14.3477C76.2566 13.8235 76.1845 13.3019 76.0869 12.7847C75.9869 12.2497 75.8439 11.7297 75.6619 11.2227C75.4935 10.739 75.2575 10.2814 74.9609 9.86372C74.6833 9.47513 74.3282 9.14826 73.9179 8.90372C73.5089 8.65472 73.0339 8.53372 72.4929 8.53372C71.9189 8.53372 71.4059 8.66572 70.9639 8.93072C70.5159 9.20112 70.1244 9.55563 69.8109 9.97472C69.4849 10.4047 69.2139 10.8967 68.9989 11.4487C68.7847 11.998 68.6132 12.563 68.4859 13.1387C68.3628 13.6959 68.2726 14.2599 68.216 14.8277C68.1638 15.3174 68.1357 15.8093 68.132 16.3017C68.132 16.9757 68.1819 17.6817 68.2759 18.4217C68.3699 19.1677 68.563 19.8577 68.8439 20.4927C69.1259 21.1277 69.5289 21.6527 70.0539 22.0667C70.5779 22.4807 71.268 22.6847 72.1339 22.6847C72.7089 22.6847 73.2169 22.5747 73.6579 22.3587C74.0882 22.147 74.4713 21.8504 74.7839 21.4867C75.0989 21.1227 75.3529 20.6967 75.5569 20.2167C75.7609 19.7367 75.9219 19.2397 76.0429 18.7267C76.1639 18.2127 76.2469 17.6937 76.2969 17.1797C76.3409 16.6667 76.3629 16.1797 76.3629 15.7227ZM96.9819 15.7887C96.9819 16.9427 96.8659 18.0587 96.6279 19.1397C96.3909 20.2227 95.9989 21.1827 95.4479 22.0227C94.8985 22.8602 94.1538 23.5517 93.2779 24.0377C92.3829 24.5397 91.268 24.7937 89.938 24.7937C88.701 24.7937 87.6629 24.6007 86.8239 24.2197C85.9849 23.8337 85.3059 23.3037 84.7979 22.6187C84.2899 21.9337 83.9209 21.1287 83.6999 20.1947C83.4718 19.1987 83.3607 18.1795 83.3689 17.1577V-1.06828H85.8689V9.73672H85.9579C86.1032 9.23037 86.3405 8.75511 86.6579 8.33472C86.9672 7.93254 87.3385 7.58215 87.7579 7.29672C88.1839 7.01194 88.651 6.79408 89.1429 6.65072C89.6519 6.49966 90.1801 6.4232 90.7109 6.42372C91.5499 6.42372 92.2889 6.55672 92.924 6.82672C93.559 7.09772 94.1109 7.46672 94.5689 7.93672C95.0329 8.40672 95.4189 8.94672 95.7289 9.56672C96.0456 10.1949 96.2937 10.8554 96.4689 11.5367C96.6509 12.2327 96.7769 12.9447 96.8549 13.6737C96.9429 14.3967 96.9819 15.1037 96.9819 15.7887ZM94.0999 15.7227C94.0971 15.2638 94.0771 14.8051 94.0399 14.3477C93.9936 13.8235 93.9215 13.3019 93.8239 12.7847C93.7239 12.2497 93.5809 11.7297 93.3989 11.2227C93.2305 10.739 92.9945 10.2814 92.6979 9.86372C92.4203 9.47513 92.0652 9.14826 91.6549 8.90372C91.2459 8.65472 90.771 8.53372 90.2299 8.53372C89.656 8.53372 89.1429 8.66572 88.7009 8.93072C88.2525 9.20101 87.8607 9.55553 87.5469 9.97472C87.2219 10.4047 86.9509 10.8967 86.7359 11.4487C86.5217 11.998 86.3502 12.563 86.2229 13.1387C86.0998 13.6959 86.0096 14.2599 85.9529 14.8277C85.9008 15.3174 85.8727 15.8093 85.8689 16.3017C85.8689 16.9757 85.9189 17.6817 86.0129 18.4217C86.1069 19.1677 86.2999 19.8577 86.5809 20.4927C86.8629 21.1277 87.2659 21.6527 87.7909 22.0667C88.3149 22.4807 89.005 22.6847 89.8709 22.6847C90.4459 22.6847 90.9539 22.5747 91.3949 22.3587C91.8252 22.147 92.2083 21.8504 92.521 21.4867C92.836 21.1227 93.0899 20.6967 93.2939 20.2167C93.4976 19.7346 93.6602 19.2362 93.7799 18.7267C93.9009 18.2127 93.9839 17.6937 94.0339 17.1797C94.0779 16.6667 94.0999 16.1797 94.0999 15.7227ZM101.41 2.24472V-1.06928H104.721V2.24372H101.409L101.41 2.24472ZM101.807 24.3797V6.82172H104.307V24.3797H101.807ZM114.194 8.92572V19.7307C114.194 20.6697 114.421 21.3927 114.879 21.9117C115.337 22.4317 116.066 22.6847 117.065 22.6847C117.361 22.6899 117.658 22.662 117.948 22.6017C118.231 22.5328 118.51 22.4459 118.782 22.3417V24.5957C118.412 24.6557 118.042 24.7057 117.672 24.7387C117.308 24.7777 116.938 24.7937 116.562 24.7937C115.734 24.7937 115.017 24.7167 114.41 24.5617C113.802 24.4077 113.294 24.1537 112.886 23.7947C112.477 23.4417 112.174 22.9777 111.976 22.3977C111.776 21.8177 111.677 21.1057 111.677 20.2557V8.92572H108.812V6.81572H111.677V2.73072L114.177 1.14672V6.81672H118.914V8.92672L114.194 8.92572Z" fill="#FF6600"/>
</g>
<defs>
<clipPath id="clip0_643_943">
<rect width="24" height="24" fill="white" transform="translate(0 0.5)"/>
</clipPath>
</defs>
</svg>
