<svg width="24" height="24" viewBox="0 0 24 24" fill="none" xmlns="http://www.w3.org/2000/svg">
<path d="M19.7328 8.80649C19.4838 8.72221 19.2259 8.64247 18.9602 8.56706C19.0039 8.39182 19.044 8.21886 19.0796 8.04883C19.6644 5.25693 19.282 3.00776 17.9763 2.26724C16.7243 1.55718 14.6767 2.29753 12.6087 4.06746C12.4099 4.23765 12.2104 4.41785 12.0111 4.6067C11.8783 4.48175 11.7457 4.361 11.6134 4.24551C9.44613 2.35299 7.27375 1.55545 5.96931 2.29812C4.71847 3.01024 4.34805 5.12468 4.87449 7.77058C4.92532 8.02614 4.98475 8.28713 5.05194 8.55248C4.74449 8.63831 4.44767 8.72982 4.16367 8.82716C1.62275 9.69839 0 11.0638 0 12.4801C0 13.9429 1.74202 15.4101 4.38859 16.2997C4.59745 16.3699 4.81417 16.4363 5.0375 16.4993C4.96501 16.7863 4.90195 17.0675 4.84903 17.3418C4.34707 19.9418 4.73906 22.0063 5.98656 22.7139C7.27512 23.4447 9.43767 22.6935 11.5435 20.8833C11.7099 20.7402 11.8769 20.5884 12.0443 20.4294C12.2611 20.6348 12.4777 20.8292 12.6931 21.0115C14.7328 22.7377 16.7473 23.4347 17.9937 22.7251C19.2809 21.9923 19.6993 19.7745 19.1561 17.0763C19.1147 16.8702 19.0664 16.6597 19.0122 16.4454C19.164 16.4012 19.3131 16.3557 19.4585 16.3083C22.2099 15.4117 24 13.9624 24 12.4801C24 11.0587 22.3249 9.68406 19.7328 8.80649ZM19.1361 15.3512C19.0048 15.3939 18.8702 15.4352 18.733 15.4752C18.4292 14.5296 18.0193 13.524 17.5176 12.485C17.9963 11.4708 18.3904 10.4781 18.6857 9.53857C18.9312 9.60844 19.1695 9.68213 19.3991 9.7599C21.62 10.5118 22.9747 11.6235 22.9747 12.4801C22.9747 13.3926 21.5117 14.577 19.1361 15.3512ZM18.1504 17.2721C18.3905 18.4652 18.4248 19.5439 18.2657 20.3872C18.1228 21.145 17.8353 21.6502 17.4799 21.8525C16.7236 22.2831 15.1061 21.7234 13.3617 20.2472C13.1618 20.0779 12.9603 19.8972 12.7583 19.706C13.4345 18.9786 14.1104 18.133 14.77 17.1939C15.9303 17.0927 17.0264 16.9271 18.0204 16.7011C18.0694 16.8954 18.1129 17.0858 18.1504 17.2721ZM8.18214 21.7781C7.44318 22.0348 6.85463 22.0421 6.49886 21.8404C5.74182 21.411 5.42711 19.7534 5.8564 17.5299C5.90557 17.2752 5.96409 17.0137 6.03155 16.7463C7.0147 16.9601 8.10281 17.114 9.26581 17.2067C9.92989 18.1256 10.6253 18.9703 11.3261 19.7099C11.1729 19.8553 11.0204 19.9937 10.8688 20.1241C9.93762 20.9245 9.0045 21.4925 8.18214 21.7781ZM4.72018 15.3456C3.54992 14.9522 2.58347 14.441 1.92102 13.8831C1.32576 13.3817 1.02523 12.884 1.02523 12.4801C1.02523 11.6207 2.32814 10.5244 4.50116 9.77931C4.76482 9.68889 5.04084 9.60369 5.32727 9.52366C5.62759 10.4844 6.02155 11.4889 6.49698 12.5047C6.0154 13.5355 5.61584 14.556 5.31258 15.528C5.10838 15.4703 4.91054 15.4095 4.72018 15.3456ZM5.88066 7.57694C5.42963 5.31 5.72918 3.59989 6.48297 3.17077C7.28588 2.71363 9.06136 3.36542 10.9326 4.99952C11.0523 5.10396 11.1723 5.21328 11.2928 5.32638C10.5955 6.06274 9.90644 6.90107 9.24825 7.81461C8.11952 7.9175 7.03905 8.08278 6.04565 8.3041C5.98319 8.05702 5.92787 7.81427 5.88066 7.57694ZM16.2332 10.091C15.9957 9.68755 15.7519 9.29368 15.5034 8.91056C16.2691 9.00576 17.0028 9.13214 17.6918 9.28679C17.4849 9.93875 17.2271 10.6204 16.9236 11.3192C16.7059 10.9127 16.4757 10.5029 16.2332 10.091ZM12.0114 6.04699C12.4844 6.55085 12.9579 7.11341 13.4238 7.72377C12.9544 7.70197 12.4791 7.69063 12 7.69063C11.5254 7.69063 11.0537 7.70172 10.5872 7.72314C11.0535 7.11845 11.5312 6.55665 12.0114 6.04699ZM7.76268 10.0979C7.52546 10.5025 7.29947 10.9101 7.08519 11.3185C6.78662 10.6221 6.5312 9.93732 6.32255 9.27612C7.00731 9.12541 7.73752 9.00219 8.4984 8.90879C8.24635 9.29544 8.00054 9.69221 7.76268 10.0978V10.0979ZM8.52031 16.1234C7.73418 16.0371 6.993 15.9202 6.30841 15.7737C6.52039 15.1007 6.78145 14.4013 7.08634 13.6899C7.30118 14.098 7.52806 14.5058 7.76674 14.9112C8.00985 15.3242 8.26177 15.7288 8.52031 16.1234ZM12.0398 18.9843C11.5539 18.4687 11.0692 17.8983 10.5958 17.2848C11.0553 17.3025 11.5238 17.3116 12 17.3116C12.4892 17.3116 12.9728 17.3008 13.4488 17.2799C12.9814 17.9045 12.5095 18.4758 12.0398 18.9843ZM16.9334 13.6537C17.2542 14.3727 17.5246 15.0685 17.7393 15.73C17.0434 15.8861 16.2921 16.0119 15.5005 16.1053C15.7497 15.717 15.9956 15.3164 16.2373 14.9043C16.4818 14.4873 16.7139 14.0698 16.9334 13.6537ZM15.3492 14.4005C14.974 15.0403 14.5889 15.651 14.1978 16.2274C13.4857 16.2775 12.7499 16.3033 12 16.3033C11.2531 16.3033 10.5266 16.2805 9.82706 16.2358C9.42029 15.6518 9.02675 15.0393 8.65398 14.406H8.65407C8.28228 13.7745 7.94009 13.1376 7.63003 12.5043C7.94001 11.8695 8.28129 11.232 8.65095 10.6015L8.65086 10.6017C9.0215 9.96958 9.41157 9.36006 9.81459 8.77969C10.5283 8.72663 11.2603 8.69894 12 8.69894C12.743 8.69894 13.4759 8.72684 14.1894 8.78036C14.5863 9.35649 14.9737 9.96404 15.3458 10.5962C15.7221 11.2355 16.0678 11.8688 16.3804 12.49C16.0688 13.1218 15.7238 13.7616 15.3492 14.4005ZM17.4642 3.14078C18.2679 3.59658 18.5804 5.43482 18.0755 7.84532C18.0433 7.99913 18.007 8.15579 17.9676 8.31456C16.9719 8.08862 15.8907 7.92048 14.7586 7.81603C14.0992 6.89246 13.4158 6.05283 12.7298 5.32592C12.9142 5.15144 13.0984 4.98507 13.2818 4.82806C15.0536 3.3116 16.7097 2.71287 17.4642 3.14078ZM12 10.3724C13.1836 10.3724 14.1431 11.3161 14.1431 12.4801C14.1431 13.6441 13.1836 14.5878 12 14.5878C10.8164 14.5878 9.85688 13.6441 9.85688 12.4801C9.85688 11.3161 10.8164 10.3724 12 10.3724Z" fill="#00D8FF"/>
</svg>
