<svg width="70" height="70" viewBox="0 0 70 70" fill="none" xmlns="http://www.w3.org/2000/svg">
<circle cx="35" cy="35" r="35" fill="#E9F8FF"/>
<path d="M22.6055 25.3746L26.6715 21.3086L27.6615 22.2986L23.5955 26.3646L22.6055 25.3746ZM29.71 26.3971L33.7765 22.3321L34.7665 23.3221L30.7 27.3871L29.71 26.3971ZM43.6545 46.4256L47.7215 42.3606L48.7115 43.3511L44.6445 47.4161L43.6545 46.4256ZM42.639 39.2771L46.706 35.2121L47.696 36.2026L43.6285 40.2676L42.639 39.2771Z" fill="#ACB8BF"/>
<path d="M47.1983 49.3498L44.8483 28.2998L41.6983 25.1498L20.6483 22.7998C19.6483 22.6998 19.8483 25.1998 20.9983 25.7498L36.8483 33.1498L44.2483 48.9998C44.7983 50.1498 47.2983 50.3498 47.1983 49.3498Z" fill="#42ADE2"/>
<path d="M49.6517 23.0507C50.7517 20.9007 49.1017 19.2507 46.9517 20.3507C44.2017 21.7507 40.1517 24.9007 36.0517 28.9507C29.6517 35.3507 25.5517 41.7007 26.9017 43.1007C28.2517 44.4507 34.6517 40.3507 41.0517 33.9507C45.1017 29.9007 48.2517 25.8007 49.6517 23.0507Z" fill="#DAE3EA"/>
<path d="M30.1981 49.0989L29.3981 41.6989L28.2981 40.5989L20.8981 39.7989C20.5481 39.7489 20.5981 40.6489 20.9981 40.8489L26.5481 43.4489L29.1481 48.9989C29.3481 49.3989 30.2481 49.4489 30.1981 49.0989Z" fill="#42ADE2"/>
<path d="M29.0981 42.1017C26.8481 44.3517 24.7981 45.9017 24.4981 45.5517C24.1981 45.2517 25.7481 43.1517 27.9481 40.9017C30.1981 38.6517 32.2481 37.1017 32.5981 37.4517C32.8481 37.7517 31.2981 39.8517 29.0981 42.1017Z" fill="#ACB8BF"/>
<path d="M48.9 23.8511C49.15 22.9511 49.05 22.1011 48.5 21.5011C47.95 20.9511 47.05 20.8011 46.2 21.1011L44.5 22.1511C45.35 21.8511 46.6 22.3011 47.15 22.8511C47.75 23.4511 48.15 24.6511 47.85 25.5011L48.9 23.8511Z" fill="#3E4347"/>
<path d="M45.832 23.849L48.659 21.0195L48.9775 21.3375L46.15 24.1675L45.832 23.849Z" fill="#DAE3EA"/>
</svg>
