<svg width="70" height="70" viewBox="0 0 70 70" fill="none" xmlns="http://www.w3.org/2000/svg">
<circle cx="35" cy="35" r="35" fill="#9A4E1C" fill-opacity="0.09"/>
<g clip-path="url(#clip0_1569_14827)">
<path d="M47.4444 26.1111H42.1111V22.5556C42.1111 21.6126 41.7365 20.7082 41.0697 20.0414C40.4029 19.3746 39.4985 19 38.5556 19H31.4444C30.5015 19 29.5971 19.3746 28.9303 20.0414C28.2635 20.7082 27.8889 21.6126 27.8889 22.5556V26.1111H22.5556C21.6126 26.1111 20.7082 26.4857 20.0414 27.1525C19.3746 27.8193 19 28.7237 19 29.6667V47.4444C19 48.3874 19.3746 49.2918 20.0414 49.9586C20.7082 50.6254 21.6126 51 22.5556 51H47.4444C48.3874 51 49.2918 50.6254 49.9586 49.9586C50.6254 49.2918 51 48.3874 51 47.4444V29.6667C51 28.7237 50.6254 27.8193 49.9586 27.1525C49.2918 26.4857 48.3874 26.1111 47.4444 26.1111ZM29.6667 24.3333C29.6667 23.8618 29.854 23.4097 30.1874 23.0763C30.5208 22.7429 30.9729 22.5556 31.4444 22.5556H38.5556C39.0271 22.5556 39.4792 22.7429 39.8126 23.0763C40.146 23.4097 40.3333 23.8618 40.3333 24.3333V26.1111H29.6667V24.3333Z" fill="#9A4E1C"/>
<path d="M51 36.776C51 37.719 50.6254 38.6234 49.9586 39.2902C49.2918 39.957 48.3874 40.3316 47.4444 40.3316H22.5556C21.6126 40.3316 20.7082 39.957 20.0414 39.2902C19.3746 38.6234 19 37.719 19 36.776V29.6649C19 28.7219 19.3746 27.8176 20.0414 27.1508C20.7082 26.484 21.6126 26.1094 22.5556 26.1094H47.4444C48.3874 26.1094 49.2918 26.484 49.9586 27.1508C50.6254 27.8176 51 28.7219 51 29.6649V36.776Z" fill="#662113"/>
<path d="M51 34.9983C51 35.9413 50.6254 36.8456 49.9586 37.5124C49.2918 38.1792 48.3874 38.5538 47.4444 38.5538H22.5556C21.6126 38.5538 20.7082 38.1792 20.0414 37.5124C19.3746 36.8456 19 35.9413 19 34.9983V29.6649C19 28.7219 19.3746 27.8176 20.0414 27.1508C20.7082 26.484 21.6126 26.1094 22.5556 26.1094H47.4444C48.3874 26.1094 49.2918 26.484 49.9586 27.1508C50.6254 27.8176 51 28.7219 51 29.6649V34.9983Z" fill="#9A4E1C"/>
<path d="M38.5564 35.0004C38.5564 35.4719 38.3691 35.9241 38.0357 36.2575C37.7023 36.5909 37.2501 36.7782 36.7786 36.7782H33.2231C32.7516 36.7782 32.2994 36.5909 31.966 36.2575C31.6326 35.9241 31.4453 35.4719 31.4453 35.0004C31.4453 34.5289 31.6326 34.0768 31.966 33.7434C32.2994 33.41 32.7516 33.2227 33.2231 33.2227H36.7786C37.2501 33.2227 37.7023 33.41 38.0357 33.7434C38.3691 34.0768 38.5564 34.5289 38.5564 35.0004Z" fill="#CCD6DD"/>
</g>
<defs>
<clipPath id="clip0_1569_14827">
<rect width="32" height="32" fill="white" transform="translate(19 19)"/>
</clipPath>
</defs>
</svg>
