<svg width="96" height="96" viewBox="0 0 96 96" fill="none" xmlns="http://www.w3.org/2000/svg">
<circle cx="47.7803" cy="47.7807" r="35" transform="rotate(-150.13 47.7803 47.7807)" fill="#E9F8FF"/>
<g clip-path="url(#clip0_1569_14798)">
<path d="M53.736 62.2984L48.1851 63.7992L47.8197 62.4476L53.3705 60.9468L53.736 62.2984ZM48.0845 57.8734L42.5337 59.3731L42.1683 58.0215L47.7191 56.5218L48.0845 57.8734ZM45.9675 33.5607L40.4163 35.0601L40.0511 33.7081L45.6023 32.2087L45.9675 33.5607ZM43.2879 40.2653L37.7366 41.7647L37.3714 40.4127L42.9231 38.9135L43.2879 40.2653Z" fill="#ACB8BF"/>
<path d="M44.3498 29.2627L35.9038 48.6866L37.0665 52.987L54.1497 65.5086C54.9671 66.0933 56.0387 63.8258 55.3154 62.7762L45.2565 48.4653L46.7336 31.0354C46.8294 29.7642 44.7611 28.3457 44.3498 29.2627Z" fill="#42ADE2"/>
<path d="M29.1272 50.8492C27.1026 52.1658 27.7116 54.4183 30.1238 54.5353C33.2058 54.6909 38.2866 53.9764 43.859 52.5064C52.5962 50.1441 59.3141 46.6796 58.8407 44.7932C58.3424 42.9502 50.7506 43.3181 42.0134 45.6804C36.4844 47.1753 31.7109 49.1618 29.1272 50.8492Z" fill="#DAE3EA"/>
<path d="M58.9669 37.9471L55.9751 44.7625L56.3811 46.2642L62.3996 50.6434C62.6782 50.8611 63.0831 50.0557 62.8358 49.6831L59.318 44.6644L59.8276 38.5568C59.8533 38.1103 59.0978 37.6187 58.9669 37.9471Z" fill="#42ADE2"/>
<path d="M56.4326 44.5647C59.5043 43.7342 62.0539 43.4111 62.1398 43.864C62.2505 44.2735 59.8605 45.3226 56.8322 46.178C53.7605 47.0085 51.2109 47.3316 51.0817 46.8538C51.0143 46.4691 53.4043 45.4201 56.4326 44.5647Z" fill="#ACB8BF"/>
<path d="M30.1767 50.5266C29.5116 51.1825 29.175 51.9694 29.3531 52.7636C29.5561 53.5145 30.2619 54.0928 31.1484 54.256L33.1455 54.1921C32.259 54.0289 31.3992 53.0162 31.1961 52.2653C30.9747 51.4462 31.2255 50.2064 31.9089 49.6187L30.1767 50.5266Z" fill="#3E4347"/>
<path d="M32.835 52.0581L28.9743 53.1038L28.8565 52.6694L32.7179 51.6235L32.835 52.0581Z" fill="#DAE3EA"/>
</g>
<defs>
<clipPath id="clip0_1569_14798">
<rect width="32" height="32" fill="white" transform="translate(53.6875 69.625) rotate(-150.13)"/>
</clipPath>
</defs>
</svg>
