<svg width="48" height="45" viewBox="0 0 48 45" fill="none" xmlns="http://www.w3.org/2000/svg">
<path d="M2.30429 44.7867C2.34128 44.8249 2.40225 44.8259 2.44046 44.7889L3.06314 44.1861C3.10136 44.1491 3.10234 44.0882 3.06535 44.05C3.02836 44.0117 2.9674 44.0108 2.92918 44.0478L2.37569 44.5836L1.83985 44.0301C1.80286 43.9919 1.7419 43.9909 1.70369 44.0279C1.66547 44.0649 1.66449 44.1258 1.70148 44.164L2.30429 44.7867ZM47.8514 0.631001C46.8462 0.755916 45.8605 0.888097 44.894 1.02777L44.9215 1.21838C45.8867 1.0789 46.8711 0.94689 47.8752 0.822124L47.8514 0.631001ZM39.0121 2.01749C36.9724 2.41417 35.0313 2.85303 33.1855 3.33681L33.2343 3.52311C35.0757 3.04048 37.0128 2.60252 39.0489 2.20655L39.0121 2.01749ZM27.4798 5.08446C25.5163 5.78425 23.684 6.55264 21.9773 7.39433L22.0625 7.56706C23.7619 6.72898 25.5873 5.96343 27.5445 5.26588L27.4798 5.08446ZM16.8326 10.4169C15.1534 11.592 13.6369 12.8739 12.2744 14.2698L12.4123 14.4043C13.7659 13.0174 15.2731 11.7433 16.943 10.5747L16.8326 10.4169ZM8.556 18.9371C7.4976 20.5792 6.58523 22.3432 5.80966 24.236L5.98788 24.3091C6.75924 22.4264 7.66625 20.6731 8.71789 19.0414L8.556 18.9371ZM3.9791 29.9156C3.52336 31.7682 3.16353 33.7224 2.89361 35.783L3.08457 35.808C3.35367 33.7537 3.71226 31.8066 4.16612 29.9616L3.9791 29.9156ZM2.37285 41.7302C2.32541 42.7055 2.29368 43.7013 2.2772 44.7182L2.46976 44.7213C2.48622 43.7064 2.51788 42.7126 2.56521 41.7396L2.37285 41.7302ZM2.23511 44.8537C2.30909 44.9301 2.43102 44.9321 2.50744 44.8581L3.75281 43.6525C3.82923 43.5785 3.83121 43.4566 3.75722 43.3802C3.68324 43.3037 3.56131 43.3018 3.48489 43.3757L2.37789 44.4474L1.30622 43.3404C1.23224 43.264 1.11031 43.262 1.03389 43.336C0.957468 43.41 0.95549 43.5319 1.02948 43.6083L2.23511 44.8537ZM47.8395 0.535439C46.8337 0.660429 45.8473 0.792695 44.8802 0.932461L44.9353 1.31369C45.8998 1.1743 46.8836 1.04238 47.887 0.917686L47.8395 0.535439ZM38.9937 1.92297C36.9522 2.32 35.009 2.75931 33.1611 3.24366L33.2588 3.61626C35.0979 3.13421 37.033 2.69669 39.0673 2.30107L38.9937 1.92297ZM27.4475 4.99375C25.4809 5.69467 23.6451 6.46447 21.9347 7.30796L22.1051 7.65342C23.8008 6.81715 25.6227 6.05302 27.5768 5.35659L27.4475 4.99375ZM16.7774 10.338C15.0935 11.5164 13.5724 12.8021 12.2055 14.2025L12.4812 14.4716C13.8305 13.0892 15.333 11.8189 16.9982 10.6536L16.7774 10.338ZM8.47506 18.8849C7.41327 20.5323 6.49822 22.3015 5.72056 24.1995L6.07699 24.3456C6.84625 22.4681 7.75058 20.72 8.79883 19.0936L8.47506 18.8849ZM3.88559 29.8926C3.42891 31.749 3.06846 33.7068 2.79812 35.7705L3.18005 35.8205C3.44875 33.7694 3.80671 31.8257 4.25962 29.9846L3.88559 29.8926ZM2.27667 41.7256C2.22917 42.7019 2.19741 43.6988 2.18091 44.7166L2.56605 44.7229C2.58249 43.709 2.61412 42.7162 2.6614 41.7443L2.27667 41.7256Z" fill="#7E7B77"/>
</svg>
