<svg width="122" height="116" viewBox="0 0 122 116" fill="none" xmlns="http://www.w3.org/2000/svg">
<path d="M4.12541 114.972C4.23085 115.06 4.3873 115.045 4.47483 114.94L5.90127 113.222C5.98881 113.116 5.97428 112.96 5.86883 112.872C5.76339 112.785 5.60694 112.799 5.5194 112.905L4.25146 114.432L2.72402 113.164C2.61857 113.077 2.46213 113.091 2.37459 113.197C2.28706 113.302 2.30158 113.458 2.40703 113.546L4.12541 114.972ZM121.5 1.16986C118.739 1.21358 116.032 1.28273 113.38 1.37784L113.397 1.8738C116.047 1.77882 118.75 1.70975 121.508 1.66608L121.5 1.16986ZM97.1818 2.34146C91.5248 2.82586 86.1533 3.45721 81.0593 4.24202L81.1348 4.73252C86.2167 3.94959 91.577 3.31949 97.2242 2.83593L97.1818 2.34146ZM65.1228 7.42834C59.5684 8.83055 54.4243 10.479 49.6755 12.3861L49.8605 12.8466C54.5862 10.9488 59.7088 9.30698 65.2443 7.90953L65.1228 7.42834ZM35.2165 19.7655C30.4976 22.8039 26.338 26.2445 22.7108 30.1093L23.0726 30.4489C26.6705 26.6154 30.7984 23.2005 35.4852 20.1828L35.2165 19.7655ZM13.2409 43.2904C10.7559 47.8898 8.74525 52.9046 7.18295 58.3537L7.66002 58.4905C9.21342 53.0724 11.2111 48.0912 13.6776 43.5263L13.2409 43.2904ZM4.01659 74.2858C3.39049 79.3732 3.04542 84.7598 2.96745 90.4558L3.46369 90.4626C3.54145 84.7822 3.88552 79.4138 4.50916 74.3464L4.01659 74.2858ZM3.40257 106.702C3.569 109.346 3.78077 112.046 4.03682 114.804L4.53098 114.759C4.27536 112.005 4.06398 109.309 3.89787 106.671L3.40257 106.702ZM3.96692 115.163C4.17781 115.338 4.4907 115.309 4.66577 115.098L7.51863 111.662C7.6937 111.451 7.66466 111.138 7.45376 110.963C7.24286 110.788 6.92998 110.817 6.75491 111.028L4.21903 114.083L1.16414 111.547C0.953236 111.372 0.640352 111.401 0.465293 111.612C0.290222 111.822 0.319263 112.135 0.530167 112.31L3.96692 115.163ZM121.496 0.921747C118.733 0.965491 116.025 1.03469 113.371 1.12986L113.406 2.12179C116.054 2.02687 118.755 1.95784 121.512 1.91419L121.496 0.921747ZM97.1606 2.09422C91.4988 2.57904 86.1217 3.21102 81.0215 3.99677L81.1726 4.97776C86.2484 4.19578 91.6031 3.56631 97.2453 3.08317L97.1606 2.09422ZM65.0621 7.18775C59.4983 8.59234 54.3434 10.244 49.5831 12.1558L49.953 13.0769C54.6671 11.1837 59.7789 9.5452 65.3051 8.15012L65.0621 7.18775ZM35.0822 19.5569C30.3472 22.6056 26.1717 26.059 22.5298 29.9395L23.2536 30.6187C26.8368 26.8009 30.9488 23.3988 35.6195 20.3914L35.0822 19.5569ZM13.0226 43.1724C10.5283 47.789 8.51117 52.8207 6.94442 58.2853L7.89855 58.5588C9.44751 53.1563 11.4388 48.1919 13.8959 43.6442L13.0226 43.1724ZM3.77031 74.2555C3.14297 79.3529 2.79741 84.7486 2.71933 90.4524L3.71181 90.466C3.78946 84.7934 4.13304 79.434 4.75544 74.3767L3.77031 74.2555ZM3.15492 106.718C3.32152 109.364 3.53348 112.067 3.78974 114.827L4.77807 114.736C4.52265 111.984 4.31148 109.291 4.14552 106.655L3.15492 106.718Z" fill="#7E7B77"/>
</svg>
