<svg width="141" height="38" viewBox="0 0 141 38" fill="none" xmlns="http://www.w3.org/2000/svg">
<path d="M37.2341 37.1666H35.1004V30.8804H38.8031V31.509H35.8535V33.5206H37.2341C38.4893 33.5206 39.3051 34.0235 39.3051 35.2807V35.3436C39.3051 36.538 38.4893 37.1666 37.2341 37.1666ZM37.2341 36.6008C38.1755 36.6008 38.552 36.1608 38.552 35.4064V35.3436C38.552 34.5892 38.1127 34.1492 37.1714 34.1492H35.8535V36.6008H37.2341Z" fill="white"/>
<path d="M39.9953 35.9093C39.9953 34.8407 41.1249 34.4635 42.3173 34.4635H43.0076V34.1492C43.0076 33.3948 42.7566 33.0805 42.0035 33.0805C41.376 33.0805 40.9994 33.332 40.9367 33.8977H40.1836C40.3091 32.8291 41.1249 32.4519 42.0035 32.4519C42.8821 32.4519 43.698 32.8291 43.698 34.0863V37.1037H42.9449V36.5379C42.6311 36.978 42.1918 37.2294 41.5015 37.2294C40.6856 37.2294 39.9953 36.8522 39.9953 35.9093ZM43.0076 35.595V35.0292H42.3801C41.4387 35.0292 40.8111 35.2807 40.8111 35.9093C40.8111 36.4122 41.0622 36.6637 41.6897 36.6637C42.3801 36.6637 43.0076 36.2865 43.0076 35.595Z" fill="white"/>
<path d="M47.9025 35.1556H45.6433V37.23H44.8902V32.6411H45.6433V34.5898H47.9025V32.6411H48.6556V37.23H47.9025V35.1556Z" fill="white"/>
<path d="M50.6638 34.8409V37.1668H49.9107V32.5779H50.6638V34.7152L52.5465 32.5779H53.4251L51.4796 34.7152L53.6134 37.1668H52.7348L50.6638 34.8409Z" fill="white"/>
<path d="M13.9508 0.769775C6.4199 0.769775 0.332458 6.86739 0.332458 14.4108C0.332458 21.9543 6.4199 28.0519 13.9508 28.0519C21.4816 28.0519 27.5691 21.9543 27.5691 14.4108C27.5063 6.86739 21.4189 0.769775 13.9508 0.769775ZM12.0053 20.1941L11.0012 23.1486C7.23575 21.8914 4.72546 18.3083 4.72546 14.2851C4.72546 10.2619 7.23575 6.74167 11.0639 5.42156L12.068 8.37608C9.55776 9.19328 7.92608 11.582 7.92608 14.2222C7.86332 17.051 9.49501 19.3769 12.0053 20.1941ZM16.6493 23.2744L15.708 20.257C18.281 19.4398 19.9755 17.051 19.9755 14.348C19.9755 11.6449 18.281 9.31901 15.7707 8.5018L16.7748 5.48443C20.603 6.74167 23.1761 10.3248 23.1761 14.348C23.1761 18.434 20.5403 22.0171 16.6493 23.2744Z" fill="#00BEF0"/>
<path d="M138.586 16.8628L140.092 18.6858C138.523 20.3202 136.577 20.7603 135.009 20.7603C133.502 20.7603 132.436 20.5088 131.494 20.0688C129.486 19.063 128.482 17.0514 128.482 14.5998C128.482 10.8909 130.992 8.125 134.695 8.125C138.837 8.125 140.845 11.2052 140.531 15.2284H131.118C131.18 16.2342 131.745 17.1771 132.561 17.68C133.251 18.1201 134.067 18.3086 135.134 18.3086C136.326 18.3086 137.519 17.9315 138.586 16.8628ZM131.243 13.0282H137.895C137.707 11.5824 136.515 10.3252 134.632 10.3252C132.624 10.388 131.431 11.7081 131.243 13.0282ZM67.9839 20.446H71.3728L66.0384 14.2226L71.31 8.37645H67.9839L63.9674 13.0282H62.775V8.37645H60.202V20.3831H62.775V15.6056H63.9674L67.9839 20.446ZM79.0919 10.5766C76.8954 10.5766 75.452 12.2739 75.452 14.4112C75.452 16.5485 76.8954 18.2458 79.0919 18.2458C81.2884 18.2458 82.6691 16.6114 82.6691 14.4112C82.6691 12.2739 81.3512 10.5766 79.0919 10.5766ZM79.5312 8.125C82.9201 8.125 85.4304 10.7652 85.4304 14.4112C85.4304 17.9943 82.9828 20.7603 79.5312 20.7603C77.8995 20.7603 76.5816 20.1945 75.6403 19.1887V25.4749H73.0044V8.37645H75.5775V9.82227C76.5816 8.6279 77.8368 8.125 79.5312 8.125ZM113.671 8.37645H102.94V10.7652H107.019V20.3831H109.655V10.8281H113.734V8.37645H113.671ZM58.382 8.37645H47.6505V10.7652H51.7298V20.3831H54.3656V10.8281H58.4448V8.37645H58.382ZM44.4499 14.4112C44.4499 12.1482 42.881 10.5138 40.6845 10.5138C38.5508 10.5138 36.9191 12.1482 36.9191 14.4112C36.9191 16.6742 38.488 18.3086 40.6845 18.3086C42.8182 18.3086 44.4499 16.6742 44.4499 14.4112ZM34.2833 14.4112C34.2833 10.8281 37.0446 8.125 40.7473 8.125C44.3872 8.125 47.2112 10.8281 47.2112 14.4112C47.2112 17.9943 44.4499 20.7603 40.7473 20.7603C37.0446 20.7603 34.2833 17.9943 34.2833 14.4112ZM126.411 8.37645V20.3831H123.838V12.6511L117.562 20.3831H115.491V8.37645H118.064V16.1713L124.34 8.43931H126.411V8.37645ZM101.182 20.446H98.6094V8.37645H101.182V20.446ZM94.4674 16.2971C94.4674 15.2284 93.7143 14.4741 92.7102 14.4741H90.0744V18.1829H92.7102C93.7143 18.1829 94.4674 17.4286 94.4674 16.2971ZM97.1032 16.2971C97.1032 18.6858 95.346 20.3831 92.8357 20.3831H87.5014V8.37645H90.0744V12.2739H93.024C95.5343 12.2739 97.1032 13.9083 97.1032 16.2971Z" fill="white"/>
</svg>
