<svg width="115" height="106" viewBox="0 0 115 106" fill="none" xmlns="http://www.w3.org/2000/svg">
<path d="M3.24982 105.489C3.32824 105.567 3.45487 105.566 3.53267 105.488L4.80055 104.21C4.87836 104.132 4.87787 104.005 4.79947 103.927C4.72107 103.849 4.59443 103.85 4.51663 103.928L3.38962 105.064L2.2539 103.937C2.1755 103.859 2.04887 103.86 1.97107 103.938C1.89327 104.016 1.89375 104.143 1.97215 104.221L3.24982 105.489ZM114.548 0.956787C112.428 1.11235 110.344 1.28279 108.295 1.46842L108.331 1.86679C110.378 1.68138 112.46 1.51112 114.577 1.35571L114.548 0.956787ZM95.8514 2.84027C91.5635 3.40467 87.4474 4.04942 83.4985 4.77819L83.5711 5.17155C87.5126 4.44414 91.6219 3.80043 95.9036 3.23685L95.8514 2.84027ZM71.2782 7.43942C67.063 8.51245 63.071 9.70664 59.2948 11.0279L59.4269 11.4055C63.1911 10.0884 67.1719 8.8975 71.3769 7.82705L71.2782 7.43942ZM47.7433 15.7912C43.8377 17.6809 40.2201 19.7558 36.8787 22.0258L37.1034 22.3567C40.4276 20.0984 44.0281 18.0331 47.9175 16.1513L47.7433 15.7912ZM27.1701 29.913C24.1582 32.8432 21.4586 36.0157 19.0556 39.4426L19.3831 39.6722C21.7718 36.2658 24.4551 33.1124 27.449 30.1997L27.1701 29.913ZM12.8189 50.2871C11.1089 53.956 9.64324 57.8554 8.40892 61.9948L8.79224 62.1091C10.0214 57.9869 11.4803 54.1059 13.1814 50.4561L12.8189 50.2871ZM5.55428 74.1783C4.8528 78.1318 4.3136 82.2699 3.92841 86.5989L4.32685 86.6343C4.71111 82.3157 5.24887 78.1892 5.94812 74.2482L5.55428 74.1783ZM3.24867 99.0907C3.20164 101.139 3.18254 103.224 3.19071 105.348L3.5907 105.346C3.58255 103.226 3.60161 101.144 3.64857 99.0999L3.24867 99.0907ZM3.10895 105.631C3.26577 105.786 3.51903 105.785 3.67463 105.629L6.21041 103.073C6.36602 102.916 6.36504 102.663 6.20824 102.508C6.05143 102.352 5.79816 102.353 5.64256 102.51L3.38853 104.781L1.11711 102.527C0.960296 102.372 0.707034 102.373 0.551419 102.529C0.395814 102.686 0.396794 102.939 0.553595 103.095L3.10895 105.631ZM114.533 0.757323C112.413 0.912971 110.327 1.0835 108.277 1.26924L108.349 2.06598C110.395 1.88067 112.476 1.71051 114.592 1.55518L114.533 0.757323ZM95.8253 2.64198C91.5342 3.20679 87.4147 3.85207 83.4622 4.58151L83.6074 5.36823C87.5452 4.6415 91.6511 3.99831 95.9297 3.43514L95.8253 2.64198ZM71.2288 7.2456C67.0086 8.31994 63.011 9.51577 59.2287 10.8391L59.493 11.5943C63.2512 10.2793 67.2263 9.09001 71.4262 8.02087L71.2288 7.2456ZM47.6562 15.6112C43.7425 17.5047 40.1164 19.5845 36.7663 21.8604L37.2158 22.5221C40.5313 20.2698 44.1233 18.2092 48.0046 16.3313L47.6562 15.6112ZM27.0306 29.7696C24.0098 32.7086 21.3021 35.8906 18.8919 39.3277L19.5469 39.787C21.9284 36.3909 24.6036 33.247 27.5885 30.343L27.0306 29.7696ZM12.6376 50.2027C10.9232 53.8811 9.45414 57.7896 8.21726 61.9377L8.9839 62.1663C10.2105 58.0526 11.666 54.1809 13.3627 50.5406L12.6376 50.2027ZM5.35735 74.1433C4.65477 78.1031 4.11485 82.247 3.72921 86.5811L4.52606 86.652C4.90986 82.3386 5.4469 78.2179 6.14505 74.2831L5.35735 74.1433ZM3.04873 99.0861C3.00165 101.136 2.98254 103.223 2.99071 105.348L3.7907 105.345C3.78255 103.227 3.8016 101.147 3.84852 99.1045L3.04873 99.0861Z" fill="#7E7B77"/>
</svg>
