<svg width="115" height="106" viewBox="0 0 115 106" fill="none" xmlns="http://www.w3.org/2000/svg">
<path d="M2.55974 105.011C2.6135 105.107 2.7353 105.142 2.8318 105.088L4.40423 104.212C4.50072 104.158 4.53536 104.036 4.4816 103.94C4.42784 103.843 4.30603 103.809 4.20954 103.862L2.81183 104.641L2.03312 103.243C1.97936 103.147 1.85755 103.112 1.76106 103.166C1.66458 103.22 1.62994 103.342 1.68369 103.438L2.55974 105.011ZM113.842 0.533388C111.705 1.26297 109.607 1.99815 107.546 2.73956L107.682 3.11594C109.74 2.37529 111.836 1.64083 113.971 0.911924L113.842 0.533388ZM95.0731 7.49087C90.8119 9.21255 86.7298 10.9722 82.8186 12.7769L82.9862 13.1401C86.8911 11.3383 90.9672 9.58121 95.223 7.86174L95.0731 7.49087ZM70.8846 18.7098C66.8367 20.8825 62.9983 23.1236 59.357 25.4437L59.572 25.781C63.2043 23.4667 67.034 21.2306 71.0738 19.0622L70.8846 18.7098ZM48.4325 33.0967C44.8343 35.8745 41.4635 38.7637 38.3029 41.7788L38.579 42.0683C41.7291 39.0631 45.0893 36.183 48.6769 33.4133L48.4325 33.0967ZM29.1817 51.519C26.3312 54.9353 23.6886 58.5033 21.2349 62.239L21.5692 62.4586C24.0147 58.7354 26.6482 55.1797 29.4889 51.7752L29.1817 51.519ZM14.5207 73.7716C12.5253 77.6486 10.6833 81.6912 8.97829 85.913L9.34918 86.0628C11.05 81.8515 12.8869 77.8201 14.8763 73.9546L14.5207 73.7716ZM4.46988 98.4599C3.80248 100.552 3.1604 102.685 2.54208 104.859L2.92683 104.968C3.54404 102.798 4.18489 100.669 4.85096 98.5814L4.46988 98.4599ZM2.38502 105.108C2.49254 105.301 2.73615 105.37 2.92913 105.263L6.07399 103.511C6.26698 103.403 6.33626 103.159 6.22874 102.966C6.12123 102.773 5.87762 102.704 5.68463 102.812L2.8892 104.369L1.33178 101.574C1.22426 101.381 0.980664 101.311 0.787674 101.419C0.594696 101.526 0.525404 101.77 0.632925 101.963L2.38502 105.108ZM113.777 0.34412C111.64 1.07404 109.54 1.80957 107.479 2.55137L107.749 3.30413C109.807 2.56386 111.902 1.82976 114.036 1.10119L113.777 0.34412ZM94.9982 7.30543C90.7342 9.02822 86.6492 10.7891 82.7348 12.5953L83.07 13.3217C86.9717 11.5213 91.0449 9.76553 95.2979 8.04718L94.9982 7.30543ZM70.79 18.5336C66.7381 20.7085 62.8953 22.9521 59.2496 25.275L59.6795 25.9497C63.3073 23.6382 67.1327 21.4046 71.1684 19.2384L70.79 18.5336ZM48.3103 32.9384C44.7068 35.7203 41.3307 38.614 38.1649 41.6341L38.7171 42.213C41.8619 39.2128 45.2168 36.3372 48.7991 33.5716L48.3103 32.9384ZM29.0282 51.3908C26.1726 54.8132 23.5256 58.3872 21.0677 62.1292L21.7364 62.5684C24.1778 58.8515 26.8067 55.3019 29.6424 51.9034L29.0282 51.3908ZM14.3429 73.68C12.3445 77.5629 10.5 81.611 8.79285 85.8381L9.53464 86.1377C11.2333 81.9317 13.0677 77.9059 15.0542 74.0461L14.3429 73.68ZM4.27934 98.3991C3.61126 100.493 2.96859 102.628 2.34971 104.804L3.1192 105.023C3.73587 102.854 4.37611 100.728 5.04151 98.6422L4.27934 98.3991Z" fill="#7E7B77"/>
</svg>
